<?xml version="1.0"?>
<!-- Generated by SVGo -->
<svg width="267.652mm" height="119.202mm"
     viewBox="0.000 0.000 267.652 119.202"
     xmlns="http://www.w3.org/2000/svg" 
     xmlns:xlink="http://www.w3.org/1999/xlink">
<polygon points="247.652,5.001 248.828,5.047 249.998,5.185 251.153,5.415 252.287,5.735 253.392,6.142 254.461,6.635 255.489,7.211 256.467,7.865 257.393,8.594 258.258,9.394 259.058,10.259 259.787,11.184 260.441,12.163 261.017,13.191 261.510,14.260 261.917,15.365 262.237,16.499 262.467,17.654 262.605,18.824 262.652,20.001 262.652,99.202 262.605,100.378 262.467,101.548 262.237,102.703 261.917,103.837 261.510,104.942 261.017,106.011 260.441,107.039 259.787,108.018 259.058,108.943 258.258,109.808 257.393,110.608 256.467,111.337 255.489,111.991 254.461,112.567 253.392,113.060 252.287,113.467 251.153,113.787 249.998,114.017 248.828,114.155 247.652,114.202 20.001,114.202 18.824,114.155 17.654,114.017 16.499,113.787 15.365,113.467 14.260,113.060 13.191,112.567 12.163,111.991 11.184,111.337 10.259,110.608 9.394,109.808 8.594,108.943 7.865,108.018 7.211,107.039 6.635,106.011 6.142,104.942 5.735,103.837 5.415,102.703 5.185,101.548 5.047,100.378 5.000,99.201 5.001,20.001 5.047,18.824 5.185,17.654 5.415,16.499 5.735,15.365 6.142,14.260 6.635,13.191 7.211,12.163 7.865,11.184 8.594,10.259 9.394,9.394 10.259,8.594 11.184,7.865 12.163,7.211 13.191,6.635 14.260,6.142 15.365,5.735 16.499,5.415 17.654,5.185 18.824,5.047 20.001,5.000" style="fill:none;stroke-width:0.050000mm;stroke:black"/>
<polygon points="12.006,105.180 11.560,105.407 11.206,105.761 10.979,106.207 10.901,106.702 10.979,107.196 11.206,107.642 11.560,107.996 12.006,108.223 12.501,108.301 12.995,108.223 13.441,107.996 13.795,107.642 14.022,107.196 14.101,106.702 14.022,106.207 13.795,105.761 13.441,105.407 12.995,105.180 12.501,105.102" style="fill:none;stroke-width:0.050000mm;stroke:black"/>
<polygon points="133.332,105.180 132.886,105.407 132.532,105.761 132.304,106.207 132.226,106.702 132.304,107.196 132.532,107.642 132.886,107.996 133.332,108.223 133.826,108.301 134.320,108.223 134.766,107.996 135.120,107.642 135.348,107.196 135.426,106.702 135.348,106.207 135.120,105.761 134.766,105.407 134.320,105.180 133.826,105.102" style="fill:none;stroke-width:0.050000mm;stroke:black"/>
<polygon points="254.657,105.180 254.211,105.407 253.857,105.761 253.630,106.207 253.552,106.702 253.630,107.196 253.857,107.642 254.211,107.996 254.657,108.223 255.152,108.301 255.646,108.223 256.092,107.996 256.446,107.642 256.673,107.196 256.751,106.702 256.673,106.207 256.446,105.761 256.092,105.407 255.646,105.180 255.152,105.102" style="fill:none;stroke-width:0.050000mm;stroke:black"/>
<polygon points="107.776,82.676 107.776,83.275 106.976,83.275 106.976,87.376 99.101,87.376 99.101,84.146 97.376,84.146 97.376,83.226 94.076,83.226 94.076,84.146 92.351,84.146 92.351,87.376 91.526,87.376 91.526,90.176 92.351,90.176 92.351,96.446 94.076,96.446 94.076,97.426 97.376,97.426 97.376,96.446 99.101,96.446 99.101,91.976 106.976,91.976 106.976,96.076 107.776,96.076 107.776,96.676 121.776,96.676 121.776,96.076 122.576,96.076 122.576,91.976 130.450,91.976 130.450,96.446 132.176,96.446 132.176,97.426 135.476,97.426 135.476,96.446 137.201,96.446 137.201,90.176 138.026,90.176 138.026,87.376 137.201,87.376 137.201,84.146 135.476,84.146 135.476,83.226 132.176,83.226 132.176,84.146 130.450,84.146 130.450,87.376 122.576,87.376 122.576,83.275 121.776,83.275 121.776,82.676" style="fill:none;stroke-width:0.050000mm;stroke:black"/>
<polygon points="12.525,82.676 12.525,83.275 11.725,83.275 11.725,96.076 12.525,96.076 12.525,96.676 26.526,96.676 26.526,96.076 27.326,96.076 27.326,83.275 26.526,83.275 26.526,82.676" style="fill:none;stroke-width:0.050000mm;stroke:black"/>
<polygon points="31.576,82.676 31.576,83.275 30.776,83.275 30.776,96.076 31.576,96.076 31.576,96.676 45.576,96.676 45.576,96.076 46.376,96.076 46.376,83.275 45.576,83.275 45.576,82.676" style="fill:none;stroke-width:0.050000mm;stroke:black"/>
<polygon points="50.626,82.676 50.626,83.275 49.826,83.275 49.826,96.076 50.626,96.076 50.626,96.676 64.626,96.676 64.626,96.076 65.426,96.076 65.426,83.275 64.626,83.275 64.626,82.676" style="fill:none;stroke-width:0.050000mm;stroke:black"/>
<polygon points="69.676,82.676 69.676,83.275 68.876,83.275 68.876,96.076 69.676,96.076 69.676,96.676 83.676,96.676 83.676,96.076 84.476,96.076 84.476,83.275 83.676,83.275 83.676,82.676" style="fill:none;stroke-width:0.050000mm;stroke:black"/>
<polygon points="145.876,82.676 145.876,83.275 145.076,83.275 145.076,96.076 145.876,96.076 145.876,96.676 159.876,96.676 159.876,96.076 160.676,96.076 160.676,83.275 159.876,83.275 159.876,82.676" style="fill:none;stroke-width:0.050000mm;stroke:black"/>
<polygon points="164.926,82.676 164.926,83.275 164.126,83.275 164.126,96.076 164.926,96.076 164.926,96.676 178.926,96.676 178.926,96.076 179.726,96.076 179.726,83.275 178.926,83.275 178.926,82.676" style="fill:none;stroke-width:0.050000mm;stroke:black"/>
<polygon points="183.976,82.676 183.976,83.275 183.176,83.275 183.176,96.076 183.976,96.076 183.976,96.676 197.976,96.676 197.976,96.076 198.776,96.076 198.776,83.275 197.976,83.275 197.976,82.676" style="fill:none;stroke-width:0.050000mm;stroke:black"/>
<polygon points="203.026,82.676 203.026,83.275 202.226,83.275 202.226,96.076 203.026,96.076 203.026,96.676 217.026,96.676 217.026,96.076 217.826,96.076 217.826,83.275 217.026,83.275 217.026,82.676" style="fill:none;stroke-width:0.050000mm;stroke:black"/>
<polygon points="222.076,82.676 222.076,83.275 221.276,83.275 221.276,96.076 222.076,96.076 222.076,96.676 236.076,96.676 236.076,96.076 236.876,96.076 236.876,83.275 236.076,83.275 236.076,82.676" style="fill:none;stroke-width:0.050000mm;stroke:black"/>
<polygon points="241.126,82.676 241.126,83.275 240.326,83.275 240.326,96.076 241.126,96.076 241.126,96.676 255.126,96.676 255.126,96.076 255.926,96.076 255.926,83.275 255.126,83.275 255.126,82.676" style="fill:none;stroke-width:0.050000mm;stroke:black"/>
<polygon points="22.051,63.626 22.051,64.225 21.251,64.225 21.251,68.326 20.526,68.326 20.526,65.096 18.801,65.096 18.801,64.176 15.501,64.176 15.501,65.096 13.776,65.096 13.776,68.326 12.951,68.326 12.951,71.126 13.776,71.126 13.776,77.396 15.501,77.396 15.501,78.376 18.801,78.376 18.801,77.396 20.526,77.396 20.526,72.926 21.251,72.926 21.251,77.026 22.051,77.026 22.051,77.626 36.051,77.626 36.051,77.026 36.851,77.026 36.851,72.926 37.576,72.926 37.576,77.396 39.301,77.396 39.301,78.376 42.601,78.376 42.601,77.396 44.326,77.396 44.326,71.126 45.151,71.126 45.151,68.326 44.326,68.326 44.326,65.096 42.601,65.096 42.601,64.176 39.301,64.176 39.301,65.096 37.576,65.096 37.576,68.326 36.851,68.326 36.851,64.225 36.051,64.225 36.051,63.626" style="fill:none;stroke-width:0.050000mm;stroke:black"/>
<polygon points="50.626,63.626 50.626,64.225 49.826,64.225 49.826,77.026 50.626,77.026 50.626,77.626 64.626,77.626 64.626,77.026 65.426,77.026 65.426,64.225 64.626,64.225 64.626,63.626" style="fill:none;stroke-width:0.050000mm;stroke:black"/>
<polygon points="69.676,63.626 69.676,64.225 68.876,64.225 68.876,77.026 69.676,77.026 69.676,77.626 83.676,77.626 83.676,77.026 84.476,77.026 84.476,64.225 83.676,64.225 83.676,63.626" style="fill:none;stroke-width:0.050000mm;stroke:black"/>
<polygon points="88.726,63.626 88.726,64.225 87.926,64.225 87.926,77.026 88.726,77.026 88.726,77.626 102.726,77.626 102.726,77.026 103.525,77.026 103.525,64.225 102.726,64.225 102.726,63.626" style="fill:none;stroke-width:0.050000mm;stroke:black"/>
<polygon points="107.775,63.626 107.775,64.225 106.976,64.225 106.976,77.026 107.775,77.026 107.775,77.626 121.775,77.626 121.775,77.026 122.575,77.026 122.575,64.225 121.775,64.225 121.775,63.626" style="fill:none;stroke-width:0.050000mm;stroke:black"/>
<polygon points="126.825,63.626 126.825,64.225 126.025,64.225 126.025,77.026 126.825,77.026 126.825,77.626 140.826,77.626 140.826,77.026 141.626,77.026 141.626,64.225 140.826,64.225 140.826,63.626" style="fill:none;stroke-width:0.050000mm;stroke:black"/>
<polygon points="145.876,63.626 145.876,64.225 145.076,64.225 145.076,77.026 145.876,77.026 145.876,77.626 159.876,77.626 159.876,77.026 160.676,77.026 160.676,64.225 159.876,64.225 159.876,63.626" style="fill:none;stroke-width:0.050000mm;stroke:black"/>
<polygon points="164.926,63.626 164.926,64.225 164.126,64.225 164.126,77.026 164.926,77.026 164.926,77.626 178.926,77.626 178.926,77.026 179.726,77.026 179.726,64.225 178.926,64.225 178.926,63.626" style="fill:none;stroke-width:0.050000mm;stroke:black"/>
<polygon points="183.976,63.626 183.976,64.225 183.176,64.225 183.176,77.026 183.976,77.026 183.976,77.626 197.976,77.626 197.976,77.026 198.776,77.026 198.776,64.225 197.976,64.225 197.976,63.626" style="fill:none;stroke-width:0.050000mm;stroke:black"/>
<polygon points="203.026,63.626 203.026,64.225 202.226,64.225 202.226,77.026 203.026,77.026 203.026,77.626 217.026,77.626 217.026,77.026 217.826,77.026 217.826,64.225 217.026,64.225 217.026,63.626" style="fill:none;stroke-width:0.050000mm;stroke:black"/>
<polygon points="222.076,63.626 222.076,64.225 221.276,64.225 221.276,77.026 222.076,77.026 222.076,77.626 236.076,77.626 236.076,77.026 236.876,77.026 236.876,64.225 236.076,64.225 236.076,63.626" style="fill:none;stroke-width:0.050000mm;stroke:black"/>
<polygon points="241.126,63.626 241.126,64.225 240.326,64.225 240.326,77.026 241.126,77.026 241.126,77.626 255.126,77.626 255.126,77.026 255.926,77.026 255.926,64.225 255.126,64.225 255.126,63.626" style="fill:none;stroke-width:0.050000mm;stroke:black"/>
<polygon points="17.288,44.576 17.288,45.176 16.488,45.176 16.488,57.976 17.288,57.976 17.288,58.576 31.288,58.576 31.288,57.976 32.088,57.976 32.088,45.176 31.288,45.176 31.288,44.576" style="fill:none;stroke-width:0.050000mm;stroke:black"/>
<polygon points="41.101,44.576 41.101,45.176 40.301,45.176 40.301,57.976 41.101,57.976 41.101,58.576 55.101,58.576 55.101,57.976 55.901,57.976 55.901,45.176 55.101,45.176 55.101,44.576" style="fill:none;stroke-width:0.050000mm;stroke:black"/>
<polygon points="60.151,44.576 60.151,45.176 59.351,45.176 59.351,57.976 60.151,57.976 60.151,58.576 74.151,58.576 74.151,57.976 74.951,57.976 74.951,45.176 74.151,45.176 74.151,44.576" style="fill:none;stroke-width:0.050000mm;stroke:black"/>
<polygon points="79.201,44.576 79.201,45.176 78.401,45.176 78.401,57.976 79.201,57.976 79.201,58.576 93.201,58.576 93.201,57.976 94.001,57.976 94.001,45.176 93.201,45.176 93.201,44.576" style="fill:none;stroke-width:0.050000mm;stroke:black"/>
<polygon points="98.251,44.576 98.251,45.176 97.451,45.176 97.451,57.976 98.251,57.976 98.251,58.576 112.251,58.576 112.251,57.976 113.051,57.976 113.051,45.176 112.251,45.176 112.251,44.576" style="fill:none;stroke-width:0.050000mm;stroke:black"/>
<polygon points="117.301,44.576 117.301,45.176 116.501,45.176 116.501,57.976 117.301,57.976 117.301,58.576 131.301,58.576 131.301,57.976 132.101,57.976 132.101,45.176 131.301,45.176 131.301,44.576" style="fill:none;stroke-width:0.050000mm;stroke:black"/>
<polygon points="136.351,44.576 136.351,45.176 135.550,45.176 135.550,57.976 136.351,57.976 136.351,58.576 150.351,58.576 150.351,57.976 151.151,57.976 151.151,45.176 150.351,45.176 150.351,44.576" style="fill:none;stroke-width:0.050000mm;stroke:black"/>
<polygon points="155.401,44.576 155.401,45.176 154.601,45.176 154.601,57.976 155.401,57.976 155.401,58.576 169.401,58.576 169.401,57.976 170.201,57.976 170.201,45.176 169.401,45.176 169.401,44.576" style="fill:none;stroke-width:0.050000mm;stroke:black"/>
<polygon points="174.451,44.576 174.451,45.176 173.651,45.176 173.651,57.976 174.451,57.976 174.451,58.576 188.451,58.576 188.451,57.976 189.251,57.976 189.251,45.176 188.451,45.176 188.451,44.576" style="fill:none;stroke-width:0.050000mm;stroke:black"/>
<polygon points="193.501,44.576 193.501,45.176 192.701,45.176 192.701,57.976 193.501,57.976 193.501,58.576 207.501,58.576 207.501,57.976 208.301,57.976 208.301,45.176 207.501,45.176 207.501,44.576" style="fill:none;stroke-width:0.050000mm;stroke:black"/>
<polygon points="212.551,44.576 212.551,45.176 211.751,45.176 211.751,57.976 212.551,57.976 212.551,58.576 226.551,58.576 226.551,57.976 227.351,57.976 227.351,45.176 226.551,45.176 226.551,44.576" style="fill:none;stroke-width:0.050000mm;stroke:black"/>
<polygon points="236.363,44.576 236.363,45.176 235.563,45.176 235.563,57.976 236.363,57.976 236.363,58.576 250.363,58.576 250.363,57.976 251.163,57.976 251.163,45.176 250.363,45.176 250.363,44.576" style="fill:none;stroke-width:0.050000mm;stroke:black"/>
<polygon points="12.525,25.526 12.525,26.126 11.725,26.126 11.725,38.926 12.525,38.926 12.525,39.526 26.526,39.526 26.526,38.926 27.326,38.926 27.326,26.126 26.526,26.126 26.526,25.526" style="fill:none;stroke-width:0.050000mm;stroke:black"/>
<polygon points="31.576,25.526 31.576,26.126 30.776,26.126 30.776,38.926 31.576,38.926 31.576,39.526 45.576,39.526 45.576,38.926 46.376,38.926 46.376,26.126 45.576,26.126 45.576,25.526" style="fill:none;stroke-width:0.050000mm;stroke:black"/>
<polygon points="50.626,25.526 50.626,26.126 49.826,26.126 49.826,38.926 50.626,38.926 50.626,39.526 64.626,39.526 64.626,38.926 65.426,38.926 65.426,26.126 64.626,26.126 64.626,25.526" style="fill:none;stroke-width:0.050000mm;stroke:black"/>
<polygon points="69.676,25.526 69.676,26.126 68.876,26.126 68.876,38.926 69.676,38.926 69.676,39.526 83.676,39.526 83.676,38.926 84.476,38.926 84.476,26.126 83.676,26.126 83.676,25.526" style="fill:none;stroke-width:0.050000mm;stroke:black"/>
<polygon points="88.726,25.526 88.726,26.126 87.926,26.126 87.926,38.926 88.726,38.926 88.726,39.526 102.726,39.526 102.726,38.926 103.525,38.926 103.525,26.126 102.726,26.126 102.726,25.526" style="fill:none;stroke-width:0.050000mm;stroke:black"/>
<polygon points="107.775,25.526 107.775,26.126 106.976,26.126 106.976,38.926 107.775,38.926 107.775,39.526 121.775,39.526 121.775,38.926 122.575,38.926 122.575,26.126 121.775,26.126 121.775,25.526" style="fill:none;stroke-width:0.050000mm;stroke:black"/>
<polygon points="126.825,25.526 126.825,26.126 126.025,26.126 126.025,38.926 126.825,38.926 126.825,39.526 140.826,39.526 140.826,38.926 141.626,38.926 141.626,26.126 140.826,26.126 140.826,25.526" style="fill:none;stroke-width:0.050000mm;stroke:black"/>
<polygon points="145.876,25.526 145.876,26.126 145.076,26.126 145.076,38.926 145.876,38.926 145.876,39.526 159.876,39.526 159.876,38.926 160.676,38.926 160.676,26.126 159.876,26.126 159.876,25.526" style="fill:none;stroke-width:0.050000mm;stroke:black"/>
<polygon points="164.926,25.526 164.926,26.126 164.126,26.126 164.126,38.926 164.926,38.926 164.926,39.526 178.926,39.526 178.926,38.926 179.726,38.926 179.726,26.126 178.926,26.126 178.926,25.526" style="fill:none;stroke-width:0.050000mm;stroke:black"/>
<polygon points="183.976,25.526 183.976,26.126 183.176,26.126 183.176,38.926 183.976,38.926 183.976,39.526 197.976,39.526 197.976,38.926 198.776,38.926 198.776,26.126 197.976,26.126 197.976,25.526" style="fill:none;stroke-width:0.050000mm;stroke:black"/>
<polygon points="203.026,25.526 203.026,26.126 202.226,26.126 202.226,38.926 203.026,38.926 203.026,39.526 217.026,39.526 217.026,38.926 217.826,38.926 217.826,26.126 217.026,26.126 217.026,25.526" style="fill:none;stroke-width:0.050000mm;stroke:black"/>
<polygon points="222.076,25.526 222.076,26.126 221.276,26.126 221.276,38.926 222.076,38.926 222.076,39.526 236.076,39.526 236.076,38.926 236.876,38.926 236.876,26.126 236.076,26.126 236.076,25.526" style="fill:none;stroke-width:0.050000mm;stroke:black"/>
<polygon points="241.126,25.526 241.126,26.126 240.326,26.126 240.326,38.926 241.126,38.926 241.126,39.526 255.126,39.526 255.126,38.926 255.926,38.926 255.926,26.126 255.126,26.126 255.126,25.526" style="fill:none;stroke-width:0.050000mm;stroke:black"/>
<polygon points="12.006,10.979 11.560,11.206 11.206,11.560 10.979,12.006 10.901,12.501 10.979,12.995 11.206,13.441 11.560,13.795 12.006,14.022 12.501,14.101 12.995,14.022 13.441,13.795 13.795,13.441 14.022,12.995 14.101,12.501 14.022,12.006 13.795,11.560 13.441,11.206 12.995,10.979 12.501,10.901" style="fill:none;stroke-width:0.050000mm;stroke:black"/>
<polygon points="133.332,10.979 132.886,11.206 132.532,11.560 132.304,12.006 132.226,12.501 132.304,12.995 132.532,13.441 132.886,13.795 133.332,14.022 133.826,14.101 134.320,14.022 134.766,13.795 135.120,13.441 135.348,12.995 135.426,12.501 135.348,12.006 135.120,11.560 134.766,11.206 134.320,10.979 133.826,10.901" style="fill:none;stroke-width:0.050000mm;stroke:black"/>
<polygon points="254.657,10.979 254.211,11.206 253.857,11.560 253.630,12.006 253.552,12.501 253.630,12.995 253.857,13.441 254.211,13.795 254.657,14.022 255.152,14.101 255.646,14.022 256.092,13.795 256.446,13.441 256.673,12.995 256.751,12.501 256.673,12.006 256.446,11.560 256.092,11.206 255.646,10.979 255.152,10.901" style="fill:none;stroke-width:0.050000mm;stroke:black"/>
</svg>
