<?xml version="1.0" encoding="UTF-8" standalone="no"?>
<!-- Generated by SVGo -->

<svg
   width="267.652mm"
   height="209.202mm"
   viewBox="0.000 0.000 267.652 209.202"
   version="1.1"
   id="svg1278"
   sodipodi:docname="stormkb47.svg"
   inkscape:version="1.1.2 (0a00cf5339, 2022-02-04)"
   xmlns:inkscape="http://www.inkscape.org/namespaces/inkscape"
   xmlns:sodipodi="http://sodipodi.sourceforge.net/DTD/sodipodi-0.dtd"
   xmlns="http://www.w3.org/2000/svg"
   xmlns:svg="http://www.w3.org/2000/svg">
  <defs
     id="defs1282" />
  <sodipodi:namedview
     id="namedview1280"
     pagecolor="#ffffff"
     bordercolor="#666666"
     borderopacity="1.0"
     inkscape:pageshadow="2"
     inkscape:pageopacity="0.0"
     inkscape:pagecheckerboard="0"
     inkscape:document-units="mm"
     showgrid="true"
     showguides="true"
     inkscape:zoom="5.6568542"
     inkscape:cx="822.98391"
     inkscape:cy="625.96628"
     inkscape:window-width="1600"
     inkscape:window-height="759"
     inkscape:window-x="0"
     inkscape:window-y="32"
     inkscape:window-maximized="1"
     inkscape:current-layer="layer1"
     inkscape:snap-global="false">
    <inkscape:grid
       type="xygrid"
       id="grid2000" />
  </sodipodi:namedview>
  <g
     inkscape:groupmode="layer"
     id="layer1"
     inkscape:label="main"
     style="display:inline">
    <g
       id="g2532"
       inkscape:label="trackpoint assembly"
       transform="translate(2.3330641,8.5130377)">
      <rect
         style="fill:none;stroke:#000000;stroke-width:0.197454"
         id="rect1256"
         width="11.662701"
         height="18.891478"
         x="218.73482"
         y="148.52895"
         inkscape:label="buttons hole" />
      <g
         id="g8802"
         inkscape:label="m2.5 baseboard holes">
        <path
           style="fill:none;stroke:#000000;stroke-width:0.189;stroke-miterlimit:4;stroke-dasharray:none"
           id="path1193-6"
           sodipodi:type="arc"
           sodipodi:cx="233.85756"
           sodipodi:cy="111.35757"
           sodipodi:rx="1.2630253"
           sodipodi:ry="1.2630253"
           sodipodi:start="1.5027979"
           sodipodi:end="1.5016725"
           sodipodi:arc-type="arc"
           sodipodi:open="true"
           d="m 233.94338,112.61767 a 1.2630253,1.2630253 0 0 1 -1.3459,-1.17393 1.2630253,1.2630253 0 0 1 1.17355,-1.34623 1.2630253,1.2630253 0 0 1 1.34656,1.17318 1.2630253,1.2630253 0 0 1 -1.1728,1.34689"
           inkscape:label="m2.5 trackpoint mounting hole top right" />
        <path
           style="fill:none;stroke:#000000;stroke-width:0.189;stroke-miterlimit:4;stroke-dasharray:none"
           id="path1193-7-5"
           sodipodi:type="arc"
           sodipodi:cx="233.85756"
           sodipodi:cy="153.85756"
           sodipodi:rx="1.2630253"
           sodipodi:ry="1.2630253"
           sodipodi:start="1.5027979"
           sodipodi:end="1.5016725"
           sodipodi:arc-type="arc"
           sodipodi:open="true"
           d="m 233.94338,155.11767 a 1.2630253,1.2630253 0 0 1 -1.3459,-1.17394 1.2630253,1.2630253 0 0 1 1.17355,-1.34623 1.2630253,1.2630253 0 0 1 1.34656,1.17318 1.2630253,1.2630253 0 0 1 -1.1728,1.34689"
           inkscape:label="m2.5 trackpoint mounting hole bottom right" />
        <path
           style="fill:none;stroke:#000000;stroke-width:0.189;stroke-miterlimit:4;stroke-dasharray:none"
           id="path1193-7"
           sodipodi:type="arc"
           sodipodi:cx="201.35756"
           sodipodi:cy="153.85756"
           sodipodi:rx="1.2630253"
           sodipodi:ry="1.2630253"
           sodipodi:start="1.5027979"
           sodipodi:end="1.5016725"
           sodipodi:arc-type="arc"
           sodipodi:open="true"
           d="m 201.44338,155.11767 a 1.2630253,1.2630253 0 0 1 -1.3459,-1.17394 1.2630253,1.2630253 0 0 1 1.17355,-1.34623 1.2630253,1.2630253 0 0 1 1.34656,1.17318 1.2630253,1.2630253 0 0 1 -1.1728,1.34689"
           inkscape:label="m2.5 trackpoint mounting hole bottom left" />
        <path
           style="fill:none;stroke:#000000;stroke-width:0.189;stroke-miterlimit:4;stroke-dasharray:none"
           id="path1193"
           sodipodi:type="arc"
           sodipodi:cx="201.35756"
           sodipodi:cy="111.35757"
           sodipodi:rx="1.2630253"
           sodipodi:ry="1.2630253"
           sodipodi:start="1.5027979"
           sodipodi:end="1.5016725"
           sodipodi:arc-type="arc"
           d="m 201.44338,112.61767 a 1.2630253,1.2630253 0 0 1 -1.3459,-1.17393 1.2630253,1.2630253 0 0 1 1.17355,-1.34623 1.2630253,1.2630253 0 0 1 1.34656,1.17318 1.2630253,1.2630253 0 0 1 -1.1728,1.34689"
           sodipodi:open="true"
           inkscape:label="m2.5 trackpoint mounting hole top left" />
      </g>
      <g
         id="g8796"
         inkscape:label="m2 mounting holes">
        <path
           style="display:inline;fill:none;stroke:#000000;stroke-width:0.189;stroke-miterlimit:4;stroke-dasharray:none"
           id="path1193-3"
           sodipodi:type="arc"
           sodipodi:cx="207.9109"
           sodipodi:cy="123.71093"
           sodipodi:rx="1.116433"
           sodipodi:ry="1.116433"
           sodipodi:start="1.5027979"
           sodipodi:end="1.5016725"
           sodipodi:arc-type="arc"
           sodipodi:open="true"
           inkscape:label="m2 trackpoint mounting hole left"
           d="m 207.98676,124.82478 a 1.116433,1.116433 0 0 1 -1.18969,-1.03768 1.116433,1.116433 0 0 1 1.03735,-1.18998 1.116433,1.116433 0 0 1 1.19027,1.03701 1.116433,1.116433 0 0 1 -1.03668,1.19057" />
        <path
           style="display:inline;fill:none;stroke:#000000;stroke-width:0.189;stroke-miterlimit:4;stroke-dasharray:none"
           id="path1193-3-6"
           sodipodi:type="arc"
           sodipodi:cx="226.8279"
           sodipodi:cy="123.71093"
           sodipodi:rx="1.116433"
           sodipodi:ry="1.116433"
           sodipodi:start="1.5027979"
           sodipodi:end="1.5016725"
           sodipodi:arc-type="arc"
           sodipodi:open="true"
           inkscape:label="m2 trackpoint mounting hole right"
           d="m 226.90375,124.82478 a 1.116433,1.116433 0 0 1 -1.18969,-1.03768 1.116433,1.116433 0 0 1 1.03735,-1.18998 1.116433,1.116433 0 0 1 1.19027,1.03701 1.116433,1.116433 0 0 1 -1.03667,1.19057" />
      </g>
      <g
         id="g8792"
         inkscape:label="guidelines">
        <path
           style="fill:none;stroke:#000000;stroke-width:0.135774;stroke-linecap:butt;stroke-linejoin:miter;stroke-miterlimit:4;stroke-dasharray:0.271548, 0.135774;stroke-dashoffset:0;stroke-opacity:1"
           d="m 197.54994,109.22654 v 70.7233 0 0"
           id="path2567"
           inkscape:label="left guideline" />
        <rect
           style="fill:none;stroke:#000000;stroke-width:0.0928547;stroke-miterlimit:4;stroke-dasharray:0.18571, 0.0928547;stroke-dashoffset:0"
           id="rect2671"
           width="2.4071453"
           height="2.4071453"
           x="205.07437"
           y="111.34322"
           inkscape:label="guide square" />
        <path
           style="fill:none;stroke:#000000;stroke-width:0.1;stroke-linecap:butt;stroke-linejoin:miter;stroke-miterlimit:4;stroke-dasharray:0.2, 0.1;stroke-dashoffset:0;stroke-opacity:1"
           d="m 197.42735,107.54996 h 41.01042 v 0 0"
           id="path2866"
           inkscape:label="top guideline" />
      </g>
      <g
         id="g8787"
         inkscape:label="mouse buttons">
        <path
           id="path3785"
           style="fill:none;stroke:#000000;stroke-width:0.1;stroke-linecap:butt;stroke-linejoin:miter;stroke-miterlimit:4;stroke-dasharray:none;stroke-opacity:1"
           d="m 224.48194,164.05042 h 5 v 0 0 0 m -2.44893,-2.55044 -0.002,4.9999 v 0 0"
           inkscape:label="lmb cross" />
        <path
           id="path3785-1"
           style="fill:none;stroke:#000000;stroke-width:0.1;stroke-linecap:butt;stroke-linejoin:miter;stroke-miterlimit:4;stroke-dasharray:none;stroke-opacity:1"
           d="m 224.48194,158.05042 h 5 v 0 0 0 m -2.44893,-2.55044 -0.002,4.9999 v 0 0"
           inkscape:label="rmb cross" />
        <path
           id="path3785-6"
           style="fill:none;stroke:#000000;stroke-width:0.1;stroke-linecap:butt;stroke-linejoin:miter;stroke-miterlimit:4;stroke-dasharray:none;stroke-opacity:1"
           d="m 224.48194,152.09109 h 5 v 0 0 0 m -2.44893,-2.55044 -0.002,4.9999 v 0 0"
           inkscape:label="mmb cross" />
        <path
           id="path4356"
           style="fill:none;stroke:#000000;stroke-width:0.1;stroke-linecap:butt;stroke-linejoin:miter;stroke-miterlimit:4;stroke-dasharray:none;stroke-opacity:1"
           d="m 230.50006,160.95914 2.1e-4,6.54071 -10.83333,2.2e-4 m 10.83333,-12.50061 v 5.95804 h -10.83333 m 0,-12.36654 h 10.83333 v 6.45 h -10.83333"
           sodipodi:nodetypes="cccccccccc"
           inkscape:label="mouse button cuts" />
      </g>
      <path
         style="fill:none;stroke:#000000;stroke-width:0.189;stroke-miterlimit:4;stroke-dasharray:none"
         id="path1193-5"
         sodipodi:type="arc"
         sodipodi:cx="217.36908"
         sodipodi:cy="123.70692"
         sodipodi:rx="6.2450075"
         sodipodi:ry="6.2452211"
         sodipodi:start="1.5027979"
         sodipodi:end="1.5016725"
         sodipodi:arc-type="arc"
         sodipodi:open="true"
         d="m 217.7934,129.93771 a 6.2450075,6.2452211 0 0 1 -6.65478,-5.8047 6.2450075,6.2452211 0 0 1 5.80263,-6.65664 6.2450075,6.2452211 0 0 1 6.65804,5.80095 6.2450075,6.2452211 0 0 1 -5.79888,6.6599"
         inkscape:label="trackpoint stick hole" />
    </g>
    <g
       id="g2524"
       inkscape:label="keys"
       transform="translate(0.05573031,3.1189475)"
       sodipodi:insensitive="true">
      <polygon
         points="241.126,22.526 241.126,36.526 255.126,36.526 255.126,22.526 "
         style="fill:none;stroke:#000000;stroke-width:0.05mm"
         id="polygon1270"
         inkscape:label="del key" />
      <polygon
         points="222.076,22.526 222.076,36.526 236.076,36.526 236.076,22.526 "
         style="fill:none;stroke:#000000;stroke-width:0.05mm"
         id="polygon1268"
         inkscape:label="{ } [ ] key" />
      <polygon
         points="203.026,22.526 203.026,36.526 217.026,36.526 217.026,22.526 "
         style="fill:none;stroke:#000000;stroke-width:0.05mm"
         id="polygon1266"
         inkscape:label="P key" />
      <polygon
         points="183.976,22.526 183.976,36.526 197.976,36.526 197.976,22.526 "
         style="fill:none;stroke:#000000;stroke-width:0.05mm"
         id="polygon1264"
         inkscape:label="O key" />
      <polygon
         points="164.926,22.526 164.926,36.526 178.926,36.526 178.926,22.526 "
         style="fill:none;stroke:#000000;stroke-width:0.05mm"
         id="polygon1262"
         inkscape:label="I key" />
      <polygon
         points="145.876,22.526 145.876,36.526 159.876,36.526 159.876,22.526 "
         style="fill:none;stroke:#000000;stroke-width:0.05mm"
         id="polygon1260"
         inkscape:label="U key" />
      <polygon
         points="126.825,22.526 126.825,36.526 140.826,36.526 140.826,22.526 "
         style="fill:none;stroke:#000000;stroke-width:0.05mm"
         id="polygon1258"
         inkscape:label="Y key" />
      <polygon
         points="107.775,22.526 107.775,36.526 121.775,36.526 121.775,22.526 "
         style="fill:none;stroke:#000000;stroke-width:0.05mm"
         id="polygon1256"
         inkscape:label="T key" />
      <polygon
         points="88.726,22.526 88.726,36.526 102.726,36.526 102.726,22.526 "
         style="fill:none;stroke:#000000;stroke-width:0.05mm"
         id="polygon1254"
         inkscape:label="R key" />
      <polygon
         points="69.676,22.526 69.676,36.526 83.676,36.526 83.676,22.526 "
         style="fill:none;stroke:#000000;stroke-width:0.05mm"
         id="polygon1252"
         inkscape:label="E key" />
      <polygon
         points="50.626,22.526 50.626,36.526 64.626,36.526 64.626,22.526 "
         style="fill:none;stroke:#000000;stroke-width:0.05mm"
         id="polygon1250"
         inkscape:label="W key" />
      <polygon
         points="31.576,22.526 31.576,36.526 45.576,36.526 45.576,22.526 "
         style="fill:none;stroke:#000000;stroke-width:0.05mm"
         id="polygon1248"
         inkscape:label="Q key" />
      <polygon
         points="12.525,22.526 12.525,36.526 26.526,36.526 26.526,22.526 "
         style="fill:none;stroke:#000000;stroke-width:0.05mm"
         id="polygon1246"
         inkscape:label="Esc key" />
      <polygon
         points="236.363,41.576 236.363,55.576 250.363,55.576 250.363,41.576 "
         style="fill:none;stroke:#000000;stroke-width:0.05mm"
         id="polygon1244"
         inkscape:label="Enter key" />
      <polygon
         points="212.551,41.576 212.551,55.576 226.551,55.576 226.551,41.576 "
         style="fill:none;stroke:#000000;stroke-width:0.05mm"
         id="polygon1242"
         inkscape:label="; ; &quot; ' key" />
      <polygon
         points="193.501,41.576 193.501,55.576 207.501,55.576 207.501,41.576 "
         style="fill:none;stroke:#000000;stroke-width:0.05mm"
         id="polygon1240"
         inkscape:label="L key" />
      <polygon
         points="174.451,41.576 174.451,55.576 188.451,55.576 188.451,41.576 "
         style="fill:none;stroke:#000000;stroke-width:0.05mm"
         id="polygon1238"
         inkscape:label="K key" />
      <polygon
         points="155.401,41.576 155.401,55.576 169.401,55.576 169.401,41.576 "
         style="fill:none;stroke:#000000;stroke-width:0.05mm"
         id="polygon1236"
         inkscape:label="J key" />
      <polygon
         points="136.351,41.576 136.351,55.576 150.351,55.576 150.351,41.576 "
         style="fill:none;stroke:#000000;stroke-width:0.05mm"
         id="polygon1234"
         inkscape:label="H key" />
      <polygon
         points="117.301,41.576 117.301,55.576 131.301,55.576 131.301,41.576 "
         style="fill:none;stroke:#000000;stroke-width:0.05mm"
         id="polygon1232"
         inkscape:label="G key" />
      <polygon
         points="98.251,41.576 98.251,55.576 112.251,55.576 112.251,41.576 "
         style="fill:none;stroke:#000000;stroke-width:0.05mm"
         id="polygon1230"
         inkscape:label="F key" />
      <polygon
         points="79.201,41.576 79.201,55.576 93.201,55.576 93.201,41.576 "
         style="fill:none;stroke:#000000;stroke-width:0.05mm"
         id="polygon1228"
         inkscape:label="D key" />
      <polygon
         points="60.151,41.576 60.151,55.576 74.151,55.576 74.151,41.576 "
         style="fill:none;stroke:#000000;stroke-width:0.05mm"
         id="polygon1226"
         inkscape:label="S key" />
      <polygon
         points="41.101,41.576 41.101,55.576 55.101,55.576 55.101,41.576 "
         style="fill:none;stroke:#000000;stroke-width:0.05mm"
         id="polygon1224"
         inkscape:label="A key" />
      <polygon
         points="17.288,41.576 17.288,55.576 31.288,55.576 31.288,41.576 "
         style="fill:none;stroke:#000000;stroke-width:0.05mm"
         id="polygon1222"
         inkscape:label="Tab key" />
      <polygon
         points="241.126,60.626 241.126,74.626 255.126,74.626 255.126,60.626 "
         style="fill:none;stroke:#000000;stroke-width:0.05mm"
         id="polygon1220"
         inkscape:label="? / key" />
      <polygon
         points="222.076,60.626 222.076,74.626 236.076,74.626 236.076,60.626 "
         style="fill:none;stroke:#000000;stroke-width:0.05mm"
         id="polygon1218"
         inkscape:label="Up Arrow key" />
      <polygon
         points="203.026,60.626 203.026,74.626 217.026,74.626 217.026,60.626 "
         style="fill:none;stroke:#000000;stroke-width:0.05mm"
         id="polygon1216"
         inkscape:label="&gt; . key" />
      <polygon
         points="183.976,60.626 183.976,74.626 197.976,74.626 197.976,60.626 "
         style="fill:none;stroke:#000000;stroke-width:0.05mm"
         id="polygon1214"
         inkscape:label="&lt; , key" />
      <polygon
         points="164.926,60.626 164.926,74.626 178.926,74.626 178.926,60.626 "
         style="fill:none;stroke:#000000;stroke-width:0.05mm"
         id="polygon1212"
         inkscape:label="M key" />
      <polygon
         points="145.876,60.626 145.876,74.626 159.876,74.626 159.876,60.626 "
         style="fill:none;stroke:#000000;stroke-width:0.05mm"
         id="polygon1210"
         inkscape:label="N key" />
      <polygon
         points="126.825,60.626 126.825,74.626 140.826,74.626 140.826,60.626 "
         style="fill:none;stroke:#000000;stroke-width:0.05mm"
         id="polygon1208"
         inkscape:label="B key" />
      <polygon
         points="107.775,60.626 107.775,74.626 121.775,74.626 121.775,60.626 "
         style="fill:none;stroke:#000000;stroke-width:0.05mm"
         id="polygon1206"
         inkscape:label="V key" />
      <polygon
         points="88.726,60.626 88.726,74.626 102.726,74.626 102.726,60.626 "
         style="fill:none;stroke:#000000;stroke-width:0.05mm"
         id="polygon1204"
         inkscape:label="C key" />
      <polygon
         points="69.676,60.626 69.676,74.626 83.676,74.626 83.676,60.626 "
         style="fill:none;stroke:#000000;stroke-width:0.05mm"
         id="polygon1202"
         inkscape:label="X key" />
      <polygon
         points="50.626,60.626 50.626,74.626 64.626,74.626 64.626,60.626 "
         style="fill:none;stroke:#000000;stroke-width:0.05mm"
         id="polygon1200"
         inkscape:label="Z key" />
      <polygon
         points="37.576,62.096 37.576,65.326 36.051,65.326 36.051,60.626 22.051,60.626 22.051,65.326 20.526,65.326 20.526,62.096 18.801,62.096 18.801,61.176 15.501,61.176 15.501,62.096 13.776,62.096 13.776,65.326 12.951,65.326 12.951,68.126 13.776,68.126 13.776,74.396 15.501,74.396 15.501,75.376 18.801,75.376 18.801,74.396 20.526,74.396 20.526,69.926 22.051,69.926 22.051,74.626 36.051,74.626 36.051,69.926 37.576,69.926 37.576,74.396 39.301,74.396 39.301,75.376 42.601,75.376 42.601,74.396 44.326,74.396 44.326,68.126 45.151,68.126 45.151,65.326 44.326,65.326 44.326,62.096 42.601,62.096 42.601,61.176 39.301,61.176 39.301,62.096 "
         style="fill:none;stroke:#000000;stroke-width:0.05mm"
         id="polygon1198"
         inkscape:label="Shift key" />
      <polygon
         points="241.126,79.676 241.126,93.676 255.126,93.676 255.126,79.676 "
         style="fill:none;stroke:#000000;stroke-width:0.05mm"
         id="polygon1196"
         inkscape:label="Right Arrow key" />
      <polygon
         points="222.076,79.676 222.076,93.676 236.076,93.676 236.076,79.676 "
         style="fill:none;stroke:#000000;stroke-width:0.05mm"
         id="polygon1194"
         inkscape:label="Down Arrow key" />
      <polygon
         points="203.026,79.676 203.026,93.676 217.026,93.676 217.026,79.676 "
         style="fill:none;stroke:#000000;stroke-width:0.05mm"
         id="polygon1192"
         inkscape:label="Left Arrow key" />
      <polygon
         points="183.976,79.676 183.976,93.676 197.976,93.676 197.976,79.676 "
         style="fill:none;stroke:#000000;stroke-width:0.05mm"
         id="polygon1190"
         inkscape:label="| \ key" />
      <polygon
         points="164.926,79.676 164.926,93.676 178.926,93.676 178.926,79.676 "
         style="fill:none;stroke:#000000;stroke-width:0.05mm"
         id="polygon1188"
         inkscape:label="Menu key" />
      <polygon
         points="145.876,79.676 145.876,93.676 159.876,93.676 159.876,79.676 "
         style="fill:none;stroke:#000000;stroke-width:0.05mm"
         id="polygon1186"
         inkscape:label="AltGr key" />
      <polygon
         points="69.676,79.676 69.676,93.676 83.676,93.676 83.676,79.676 "
         style="fill:none;stroke:#000000;stroke-width:0.05mm"
         id="polygon1184"
         inkscape:label="Alt key" />
      <polygon
         points="50.626,79.676 50.626,93.676 64.626,93.676 64.626,79.676 "
         style="fill:none;stroke:#000000;stroke-width:0.05mm"
         id="polygon1182"
         inkscape:label="Meta key" />
      <polygon
         points="31.576,79.676 31.576,93.676 45.576,93.676 45.576,79.676 "
         style="fill:none;stroke:#000000;stroke-width:0.05mm"
         id="polygon1180"
         inkscape:label="Fn key" />
      <polygon
         points="12.525,79.676 12.525,93.676 26.526,93.676 26.526,79.676 "
         style="fill:none;stroke:#000000;stroke-width:0.05mm"
         id="polygon1178"
         inkscape:label="Ctrl key" />
      <polygon
         points="130.45,81.146 130.45,84.376 121.776,84.376 121.776,79.676 107.776,79.676 107.776,84.376 99.101,84.376 99.101,81.146 97.376,81.146 97.376,80.226 94.076,80.226 94.076,81.146 92.351,81.146 92.351,84.376 91.526,84.376 91.526,87.176 92.351,87.176 92.351,93.446 94.076,93.446 94.076,94.426 97.376,94.426 97.376,93.446 99.101,93.446 99.101,88.976 107.776,88.976 107.776,93.676 121.776,93.676 121.776,88.976 130.45,88.976 130.45,93.446 132.176,93.446 132.176,94.426 135.476,94.426 135.476,93.446 137.201,93.446 137.201,87.176 138.026,87.176 138.026,84.376 137.201,84.376 137.201,81.146 135.476,81.146 135.476,80.226 132.176,80.226 132.176,81.146 "
         style="fill:none;stroke:#000000;stroke-width:0.05mm"
         id="polygon1176"
         inkscape:label="Spacebar" />
    </g>
    <g
       id="g8721"
       inkscape:label="mounting holes"
       sodipodi:insensitive="true">
      <polygon
         points="134.32,14.022 134.766,13.795 135.12,13.441 135.348,12.995 135.426,12.501 135.348,12.006 135.12,11.56 134.766,11.206 134.32,10.979 133.826,10.901 133.332,10.979 132.886,11.206 132.532,11.56 132.304,12.006 132.226,12.501 132.304,12.995 132.532,13.441 132.886,13.795 133.332,14.022 133.826,14.101 "
         style="fill:none;stroke:#000000;stroke-width:0.05mm"
         id="polygon1274"
         inkscape:label="m3 mounting hole top center" />
      <polygon
         points="255.646,14.022 256.092,13.795 256.446,13.441 256.673,12.995 256.751,12.501 256.673,12.006 256.446,11.56 256.092,11.206 255.646,10.979 255.152,10.901 254.657,10.979 254.211,11.206 253.857,11.56 253.63,12.006 253.552,12.501 253.63,12.995 253.857,13.441 254.211,13.795 254.657,14.022 255.152,14.101 "
         style="fill:none;stroke:#000000;stroke-width:0.05mm"
         id="polygon1276"
         inkscape:label="m3 mounting hole top right" />
      <polygon
         points="13.795,13.441 14.022,12.995 14.101,12.501 14.022,12.006 13.795,11.56 13.441,11.206 12.995,10.979 12.501,10.901 12.006,10.979 11.56,11.206 11.206,11.56 10.979,12.006 10.901,12.501 10.979,12.995 11.206,13.441 11.56,13.795 12.006,14.022 12.501,14.101 12.995,14.022 13.441,13.795 "
         style="fill:none;stroke:#000000;stroke-width:0.05mm"
         id="polygon1272"
         inkscape:label="m3 mounting hole top left"
         sodipodi:insensitive="true" />
      <polygon
         points="13.441,105.407 12.995,105.18 12.501,105.102 12.006,105.18 11.56,105.407 11.206,105.761 10.979,106.207 10.901,106.702 10.979,107.196 11.206,107.642 11.56,107.996 12.006,108.223 12.501,108.301 12.995,108.223 13.441,107.996 13.795,107.642 14.022,107.196 14.101,106.702 14.022,106.207 13.795,105.761 "
         style="fill:none;stroke:#000000;stroke-width:0.05mm"
         id="polygon1424"
         inkscape:label="m3 mounting hole center left" />
      <polygon
         points="134.766,105.407 134.32,105.18 133.826,105.102 133.332,105.18 132.886,105.407 132.532,105.761 132.304,106.207 132.226,106.702 132.304,107.196 132.532,107.642 132.886,107.996 133.332,108.223 133.826,108.301 134.32,108.223 134.766,107.996 135.12,107.642 135.348,107.196 135.426,106.702 135.348,106.207 135.12,105.761 "
         style="fill:none;stroke:#000000;stroke-width:0.05mm"
         id="polygon1426"
         inkscape:label="m3 mounting hole center" />
      <polygon
         points="256.092,105.407 255.646,105.18 255.152,105.102 254.657,105.18 254.211,105.407 253.857,105.761 253.63,106.207 253.552,106.702 253.63,107.196 253.857,107.642 254.211,107.996 254.657,108.223 255.152,108.301 255.646,108.223 256.092,107.996 256.446,107.642 256.673,107.196 256.751,106.702 256.673,106.207 256.446,105.761 "
         style="fill:none;stroke:#000000;stroke-width:0.05mm"
         id="polygon1428"
         inkscape:label="m3 mounting hole center right" />
      <polygon
         points="255.646,198.223 256.092,197.996 256.446,197.642 256.673,197.196 256.751,196.702 256.673,196.207 256.446,195.761 256.092,195.407 255.646,195.18 255.152,195.102 254.657,195.18 254.211,195.407 253.857,195.761 253.63,196.207 253.552,196.702 253.63,197.196 253.857,197.642 254.211,197.996 254.657,198.223 255.152,198.302 "
         style="fill:none;stroke:#000000;stroke-width:0.05mm"
         id="polygon1174"
         inkscape:label="m3 mounting hole bottom right" />
      <polygon
         points="134.32,198.223 134.766,197.996 135.12,197.642 135.348,197.196 135.426,196.702 135.348,196.207 135.12,195.761 134.766,195.407 134.32,195.18 133.826,195.102 133.332,195.18 132.886,195.407 132.532,195.761 132.304,196.207 132.226,196.702 132.304,197.196 132.532,197.642 132.886,197.996 133.332,198.223 133.826,198.302 "
         style="fill:none;stroke:#000000;stroke-width:0.05mm"
         id="polygon1172"
         inkscape:label="m3 mounting bottom center" />
      <polygon
         points="12.995,198.223 13.441,197.996 13.795,197.642 14.022,197.196 14.101,196.702 14.022,196.207 13.795,195.761 13.441,195.407 12.995,195.18 12.501,195.102 12.006,195.18 11.56,195.407 11.206,195.761 10.979,196.207 10.901,196.702 10.979,197.196 11.206,197.642 11.56,197.996 12.006,198.223 12.501,198.302 "
         style="fill:none;stroke:#000000;stroke-width:0.05mm"
         id="polygon1170"
         inkscape:label="m3 mounting hole bottom left" />
    </g>
    <polygon
       points="15.365,5.735 16.499,5.415 17.654,5.185 18.824,5.047 20.001,5 247.652,5.001 248.828,5.047 249.998,5.185 251.153,5.415 252.287,5.735 253.392,6.142 254.461,6.635 255.489,7.211 256.467,7.865 257.393,8.594 258.258,9.394 259.058,10.259 259.787,11.184 260.441,12.163 261.017,13.191 261.51,14.26 261.917,15.365 262.237,16.499 262.467,17.654 262.605,18.824 262.652,20.001 262.652,189.202 262.605,190.378 262.467,191.548 262.237,192.703 261.917,193.837 261.51,194.942 261.017,196.011 260.441,197.039 259.787,198.018 259.058,198.943 258.258,199.808 257.393,200.608 256.467,201.337 255.489,201.991 254.461,202.567 253.392,203.06 252.287,203.467 251.153,203.787 249.998,204.017 248.828,204.155 247.652,204.202 20.001,204.202 18.824,204.155 17.654,204.017 16.499,203.787 15.365,203.467 14.26,203.06 13.191,202.567 12.163,201.991 11.184,201.337 10.259,200.608 9.394,199.808 8.594,198.943 7.865,198.018 7.211,197.039 6.635,196.011 6.142,194.942 5.735,193.837 5.415,192.703 5.185,191.548 5.047,190.378 5,189.201 5.001,20.001 5.047,18.824 5.185,17.654 5.415,16.499 5.735,15.365 6.142,14.26 6.635,13.191 7.211,12.163 7.865,11.184 8.594,10.259 9.394,9.394 10.259,8.594 11.184,7.865 12.163,7.211 13.191,6.635 14.26,6.142 "
       style="fill:none;stroke:#000000;stroke-width:0.05mm"
       id="polygon1168"
       inkscape:label="plate edge" />
  </g>
</svg>
