  0
SECTION
  2
HEADER
  9
$ACADVER
  1
AC1009
  9
$FILLMODE
 70
 0
  9
$SPLFRAME
 70
 1
  9
$EXTMIN
 10
0
 20
0
 30
0.0
  9
$EXTMAX
 10
1058.33
 20
1058.33
 30
0.0
  0
ENDSEC
  0
SECTION
  2
TABLES
  0
TABLE
  2
LAYER
 70
1
  0
LAYER
  2
0
 70
     0
 62
     7
  6
CONTINUOUS
  0
ENDTAB
  0
ENDSEC
  0
SECTION
  2
ENTITIES
  0
LINE
  8
0
 62
     0
 10
242.747
 20
109.619
 30
0.0
 11
243.923
 21
109.572
 31
0.0
  0
LINE
  8
0
 62
     0
 10
243.923
 20
109.572
 30
0.0
 11
245.092
 21
109.434
 31
0.0
  0
LINE
  8
0
 62
     0
 10
245.092
 20
109.434
 30
0.0
 11
246.247
 21
109.204
 31
0.0
  0
LINE
  8
0
 62
     0
 10
246.247
 20
109.204
 30
0.0
 11
247.381
 21
108.884
 31
0.0
  0
LINE
  8
0
 62
     0
 10
247.381
 20
108.884
 30
0.0
 11
248.486
 21
108.478
 31
0.0
  0
LINE
  8
0
 62
     0
 10
248.486
 20
108.478
 30
0.0
 11
249.556
 21
107.985
 31
0.0
  0
LINE
  8
0
 62
     0
 10
249.556
 20
107.985
 30
0.0
 11
250.584
 21
107.408
 31
0.0
  0
LINE
  8
0
 62
     0
 10
250.584
 20
107.408
 30
0.0
 11
251.561
 21
106.754
 31
0.0
  0
LINE
  8
0
 62
     0
 10
251.561
 20
106.754
 30
0.0
 11
252.487
 21
106.025
 31
0.0
  0
LINE
  8
0
 62
     0
 10
252.487
 20
106.025
 30
0.0
 11
253.352
 21
105.226
 31
0.0
  0
LINE
  8
0
 62
     0
 10
253.352
 20
105.226
 30
0.0
 11
254.153
 21
104.36
 31
0.0
  0
LINE
  8
0
 62
     0
 10
254.153
 20
104.36
 30
0.0
 11
254.882
 21
103.436
 31
0.0
  0
LINE
  8
0
 62
     0
 10
254.882
 20
103.436
 30
0.0
 11
255.535
 21
102.456
 31
0.0
  0
LINE
  8
0
 62
     0
 10
255.535
 20
102.456
 30
0.0
 11
256.111
 21
101.428
 31
0.0
  0
LINE
  8
0
 62
     0
 10
256.111
 20
101.428
 30
0.0
 11
256.605
 21
100.36
 31
0.0
  0
LINE
  8
0
 62
     0
 10
256.605
 20
100.36
 30
0.0
 11
257.011
 21
99.2547
 31
0.0
  0
LINE
  8
0
 62
     0
 10
257.011
 20
99.2547
 30
0.0
 11
257.332
 21
98.1206
 31
0.0
  0
LINE
  8
0
 62
     0
 10
257.332
 20
98.1206
 30
0.0
 11
257.561
 21
96.9656
 31
0.0
  0
LINE
  8
0
 62
     0
 10
257.561
 20
96.9656
 30
0.0
 11
257.7
 21
95.7957
 31
0.0
  0
LINE
  8
0
 62
     0
 10
257.7
 20
95.7957
 30
0.0
 11
257.747
 21
94.6189
 31
0.0
  0
LINE
  8
0
 62
     0
 10
257.747
 20
94.6189
 30
0.0
 11
257.747
 21
15.4175
 31
0.0
  0
LINE
  8
0
 62
     0
 10
257.747
 20
15.4175
 30
0.0
 11
257.7
 21
14.242
 31
0.0
  0
LINE
  8
0
 62
     0
 10
257.7
 20
14.242
 30
0.0
 11
257.561
 21
13.0721
 31
0.0
  0
LINE
  8
0
 62
     0
 10
257.561
 20
13.0721
 30
0.0
 11
257.332
 21
11.9159
 31
0.0
  0
LINE
  8
0
 62
     0
 10
257.332
 20
11.9159
 30
0.0
 11
257.011
 21
10.7818
 31
0.0
  0
LINE
  8
0
 62
     0
 10
257.011
 20
10.7818
 30
0.0
 11
256.605
 21
9.67796
 31
0.0
  0
LINE
  8
0
 62
     0
 10
256.605
 20
9.67796
 30
0.0
 11
256.111
 21
8.60859
 31
0.0
  0
LINE
  8
0
 62
     0
 10
256.111
 20
8.60859
 30
0.0
 11
255.535
 21
7.58059
 31
0.0
  0
LINE
  8
0
 62
     0
 10
255.535
 20
7.58059
 30
0.0
 11
254.882
 21
6.60079
 31
0.0
  0
LINE
  8
0
 62
     0
 10
254.882
 20
6.60079
 30
0.0
 11
254.153
 21
5.67612
 31
0.0
  0
LINE
  8
0
 62
     0
 10
254.153
 20
5.67612
 30
0.0
 11
253.352
 21
4.81072
 31
0.0
  0
LINE
  8
0
 62
     0
 10
253.352
 20
4.81072
 30
0.0
 11
252.487
 21
4.01147
 31
0.0
  0
LINE
  8
0
 62
     0
 10
252.487
 20
4.01147
 30
0.0
 11
251.561
 21
3.28249
 31
0.0
  0
LINE
  8
0
 62
     0
 10
251.561
 20
3.28249
 30
0.0
 11
250.584
 21
2.62792
 31
0.0
  0
LINE
  8
0
 62
     0
 10
250.584
 20
2.62792
 30
0.0
 11
249.556
 21
2.0519
 31
0.0
  0
LINE
  8
0
 62
     0
 10
249.556
 20
2.0519
 30
0.0
 11
248.486
 21
1.55994
 31
0.0
  0
LINE
  8
0
 62
     0
 10
248.486
 20
1.55994
 30
0.0
 11
247.381
 21
1.15204
 31
0.0
  0
LINE
  8
0
 62
     0
 10
247.381
 20
1.15204
 30
0.0
 11
246.247
 21
0.832337
 31
0.0
  0
LINE
  8
0
 62
     0
 10
246.247
 20
0.832337
 30
0.0
 11
245.092
 21
0.602202
 31
0.0
  0
LINE
  8
0
 62
     0
 10
245.092
 20
0.602202
 30
0.0
 11
243.923
 21
0.4644
 31
0.0
  0
LINE
  8
0
 62
     0
 10
243.923
 20
0.4644
 30
0.0
 11
242.747
 21
0.417544
 31
0.0
  0
LINE
  8
0
 62
     0
 10
242.747
 20
0.417544
 30
0.0
 11
15.095
 21
0.417544
 31
0.0
  0
LINE
  8
0
 62
     0
 10
15.095
 20
0.417544
 30
0.0
 11
13.9182
 21
0.4644
 31
0.0
  0
LINE
  8
0
 62
     0
 10
13.9182
 20
0.4644
 30
0.0
 11
12.7482
 21
0.602202
 31
0.0
  0
LINE
  8
0
 62
     0
 10
12.7482
 20
0.602202
 30
0.0
 11
11.5934
 21
0.832337
 31
0.0
  0
LINE
  8
0
 62
     0
 10
11.5934
 20
0.832337
 30
0.0
 11
10.4593
 21
1.15204
 31
0.0
  0
LINE
  8
0
 62
     0
 10
10.4593
 20
1.15204
 30
0.0
 11
9.35411
 21
1.55994
 31
0.0
  0
LINE
  8
0
 62
     0
 10
9.35411
 20
1.55994
 30
0.0
 11
8.28615
 21
2.0519
 31
0.0
  0
LINE
  8
0
 62
     0
 10
8.28615
 20
2.0519
 30
0.0
 11
7.25812
 21
2.62792
 31
0.0
  0
LINE
  8
0
 62
     0
 10
7.25812
 20
2.62792
 30
0.0
 11
6.27835
 21
3.28249
 31
0.0
  0
LINE
  8
0
 62
     0
 10
6.27835
 20
3.28249
 30
0.0
 11
5.35369
 21
4.01147
 31
0.0
  0
LINE
  8
0
 62
     0
 10
5.35369
 20
4.01147
 30
0.0
 11
4.48829
 21
4.81072
 31
0.0
  0
LINE
  8
0
 62
     0
 10
4.48829
 20
4.81072
 30
0.0
 11
3.689
 21
5.67612
 31
0.0
  0
LINE
  8
0
 62
     0
 10
3.689
 20
5.67612
 30
0.0
 11
2.96003
 21
6.60079
 31
0.0
  0
LINE
  8
0
 62
     0
 10
2.96003
 20
6.60079
 30
0.0
 11
2.30546
 21
7.58059
 31
0.0
  0
LINE
  8
0
 62
     0
 10
2.30546
 20
7.58059
 30
0.0
 11
1.72944
 21
8.60859
 31
0.0
  0
LINE
  8
0
 62
     0
 10
1.72944
 20
8.60859
 30
0.0
 11
1.2361
 21
9.67796
 31
0.0
  0
LINE
  8
0
 62
     0
 10
1.2361
 20
9.67796
 30
0.0
 11
0.829578
 21
10.7818
 31
0.0
  0
LINE
  8
0
 62
     0
 10
0.829578
 20
10.7818
 30
0.0
 11
0.509873
 21
11.9159
 31
0.0
  0
LINE
  8
0
 62
     0
 10
0.509873
 20
11.9159
 30
0.0
 11
0.279742
 21
13.0721
 31
0.0
  0
LINE
  8
0
 62
     0
 10
0.279742
 20
13.0721
 30
0.0
 11
0.141938
 21
14.242
 31
0.0
  0
LINE
  8
0
 62
     0
 10
0.141938
 20
14.242
 30
0.0
 11
0.0950846
 21
15.4189
 31
0.0
  0
LINE
  8
0
 62
     0
 10
0.0950846
 20
15.4189
 30
0.0
 11
0.0950846
 21
94.6189
 31
0.0
  0
LINE
  8
0
 62
     0
 10
0.0950846
 20
94.6189
 30
0.0
 11
0.141938
 21
95.7957
 31
0.0
  0
LINE
  8
0
 62
     0
 10
0.141938
 20
95.7957
 30
0.0
 11
0.279742
 21
96.9656
 31
0.0
  0
LINE
  8
0
 62
     0
 10
0.279742
 20
96.9656
 30
0.0
 11
0.509873
 21
98.1206
 31
0.0
  0
LINE
  8
0
 62
     0
 10
0.509873
 20
98.1206
 30
0.0
 11
0.829578
 21
99.2547
 31
0.0
  0
LINE
  8
0
 62
     0
 10
0.829578
 20
99.2547
 30
0.0
 11
1.2361
 21
100.36
 31
0.0
  0
LINE
  8
0
 62
     0
 10
1.2361
 20
100.36
 30
0.0
 11
1.72944
 21
101.428
 31
0.0
  0
LINE
  8
0
 62
     0
 10
1.72944
 20
101.428
 30
0.0
 11
2.30546
 21
102.456
 31
0.0
  0
LINE
  8
0
 62
     0
 10
2.30546
 20
102.456
 30
0.0
 11
2.96003
 21
103.436
 31
0.0
  0
LINE
  8
0
 62
     0
 10
2.96003
 20
103.436
 30
0.0
 11
3.689
 21
104.36
 31
0.0
  0
LINE
  8
0
 62
     0
 10
3.689
 20
104.36
 30
0.0
 11
4.48829
 21
105.226
 31
0.0
  0
LINE
  8
0
 62
     0
 10
4.48829
 20
105.226
 30
0.0
 11
5.35369
 21
106.025
 31
0.0
  0
LINE
  8
0
 62
     0
 10
5.35369
 20
106.025
 30
0.0
 11
6.27835
 21
106.754
 31
0.0
  0
LINE
  8
0
 62
     0
 10
6.27835
 20
106.754
 30
0.0
 11
7.25812
 21
107.408
 31
0.0
  0
LINE
  8
0
 62
     0
 10
7.25812
 20
107.408
 30
0.0
 11
8.28615
 21
107.985
 31
0.0
  0
LINE
  8
0
 62
     0
 10
8.28615
 20
107.985
 30
0.0
 11
9.35411
 21
108.478
 31
0.0
  0
LINE
  8
0
 62
     0
 10
9.35411
 20
108.478
 30
0.0
 11
10.4593
 21
108.884
 31
0.0
  0
LINE
  8
0
 62
     0
 10
10.4593
 20
108.884
 30
0.0
 11
11.5934
 21
109.204
 31
0.0
  0
LINE
  8
0
 62
     0
 10
11.5934
 20
109.204
 30
0.0
 11
12.7482
 21
109.434
 31
0.0
  0
LINE
  8
0
 62
     0
 10
12.7482
 20
109.434
 30
0.0
 11
13.9182
 21
109.572
 31
0.0
  0
LINE
  8
0
 62
     0
 10
13.9182
 20
109.572
 30
0.0
 11
15.095
 21
109.619
 31
0.0
  0
LINE
  8
0
 62
     0
 10
15.095
 20
109.619
 30
0.0
 11
242.747
 21
109.619
 31
0.0
  0
LINE
  8
0
 62
     0
 10
7.10103
 20
9.43956
 30
0.0
 11
6.65455
 21
9.21219
 31
0.0
  0
LINE
  8
0
 62
     0
 10
6.65455
 20
9.21219
 30
0.0
 11
6.3004
 21
8.85804
 31
0.0
  0
LINE
  8
0
 62
     0
 10
6.3004
 20
8.85804
 30
0.0
 11
6.073
 21
8.41294
 31
0.0
  0
LINE
  8
0
 62
     0
 10
6.073
 20
8.41294
 30
0.0
 11
5.99585
 21
7.91683
 31
0.0
  0
LINE
  8
0
 62
     0
 10
5.99585
 20
7.91683
 30
0.0
 11
6.073
 21
7.4235
 31
0.0
  0
LINE
  8
0
 62
     0
 10
6.073
 20
7.4235
 30
0.0
 11
6.3004
 21
6.97699
 31
0.0
  0
LINE
  8
0
 62
     0
 10
6.3004
 20
6.97699
 30
0.0
 11
6.65455
 21
6.62284
 31
0.0
  0
LINE
  8
0
 62
     0
 10
6.65455
 20
6.62284
 30
0.0
 11
7.10103
 21
6.39685
 31
0.0
  0
LINE
  8
0
 62
     0
 10
7.10103
 20
6.39685
 30
0.0
 11
7.59576
 21
6.31832
 31
0.0
  0
LINE
  8
0
 62
     0
 10
7.59576
 20
6.31832
 30
0.0
 11
8.08909
 21
6.39685
 31
0.0
  0
LINE
  8
0
 62
     0
 10
8.08909
 20
6.39685
 30
0.0
 11
8.53556
 21
6.62284
 31
0.0
  0
LINE
  8
0
 62
     0
 10
8.53556
 20
6.62284
 30
0.0
 11
8.88972
 21
6.97699
 31
0.0
  0
LINE
  8
0
 62
     0
 10
8.88972
 20
6.97699
 30
0.0
 11
9.11712
 21
7.4235
 31
0.0
  0
LINE
  8
0
 62
     0
 10
9.11712
 20
7.4235
 30
0.0
 11
9.19565
 21
7.91683
 31
0.0
  0
LINE
  8
0
 62
     0
 10
9.19565
 20
7.91683
 30
0.0
 11
9.11712
 21
8.41294
 31
0.0
  0
LINE
  8
0
 62
     0
 10
9.11712
 20
8.41294
 30
0.0
 11
8.88972
 21
8.85804
 31
0.0
  0
LINE
  8
0
 62
     0
 10
8.88972
 20
8.85804
 30
0.0
 11
8.53556
 21
9.21219
 31
0.0
  0
LINE
  8
0
 62
     0
 10
8.53556
 20
9.21219
 30
0.0
 11
8.08909
 21
9.43956
 31
0.0
  0
LINE
  8
0
 62
     0
 10
8.08909
 20
9.43956
 30
0.0
 11
7.59576
 21
9.51675
 31
0.0
  0
LINE
  8
0
 62
     0
 10
7.59576
 20
9.51675
 30
0.0
 11
7.10103
 21
9.43956
 31
0.0
  0
LINE
  8
0
 62
     0
 10
128.426
 20
9.43956
 30
0.0
 11
127.981
 21
9.21219
 31
0.0
  0
LINE
  8
0
 62
     0
 10
127.981
 20
9.21219
 30
0.0
 11
127.627
 21
8.85804
 31
0.0
  0
LINE
  8
0
 62
     0
 10
127.627
 20
8.85804
 30
0.0
 11
127.398
 21
8.41294
 31
0.0
  0
LINE
  8
0
 62
     0
 10
127.398
 20
8.41294
 30
0.0
 11
127.321
 21
7.91683
 31
0.0
  0
LINE
  8
0
 62
     0
 10
127.321
 20
7.91683
 30
0.0
 11
127.398
 21
7.4235
 31
0.0
  0
LINE
  8
0
 62
     0
 10
127.398
 20
7.4235
 30
0.0
 11
127.627
 21
6.97699
 31
0.0
  0
LINE
  8
0
 62
     0
 10
127.627
 20
6.97699
 30
0.0
 11
127.981
 21
6.62284
 31
0.0
  0
LINE
  8
0
 62
     0
 10
127.981
 20
6.62284
 30
0.0
 11
128.426
 21
6.39685
 31
0.0
  0
LINE
  8
0
 62
     0
 10
128.426
 20
6.39685
 30
0.0
 11
128.921
 21
6.31832
 31
0.0
  0
LINE
  8
0
 62
     0
 10
128.921
 20
6.31832
 30
0.0
 11
129.414
 21
6.39685
 31
0.0
  0
LINE
  8
0
 62
     0
 10
129.414
 20
6.39685
 30
0.0
 11
129.861
 21
6.62284
 31
0.0
  0
LINE
  8
0
 62
     0
 10
129.861
 20
6.62284
 30
0.0
 11
130.215
 21
6.97699
 31
0.0
  0
LINE
  8
0
 62
     0
 10
130.215
 20
6.97699
 30
0.0
 11
130.442
 21
7.4235
 31
0.0
  0
LINE
  8
0
 62
     0
 10
130.442
 20
7.4235
 30
0.0
 11
130.521
 21
7.91683
 31
0.0
  0
LINE
  8
0
 62
     0
 10
130.521
 20
7.91683
 30
0.0
 11
130.442
 21
8.41294
 31
0.0
  0
LINE
  8
0
 62
     0
 10
130.442
 20
8.41294
 30
0.0
 11
130.215
 21
8.85804
 31
0.0
  0
LINE
  8
0
 62
     0
 10
130.215
 20
8.85804
 30
0.0
 11
129.861
 21
9.21219
 31
0.0
  0
LINE
  8
0
 62
     0
 10
129.861
 20
9.21219
 30
0.0
 11
129.414
 21
9.43956
 31
0.0
  0
LINE
  8
0
 62
     0
 10
129.414
 20
9.43956
 30
0.0
 11
128.921
 21
9.51675
 31
0.0
  0
LINE
  8
0
 62
     0
 10
128.921
 20
9.51675
 30
0.0
 11
128.426
 21
9.43956
 31
0.0
  0
LINE
  8
0
 62
     0
 10
249.751
 20
9.43956
 30
0.0
 11
249.305
 21
9.21219
 31
0.0
  0
LINE
  8
0
 62
     0
 10
249.305
 20
9.21219
 30
0.0
 11
248.951
 21
8.85804
 31
0.0
  0
LINE
  8
0
 62
     0
 10
248.951
 20
8.85804
 30
0.0
 11
248.725
 21
8.41294
 31
0.0
  0
LINE
  8
0
 62
     0
 10
248.725
 20
8.41294
 30
0.0
 11
248.646
 21
7.91683
 31
0.0
  0
LINE
  8
0
 62
     0
 10
248.646
 20
7.91683
 30
0.0
 11
248.725
 21
7.4235
 31
0.0
  0
LINE
  8
0
 62
     0
 10
248.725
 20
7.4235
 30
0.0
 11
248.951
 21
6.97699
 31
0.0
  0
LINE
  8
0
 62
     0
 10
248.951
 20
6.97699
 30
0.0
 11
249.305
 21
6.62284
 31
0.0
  0
LINE
  8
0
 62
     0
 10
249.305
 20
6.62284
 30
0.0
 11
249.751
 21
6.39685
 31
0.0
  0
LINE
  8
0
 62
     0
 10
249.751
 20
6.39685
 30
0.0
 11
250.246
 21
6.31832
 31
0.0
  0
LINE
  8
0
 62
     0
 10
250.246
 20
6.31832
 30
0.0
 11
250.741
 21
6.39685
 31
0.0
  0
LINE
  8
0
 62
     0
 10
250.741
 20
6.39685
 30
0.0
 11
251.186
 21
6.62284
 31
0.0
  0
LINE
  8
0
 62
     0
 10
251.186
 20
6.62284
 30
0.0
 11
251.54
 21
6.97699
 31
0.0
  0
LINE
  8
0
 62
     0
 10
251.54
 20
6.97699
 30
0.0
 11
251.768
 21
7.4235
 31
0.0
  0
LINE
  8
0
 62
     0
 10
251.768
 20
7.4235
 30
0.0
 11
251.846
 21
7.91683
 31
0.0
  0
LINE
  8
0
 62
     0
 10
251.846
 20
7.91683
 30
0.0
 11
251.768
 21
8.41294
 31
0.0
  0
LINE
  8
0
 62
     0
 10
251.768
 20
8.41294
 30
0.0
 11
251.54
 21
8.85804
 31
0.0
  0
LINE
  8
0
 62
     0
 10
251.54
 20
8.85804
 30
0.0
 11
251.186
 21
9.21219
 31
0.0
  0
LINE
  8
0
 62
     0
 10
251.186
 20
9.21219
 30
0.0
 11
250.741
 21
9.43956
 31
0.0
  0
LINE
  8
0
 62
     0
 10
250.741
 20
9.43956
 30
0.0
 11
250.246
 21
9.51675
 31
0.0
  0
LINE
  8
0
 62
     0
 10
250.246
 20
9.51675
 30
0.0
 11
249.751
 21
9.43956
 31
0.0
  0
LINE
  8
0
 62
     0
 10
102.871
 20
31.9429
 30
0.0
 11
102.871
 21
31.3449
 31
0.0
  0
LINE
  8
0
 62
     0
 10
102.871
 20
31.3449
 30
0.0
 11
102.07
 21
31.3449
 31
0.0
  0
LINE
  8
0
 62
     0
 10
102.07
 20
31.3449
 30
0.0
 11
102.07
 21
27.2438
 31
0.0
  0
LINE
  8
0
 62
     0
 10
102.07
 20
27.2438
 30
0.0
 11
94.1959
 21
27.2438
 31
0.0
  0
LINE
  8
0
 62
     0
 10
94.1959
 20
27.2438
 30
0.0
 11
94.1959
 21
30.4739
 31
0.0
  0
LINE
  8
0
 62
     0
 10
94.1959
 20
30.4739
 30
0.0
 11
92.4705
 21
30.4739
 31
0.0
  0
LINE
  8
0
 62
     0
 10
92.4705
 20
30.4739
 30
0.0
 11
92.4705
 21
31.3931
 31
0.0
  0
LINE
  8
0
 62
     0
 10
92.4705
 20
31.3931
 30
0.0
 11
89.1702
 21
31.3931
 31
0.0
  0
LINE
  8
0
 62
     0
 10
89.1702
 20
31.3931
 30
0.0
 11
89.1702
 21
30.4739
 31
0.0
  0
LINE
  8
0
 62
     0
 10
89.1702
 20
30.4739
 30
0.0
 11
87.4462
 21
30.4739
 31
0.0
  0
LINE
  8
0
 62
     0
 10
87.4462
 20
30.4739
 30
0.0
 11
87.4462
 21
27.2438
 31
0.0
  0
LINE
  8
0
 62
     0
 10
87.4462
 20
27.2438
 30
0.0
 11
86.6207
 21
27.2438
 31
0.0
  0
LINE
  8
0
 62
     0
 10
86.6207
 20
27.2438
 30
0.0
 11
86.6207
 21
24.4437
 31
0.0
  0
LINE
  8
0
 62
     0
 10
86.6207
 20
24.4437
 30
0.0
 11
87.4462
 21
24.4437
 31
0.0
  0
LINE
  8
0
 62
     0
 10
87.4462
 20
24.4437
 30
0.0
 11
87.4462
 21
18.1736
 31
0.0
  0
LINE
  8
0
 62
     0
 10
87.4462
 20
18.1736
 30
0.0
 11
89.1702
 21
18.1736
 31
0.0
  0
LINE
  8
0
 62
     0
 10
89.1702
 20
18.1736
 30
0.0
 11
89.1702
 21
17.1938
 31
0.0
  0
LINE
  8
0
 62
     0
 10
89.1702
 20
17.1938
 30
0.0
 11
92.4705
 21
17.1938
 31
0.0
  0
LINE
  8
0
 62
     0
 10
92.4705
 20
17.1938
 30
0.0
 11
92.4705
 21
18.1736
 31
0.0
  0
LINE
  8
0
 62
     0
 10
92.4705
 20
18.1736
 30
0.0
 11
94.1959
 21
18.1736
 31
0.0
  0
LINE
  8
0
 62
     0
 10
94.1959
 20
18.1736
 30
0.0
 11
94.1959
 21
22.6439
 31
0.0
  0
LINE
  8
0
 62
     0
 10
94.1959
 20
22.6439
 30
0.0
 11
102.07
 21
22.6439
 31
0.0
  0
LINE
  8
0
 62
     0
 10
102.07
 20
22.6439
 30
0.0
 11
102.07
 21
18.5429
 31
0.0
  0
LINE
  8
0
 62
     0
 10
102.07
 20
18.5429
 30
0.0
 11
102.871
 21
18.5429
 31
0.0
  0
LINE
  8
0
 62
     0
 10
102.871
 20
18.5429
 30
0.0
 11
102.871
 21
17.9434
 31
0.0
  0
LINE
  8
0
 62
     0
 10
102.871
 20
17.9434
 30
0.0
 11
116.87
 21
17.9434
 31
0.0
  0
LINE
  8
0
 62
     0
 10
116.87
 20
17.9434
 30
0.0
 11
116.87
 21
18.5429
 31
0.0
  0
LINE
  8
0
 62
     0
 10
116.87
 20
18.5429
 30
0.0
 11
117.671
 21
18.5429
 31
0.0
  0
LINE
  8
0
 62
     0
 10
117.671
 20
18.5429
 30
0.0
 11
117.671
 21
22.6439
 31
0.0
  0
LINE
  8
0
 62
     0
 10
117.671
 20
22.6439
 30
0.0
 11
125.545
 21
22.6439
 31
0.0
  0
LINE
  8
0
 62
     0
 10
125.545
 20
22.6439
 30
0.0
 11
125.545
 21
18.1736
 31
0.0
  0
LINE
  8
0
 62
     0
 10
125.545
 20
18.1736
 30
0.0
 11
127.27
 21
18.1736
 31
0.0
  0
LINE
  8
0
 62
     0
 10
127.27
 20
18.1736
 30
0.0
 11
127.27
 21
17.1938
 31
0.0
  0
LINE
  8
0
 62
     0
 10
127.27
 20
17.1938
 30
0.0
 11
130.57
 21
17.1938
 31
0.0
  0
LINE
  8
0
 62
     0
 10
130.57
 20
17.1938
 30
0.0
 11
130.57
 21
18.1736
 31
0.0
  0
LINE
  8
0
 62
     0
 10
130.57
 20
18.1736
 30
0.0
 11
132.296
 21
18.1736
 31
0.0
  0
LINE
  8
0
 62
     0
 10
132.296
 20
18.1736
 30
0.0
 11
132.296
 21
24.4437
 31
0.0
  0
LINE
  8
0
 62
     0
 10
132.296
 20
24.4437
 30
0.0
 11
133.12
 21
24.4437
 31
0.0
  0
LINE
  8
0
 62
     0
 10
133.12
 20
24.4437
 30
0.0
 11
133.12
 21
27.2438
 31
0.0
  0
LINE
  8
0
 62
     0
 10
133.12
 20
27.2438
 30
0.0
 11
132.296
 21
27.2438
 31
0.0
  0
LINE
  8
0
 62
     0
 10
132.296
 20
27.2438
 30
0.0
 11
132.296
 21
30.4739
 31
0.0
  0
LINE
  8
0
 62
     0
 10
132.296
 20
30.4739
 30
0.0
 11
130.57
 21
30.4739
 31
0.0
  0
LINE
  8
0
 62
     0
 10
130.57
 20
30.4739
 30
0.0
 11
130.57
 21
31.3931
 31
0.0
  0
LINE
  8
0
 62
     0
 10
130.57
 20
31.3931
 30
0.0
 11
127.27
 21
31.3931
 31
0.0
  0
LINE
  8
0
 62
     0
 10
127.27
 20
31.3931
 30
0.0
 11
127.27
 21
30.4739
 31
0.0
  0
LINE
  8
0
 62
     0
 10
127.27
 20
30.4739
 30
0.0
 11
125.545
 21
30.4739
 31
0.0
  0
LINE
  8
0
 62
     0
 10
125.545
 20
30.4739
 30
0.0
 11
125.545
 21
27.2438
 31
0.0
  0
LINE
  8
0
 62
     0
 10
125.545
 20
27.2438
 30
0.0
 11
117.671
 21
27.2438
 31
0.0
  0
LINE
  8
0
 62
     0
 10
117.671
 20
27.2438
 30
0.0
 11
117.671
 21
31.3449
 31
0.0
  0
LINE
  8
0
 62
     0
 10
117.671
 20
31.3449
 30
0.0
 11
116.87
 21
31.3449
 31
0.0
  0
LINE
  8
0
 62
     0
 10
116.87
 20
31.3449
 30
0.0
 11
116.87
 21
31.9429
 31
0.0
  0
LINE
  8
0
 62
     0
 10
116.87
 20
31.9429
 30
0.0
 11
102.871
 21
31.9429
 31
0.0
  0
LINE
  8
0
 62
     0
 10
7.61919
 20
31.9429
 30
0.0
 11
7.61919
 21
31.3449
 31
0.0
  0
LINE
  8
0
 62
     0
 10
7.61919
 20
31.3449
 30
0.0
 11
6.8199
 21
31.3449
 31
0.0
  0
LINE
  8
0
 62
     0
 10
6.8199
 20
31.3449
 30
0.0
 11
6.8199
 21
18.5429
 31
0.0
  0
LINE
  8
0
 62
     0
 10
6.8199
 20
18.5429
 30
0.0
 11
7.61919
 21
18.5429
 31
0.0
  0
LINE
  8
0
 62
     0
 10
7.61919
 20
18.5429
 30
0.0
 11
7.61919
 21
17.9434
 31
0.0
  0
LINE
  8
0
 62
     0
 10
7.61919
 20
17.9434
 30
0.0
 11
21.6201
 21
17.9434
 31
0.0
  0
LINE
  8
0
 62
     0
 10
21.6201
 20
17.9434
 30
0.0
 11
21.6201
 21
18.5429
 31
0.0
  0
LINE
  8
0
 62
     0
 10
21.6201
 20
18.5429
 30
0.0
 11
22.4207
 21
18.5429
 31
0.0
  0
LINE
  8
0
 62
     0
 10
22.4207
 20
18.5429
 30
0.0
 11
22.4207
 21
31.3449
 31
0.0
  0
LINE
  8
0
 62
     0
 10
22.4207
 20
31.3449
 30
0.0
 11
21.6201
 21
31.3449
 31
0.0
  0
LINE
  8
0
 62
     0
 10
21.6201
 20
31.3449
 30
0.0
 11
21.6201
 21
31.9429
 31
0.0
  0
LINE
  8
0
 62
     0
 10
21.6201
 20
31.9429
 30
0.0
 11
7.61919
 21
31.9429
 31
0.0
  0
LINE
  8
0
 62
     0
 10
26.6706
 20
31.9429
 30
0.0
 11
26.6706
 21
31.3449
 31
0.0
  0
LINE
  8
0
 62
     0
 10
26.6706
 20
31.3449
 30
0.0
 11
25.8699
 21
31.3449
 31
0.0
  0
LINE
  8
0
 62
     0
 10
25.8699
 20
31.3449
 30
0.0
 11
25.8699
 21
18.5429
 31
0.0
  0
LINE
  8
0
 62
     0
 10
25.8699
 20
18.5429
 30
0.0
 11
26.6706
 21
18.5429
 31
0.0
  0
LINE
  8
0
 62
     0
 10
26.6706
 20
18.5429
 30
0.0
 11
26.6706
 21
17.9434
 31
0.0
  0
LINE
  8
0
 62
     0
 10
26.6706
 20
17.9434
 30
0.0
 11
40.67
 21
17.9434
 31
0.0
  0
LINE
  8
0
 62
     0
 10
40.67
 20
17.9434
 30
0.0
 11
40.67
 21
18.5429
 31
0.0
  0
LINE
  8
0
 62
     0
 10
40.67
 20
18.5429
 30
0.0
 11
41.4708
 21
18.5429
 31
0.0
  0
LINE
  8
0
 62
     0
 10
41.4708
 20
18.5429
 30
0.0
 11
41.4708
 21
31.3449
 31
0.0
  0
LINE
  8
0
 62
     0
 10
41.4708
 20
31.3449
 30
0.0
 11
40.67
 21
31.3449
 31
0.0
  0
LINE
  8
0
 62
     0
 10
40.67
 20
31.3449
 30
0.0
 11
40.67
 21
31.9429
 31
0.0
  0
LINE
  8
0
 62
     0
 10
40.67
 20
31.9429
 30
0.0
 11
26.6706
 21
31.9429
 31
0.0
  0
LINE
  8
0
 62
     0
 10
45.7207
 20
31.9429
 30
0.0
 11
45.7207
 21
31.3449
 31
0.0
  0
LINE
  8
0
 62
     0
 10
45.7207
 20
31.3449
 30
0.0
 11
44.9199
 21
31.3449
 31
0.0
  0
LINE
  8
0
 62
     0
 10
44.9199
 20
31.3449
 30
0.0
 11
44.9199
 21
18.5429
 31
0.0
  0
LINE
  8
0
 62
     0
 10
44.9199
 20
18.5429
 30
0.0
 11
45.7207
 21
18.5429
 31
0.0
  0
LINE
  8
0
 62
     0
 10
45.7207
 20
18.5429
 30
0.0
 11
45.7207
 21
17.9434
 31
0.0
  0
LINE
  8
0
 62
     0
 10
45.7207
 20
17.9434
 30
0.0
 11
59.72
 21
17.9434
 31
0.0
  0
LINE
  8
0
 62
     0
 10
59.72
 20
17.9434
 30
0.0
 11
59.72
 21
18.5429
 31
0.0
  0
LINE
  8
0
 62
     0
 10
59.72
 20
18.5429
 30
0.0
 11
60.5208
 21
18.5429
 31
0.0
  0
LINE
  8
0
 62
     0
 10
60.5208
 20
18.5429
 30
0.0
 11
60.5208
 21
31.3449
 31
0.0
  0
LINE
  8
0
 62
     0
 10
60.5208
 20
31.3449
 30
0.0
 11
59.72
 21
31.3449
 31
0.0
  0
LINE
  8
0
 62
     0
 10
59.72
 20
31.3449
 30
0.0
 11
59.72
 21
31.9429
 31
0.0
  0
LINE
  8
0
 62
     0
 10
59.72
 20
31.9429
 30
0.0
 11
45.7207
 21
31.9429
 31
0.0
  0
LINE
  8
0
 62
     0
 10
64.7707
 20
31.9429
 30
0.0
 11
64.7707
 21
31.3449
 31
0.0
  0
LINE
  8
0
 62
     0
 10
64.7707
 20
31.3449
 30
0.0
 11
63.9699
 21
31.3449
 31
0.0
  0
LINE
  8
0
 62
     0
 10
63.9699
 20
31.3449
 30
0.0
 11
63.9699
 21
18.5429
 31
0.0
  0
LINE
  8
0
 62
     0
 10
63.9699
 20
18.5429
 30
0.0
 11
64.7707
 21
18.5429
 31
0.0
  0
LINE
  8
0
 62
     0
 10
64.7707
 20
18.5429
 30
0.0
 11
64.7707
 21
17.9434
 31
0.0
  0
LINE
  8
0
 62
     0
 10
64.7707
 20
17.9434
 30
0.0
 11
78.77
 21
17.9434
 31
0.0
  0
LINE
  8
0
 62
     0
 10
78.77
 20
17.9434
 30
0.0
 11
78.77
 21
18.5429
 31
0.0
  0
LINE
  8
0
 62
     0
 10
78.77
 20
18.5429
 30
0.0
 11
79.5708
 21
18.5429
 31
0.0
  0
LINE
  8
0
 62
     0
 10
79.5708
 20
18.5429
 30
0.0
 11
79.5708
 21
31.3449
 31
0.0
  0
LINE
  8
0
 62
     0
 10
79.5708
 20
31.3449
 30
0.0
 11
78.77
 21
31.3449
 31
0.0
  0
LINE
  8
0
 62
     0
 10
78.77
 20
31.3449
 30
0.0
 11
78.77
 21
31.9429
 31
0.0
  0
LINE
  8
0
 62
     0
 10
78.77
 20
31.9429
 30
0.0
 11
64.7707
 21
31.9429
 31
0.0
  0
LINE
  8
0
 62
     0
 10
140.971
 20
31.9429
 30
0.0
 11
140.971
 21
31.3449
 31
0.0
  0
LINE
  8
0
 62
     0
 10
140.971
 20
31.3449
 30
0.0
 11
140.17
 21
31.3449
 31
0.0
  0
LINE
  8
0
 62
     0
 10
140.17
 20
31.3449
 30
0.0
 11
140.17
 21
18.5429
 31
0.0
  0
LINE
  8
0
 62
     0
 10
140.17
 20
18.5429
 30
0.0
 11
140.971
 21
18.5429
 31
0.0
  0
LINE
  8
0
 62
     0
 10
140.971
 20
18.5429
 30
0.0
 11
140.971
 21
17.9434
 31
0.0
  0
LINE
  8
0
 62
     0
 10
140.971
 20
17.9434
 30
0.0
 11
154.97
 21
17.9434
 31
0.0
  0
LINE
  8
0
 62
     0
 10
154.97
 20
17.9434
 30
0.0
 11
154.97
 21
18.5429
 31
0.0
  0
LINE
  8
0
 62
     0
 10
154.97
 20
18.5429
 30
0.0
 11
155.771
 21
18.5429
 31
0.0
  0
LINE
  8
0
 62
     0
 10
155.771
 20
18.5429
 30
0.0
 11
155.771
 21
31.3449
 31
0.0
  0
LINE
  8
0
 62
     0
 10
155.771
 20
31.3449
 30
0.0
 11
154.97
 21
31.3449
 31
0.0
  0
LINE
  8
0
 62
     0
 10
154.97
 20
31.3449
 30
0.0
 11
154.97
 21
31.9429
 31
0.0
  0
LINE
  8
0
 62
     0
 10
154.97
 20
31.9429
 30
0.0
 11
140.971
 21
31.9429
 31
0.0
  0
LINE
  8
0
 62
     0
 10
160.021
 20
31.9429
 30
0.0
 11
160.021
 21
31.3449
 31
0.0
  0
LINE
  8
0
 62
     0
 10
160.021
 20
31.3449
 30
0.0
 11
159.22
 21
31.3449
 31
0.0
  0
LINE
  8
0
 62
     0
 10
159.22
 20
31.3449
 30
0.0
 11
159.22
 21
18.5429
 31
0.0
  0
LINE
  8
0
 62
     0
 10
159.22
 20
18.5429
 30
0.0
 11
160.021
 21
18.5429
 31
0.0
  0
LINE
  8
0
 62
     0
 10
160.021
 20
18.5429
 30
0.0
 11
160.021
 21
17.9434
 31
0.0
  0
LINE
  8
0
 62
     0
 10
160.021
 20
17.9434
 30
0.0
 11
174.02
 21
17.9434
 31
0.0
  0
LINE
  8
0
 62
     0
 10
174.02
 20
17.9434
 30
0.0
 11
174.02
 21
18.5429
 31
0.0
  0
LINE
  8
0
 62
     0
 10
174.02
 20
18.5429
 30
0.0
 11
174.821
 21
18.5429
 31
0.0
  0
LINE
  8
0
 62
     0
 10
174.821
 20
18.5429
 30
0.0
 11
174.821
 21
31.3449
 31
0.0
  0
LINE
  8
0
 62
     0
 10
174.821
 20
31.3449
 30
0.0
 11
174.02
 21
31.3449
 31
0.0
  0
LINE
  8
0
 62
     0
 10
174.02
 20
31.3449
 30
0.0
 11
174.02
 21
31.9429
 31
0.0
  0
LINE
  8
0
 62
     0
 10
174.02
 20
31.9429
 30
0.0
 11
160.021
 21
31.9429
 31
0.0
  0
LINE
  8
0
 62
     0
 10
179.071
 20
31.9429
 30
0.0
 11
179.071
 21
31.3449
 31
0.0
  0
LINE
  8
0
 62
     0
 10
179.071
 20
31.3449
 30
0.0
 11
178.27
 21
31.3449
 31
0.0
  0
LINE
  8
0
 62
     0
 10
178.27
 20
31.3449
 30
0.0
 11
178.27
 21
18.5429
 31
0.0
  0
LINE
  8
0
 62
     0
 10
178.27
 20
18.5429
 30
0.0
 11
179.071
 21
18.5429
 31
0.0
  0
LINE
  8
0
 62
     0
 10
179.071
 20
18.5429
 30
0.0
 11
179.071
 21
17.9434
 31
0.0
  0
LINE
  8
0
 62
     0
 10
179.071
 20
17.9434
 30
0.0
 11
193.07
 21
17.9434
 31
0.0
  0
LINE
  8
0
 62
     0
 10
193.07
 20
17.9434
 30
0.0
 11
193.07
 21
18.5429
 31
0.0
  0
LINE
  8
0
 62
     0
 10
193.07
 20
18.5429
 30
0.0
 11
193.871
 21
18.5429
 31
0.0
  0
LINE
  8
0
 62
     0
 10
193.871
 20
18.5429
 30
0.0
 11
193.871
 21
31.3449
 31
0.0
  0
LINE
  8
0
 62
     0
 10
193.871
 20
31.3449
 30
0.0
 11
193.07
 21
31.3449
 31
0.0
  0
LINE
  8
0
 62
     0
 10
193.07
 20
31.3449
 30
0.0
 11
193.07
 21
31.9429
 31
0.0
  0
LINE
  8
0
 62
     0
 10
193.07
 20
31.9429
 30
0.0
 11
179.071
 21
31.9429
 31
0.0
  0
LINE
  8
0
 62
     0
 10
198.121
 20
31.9429
 30
0.0
 11
198.121
 21
31.3449
 31
0.0
  0
LINE
  8
0
 62
     0
 10
198.121
 20
31.3449
 30
0.0
 11
197.32
 21
31.3449
 31
0.0
  0
LINE
  8
0
 62
     0
 10
197.32
 20
31.3449
 30
0.0
 11
197.32
 21
18.5429
 31
0.0
  0
LINE
  8
0
 62
     0
 10
197.32
 20
18.5429
 30
0.0
 11
198.121
 21
18.5429
 31
0.0
  0
LINE
  8
0
 62
     0
 10
198.121
 20
18.5429
 30
0.0
 11
198.121
 21
17.9434
 31
0.0
  0
LINE
  8
0
 62
     0
 10
198.121
 20
17.9434
 30
0.0
 11
212.12
 21
17.9434
 31
0.0
  0
LINE
  8
0
 62
     0
 10
212.12
 20
17.9434
 30
0.0
 11
212.12
 21
18.5429
 31
0.0
  0
LINE
  8
0
 62
     0
 10
212.12
 20
18.5429
 30
0.0
 11
212.921
 21
18.5429
 31
0.0
  0
LINE
  8
0
 62
     0
 10
212.921
 20
18.5429
 30
0.0
 11
212.921
 21
31.3449
 31
0.0
  0
LINE
  8
0
 62
     0
 10
212.921
 20
31.3449
 30
0.0
 11
212.12
 21
31.3449
 31
0.0
  0
LINE
  8
0
 62
     0
 10
212.12
 20
31.3449
 30
0.0
 11
212.12
 21
31.9429
 31
0.0
  0
LINE
  8
0
 62
     0
 10
212.12
 20
31.9429
 30
0.0
 11
198.121
 21
31.9429
 31
0.0
  0
LINE
  8
0
 62
     0
 10
217.171
 20
31.9429
 30
0.0
 11
217.171
 21
31.3449
 31
0.0
  0
LINE
  8
0
 62
     0
 10
217.171
 20
31.3449
 30
0.0
 11
216.37
 21
31.3449
 31
0.0
  0
LINE
  8
0
 62
     0
 10
216.37
 20
31.3449
 30
0.0
 11
216.37
 21
18.5429
 31
0.0
  0
LINE
  8
0
 62
     0
 10
216.37
 20
18.5429
 30
0.0
 11
217.171
 21
18.5429
 31
0.0
  0
LINE
  8
0
 62
     0
 10
217.171
 20
18.5429
 30
0.0
 11
217.171
 21
17.9434
 31
0.0
  0
LINE
  8
0
 62
     0
 10
217.171
 20
17.9434
 30
0.0
 11
231.17
 21
17.9434
 31
0.0
  0
LINE
  8
0
 62
     0
 10
231.17
 20
17.9434
 30
0.0
 11
231.17
 21
18.5429
 31
0.0
  0
LINE
  8
0
 62
     0
 10
231.17
 20
18.5429
 30
0.0
 11
231.971
 21
18.5429
 31
0.0
  0
LINE
  8
0
 62
     0
 10
231.971
 20
18.5429
 30
0.0
 11
231.971
 21
31.3449
 31
0.0
  0
LINE
  8
0
 62
     0
 10
231.971
 20
31.3449
 30
0.0
 11
231.17
 21
31.3449
 31
0.0
  0
LINE
  8
0
 62
     0
 10
231.17
 20
31.3449
 30
0.0
 11
231.17
 21
31.9429
 31
0.0
  0
LINE
  8
0
 62
     0
 10
231.17
 20
31.9429
 30
0.0
 11
217.171
 21
31.9429
 31
0.0
  0
LINE
  8
0
 62
     0
 10
236.221
 20
31.9429
 30
0.0
 11
236.221
 21
31.3449
 31
0.0
  0
LINE
  8
0
 62
     0
 10
236.221
 20
31.3449
 30
0.0
 11
235.42
 21
31.3449
 31
0.0
  0
LINE
  8
0
 62
     0
 10
235.42
 20
31.3449
 30
0.0
 11
235.42
 21
18.5429
 31
0.0
  0
LINE
  8
0
 62
     0
 10
235.42
 20
18.5429
 30
0.0
 11
236.221
 21
18.5429
 31
0.0
  0
LINE
  8
0
 62
     0
 10
236.221
 20
18.5429
 30
0.0
 11
236.221
 21
17.9434
 31
0.0
  0
LINE
  8
0
 62
     0
 10
236.221
 20
17.9434
 30
0.0
 11
250.22
 21
17.9434
 31
0.0
  0
LINE
  8
0
 62
     0
 10
250.22
 20
17.9434
 30
0.0
 11
250.22
 21
18.5429
 31
0.0
  0
LINE
  8
0
 62
     0
 10
250.22
 20
18.5429
 30
0.0
 11
251.021
 21
18.5429
 31
0.0
  0
LINE
  8
0
 62
     0
 10
251.021
 20
18.5429
 30
0.0
 11
251.021
 21
31.3449
 31
0.0
  0
LINE
  8
0
 62
     0
 10
251.021
 20
31.3449
 30
0.0
 11
250.22
 21
31.3449
 31
0.0
  0
LINE
  8
0
 62
     0
 10
250.22
 20
31.3449
 30
0.0
 11
250.22
 21
31.9429
 31
0.0
  0
LINE
  8
0
 62
     0
 10
250.22
 20
31.9429
 30
0.0
 11
236.221
 21
31.9429
 31
0.0
  0
LINE
  8
0
 62
     0
 10
17.1456
 20
50.993
 30
0.0
 11
17.1456
 21
50.395
 31
0.0
  0
LINE
  8
0
 62
     0
 10
17.1456
 20
50.395
 30
0.0
 11
16.3449
 21
50.395
 31
0.0
  0
LINE
  8
0
 62
     0
 10
16.3449
 20
50.395
 30
0.0
 11
16.3449
 21
46.294
 31
0.0
  0
LINE
  8
0
 62
     0
 10
16.3449
 20
46.294
 30
0.0
 11
15.62
 21
46.294
 31
0.0
  0
LINE
  8
0
 62
     0
 10
15.62
 20
46.294
 30
0.0
 11
15.62
 21
49.524
 31
0.0
  0
LINE
  8
0
 62
     0
 10
15.62
 20
49.524
 30
0.0
 11
13.8961
 21
49.524
 31
0.0
  0
LINE
  8
0
 62
     0
 10
13.8961
 20
49.524
 30
0.0
 11
13.8961
 21
50.443
 31
0.0
  0
LINE
  8
0
 62
     0
 10
13.8961
 20
50.443
 30
0.0
 11
10.5958
 21
50.443
 31
0.0
  0
LINE
  8
0
 62
     0
 10
10.5958
 20
50.443
 30
0.0
 11
10.5958
 21
49.524
 31
0.0
  0
LINE
  8
0
 62
     0
 10
10.5958
 20
49.524
 30
0.0
 11
8.87042
 21
49.524
 31
0.0
  0
LINE
  8
0
 62
     0
 10
8.87042
 20
49.524
 30
0.0
 11
8.87042
 21
46.294
 31
0.0
  0
LINE
  8
0
 62
     0
 10
8.87042
 20
46.294
 30
0.0
 11
8.04499
 21
46.294
 31
0.0
  0
LINE
  8
0
 62
     0
 10
8.04499
 20
46.294
 30
0.0
 11
8.04499
 21
43.4936
 31
0.0
  0
LINE
  8
0
 62
     0
 10
8.04499
 20
43.4936
 30
0.0
 11
8.87042
 21
43.4936
 31
0.0
  0
LINE
  8
0
 62
     0
 10
8.87042
 20
43.4936
 30
0.0
 11
8.87042
 21
37.2237
 31
0.0
  0
LINE
  8
0
 62
     0
 10
8.87042
 20
37.2237
 30
0.0
 11
10.5958
 21
37.2237
 31
0.0
  0
LINE
  8
0
 62
     0
 10
10.5958
 20
37.2237
 30
0.0
 11
10.5958
 21
36.2437
 31
0.0
  0
LINE
  8
0
 62
     0
 10
10.5958
 20
36.2437
 30
0.0
 11
13.8961
 21
36.2437
 31
0.0
  0
LINE
  8
0
 62
     0
 10
13.8961
 20
36.2437
 30
0.0
 11
13.8961
 21
37.2237
 31
0.0
  0
LINE
  8
0
 62
     0
 10
13.8961
 20
37.2237
 30
0.0
 11
15.62
 21
37.2237
 31
0.0
  0
LINE
  8
0
 62
     0
 10
15.62
 20
37.2237
 30
0.0
 11
15.62
 21
41.6941
 31
0.0
  0
LINE
  8
0
 62
     0
 10
15.62
 20
41.6941
 30
0.0
 11
16.3449
 21
41.6941
 31
0.0
  0
LINE
  8
0
 62
     0
 10
16.3449
 20
41.6941
 30
0.0
 11
16.3449
 21
37.5931
 31
0.0
  0
LINE
  8
0
 62
     0
 10
16.3449
 20
37.5931
 30
0.0
 11
17.1456
 21
37.5931
 31
0.0
  0
LINE
  8
0
 62
     0
 10
17.1456
 20
37.5931
 30
0.0
 11
17.1456
 21
36.9933
 31
0.0
  0
LINE
  8
0
 62
     0
 10
17.1456
 20
36.9933
 30
0.0
 11
31.1451
 21
36.9933
 31
0.0
  0
LINE
  8
0
 62
     0
 10
31.1451
 20
36.9933
 30
0.0
 11
31.1451
 21
37.5931
 31
0.0
  0
LINE
  8
0
 62
     0
 10
31.1451
 20
37.5931
 30
0.0
 11
31.9457
 21
37.5931
 31
0.0
  0
LINE
  8
0
 62
     0
 10
31.9457
 20
37.5931
 30
0.0
 11
31.9457
 21
41.6941
 31
0.0
  0
LINE
  8
0
 62
     0
 10
31.9457
 20
41.6941
 30
0.0
 11
32.6705
 21
41.6941
 31
0.0
  0
LINE
  8
0
 62
     0
 10
32.6705
 20
41.6941
 30
0.0
 11
32.6705
 21
37.2237
 31
0.0
  0
LINE
  8
0
 62
     0
 10
32.6705
 20
37.2237
 30
0.0
 11
34.3958
 21
37.2237
 31
0.0
  0
LINE
  8
0
 62
     0
 10
34.3958
 20
37.2237
 30
0.0
 11
34.3958
 21
36.2437
 31
0.0
  0
LINE
  8
0
 62
     0
 10
34.3958
 20
36.2437
 30
0.0
 11
37.695
 21
36.2437
 31
0.0
  0
LINE
  8
0
 62
     0
 10
37.695
 20
36.2437
 30
0.0
 11
37.695
 21
37.2237
 31
0.0
  0
LINE
  8
0
 62
     0
 10
37.695
 20
37.2237
 30
0.0
 11
39.4201
 21
37.2237
 31
0.0
  0
LINE
  8
0
 62
     0
 10
39.4201
 20
37.2237
 30
0.0
 11
39.4201
 21
43.4936
 31
0.0
  0
LINE
  8
0
 62
     0
 10
39.4201
 20
43.4936
 30
0.0
 11
40.2456
 21
43.4936
 31
0.0
  0
LINE
  8
0
 62
     0
 10
40.2456
 20
43.4936
 30
0.0
 11
40.2456
 21
46.294
 31
0.0
  0
LINE
  8
0
 62
     0
 10
40.2456
 20
46.294
 30
0.0
 11
39.4201
 21
46.294
 31
0.0
  0
LINE
  8
0
 62
     0
 10
39.4201
 20
46.294
 30
0.0
 11
39.4201
 21
49.524
 31
0.0
  0
LINE
  8
0
 62
     0
 10
39.4201
 20
49.524
 30
0.0
 11
37.695
 21
49.524
 31
0.0
  0
LINE
  8
0
 62
     0
 10
37.695
 20
49.524
 30
0.0
 11
37.695
 21
50.443
 31
0.0
  0
LINE
  8
0
 62
     0
 10
37.695
 20
50.443
 30
0.0
 11
34.3958
 21
50.443
 31
0.0
  0
LINE
  8
0
 62
     0
 10
34.3958
 20
50.443
 30
0.0
 11
34.3958
 21
49.524
 31
0.0
  0
LINE
  8
0
 62
     0
 10
34.3958
 20
49.524
 30
0.0
 11
32.6705
 21
49.524
 31
0.0
  0
LINE
  8
0
 62
     0
 10
32.6705
 20
49.524
 30
0.0
 11
32.6705
 21
46.294
 31
0.0
  0
LINE
  8
0
 62
     0
 10
32.6705
 20
46.294
 30
0.0
 11
31.9457
 21
46.294
 31
0.0
  0
LINE
  8
0
 62
     0
 10
31.9457
 20
46.294
 30
0.0
 11
31.9457
 21
50.395
 31
0.0
  0
LINE
  8
0
 62
     0
 10
31.9457
 20
50.395
 30
0.0
 11
31.1451
 21
50.395
 31
0.0
  0
LINE
  8
0
 62
     0
 10
31.1451
 20
50.395
 30
0.0
 11
31.1451
 21
50.993
 31
0.0
  0
LINE
  8
0
 62
     0
 10
31.1451
 20
50.993
 30
0.0
 11
17.1456
 21
50.993
 31
0.0
  0
LINE
  8
0
 62
     0
 10
45.7207
 20
50.993
 30
0.0
 11
45.7207
 21
50.395
 31
0.0
  0
LINE
  8
0
 62
     0
 10
45.7207
 20
50.395
 30
0.0
 11
44.9199
 21
50.395
 31
0.0
  0
LINE
  8
0
 62
     0
 10
44.9199
 20
50.395
 30
0.0
 11
44.9199
 21
37.5931
 31
0.0
  0
LINE
  8
0
 62
     0
 10
44.9199
 20
37.5931
 30
0.0
 11
45.7207
 21
37.5931
 31
0.0
  0
LINE
  8
0
 62
     0
 10
45.7207
 20
37.5931
 30
0.0
 11
45.7207
 21
36.9933
 31
0.0
  0
LINE
  8
0
 62
     0
 10
45.7207
 20
36.9933
 30
0.0
 11
59.72
 21
36.9933
 31
0.0
  0
LINE
  8
0
 62
     0
 10
59.72
 20
36.9933
 30
0.0
 11
59.72
 21
37.5931
 31
0.0
  0
LINE
  8
0
 62
     0
 10
59.72
 20
37.5931
 30
0.0
 11
60.5208
 21
37.5931
 31
0.0
  0
LINE
  8
0
 62
     0
 10
60.5208
 20
37.5931
 30
0.0
 11
60.5208
 21
50.395
 31
0.0
  0
LINE
  8
0
 62
     0
 10
60.5208
 20
50.395
 30
0.0
 11
59.72
 21
50.395
 31
0.0
  0
LINE
  8
0
 62
     0
 10
59.72
 20
50.395
 30
0.0
 11
59.72
 21
50.993
 31
0.0
  0
LINE
  8
0
 62
     0
 10
59.72
 20
50.993
 30
0.0
 11
45.7207
 21
50.993
 31
0.0
  0
LINE
  8
0
 62
     0
 10
64.7707
 20
50.993
 30
0.0
 11
64.7707
 21
50.395
 31
0.0
  0
LINE
  8
0
 62
     0
 10
64.7707
 20
50.395
 30
0.0
 11
63.9699
 21
50.395
 31
0.0
  0
LINE
  8
0
 62
     0
 10
63.9699
 20
50.395
 30
0.0
 11
63.9699
 21
37.5931
 31
0.0
  0
LINE
  8
0
 62
     0
 10
63.9699
 20
37.5931
 30
0.0
 11
64.7707
 21
37.5931
 31
0.0
  0
LINE
  8
0
 62
     0
 10
64.7707
 20
37.5931
 30
0.0
 11
64.7707
 21
36.9933
 31
0.0
  0
LINE
  8
0
 62
     0
 10
64.7707
 20
36.9933
 30
0.0
 11
78.77
 21
36.9933
 31
0.0
  0
LINE
  8
0
 62
     0
 10
78.77
 20
36.9933
 30
0.0
 11
78.77
 21
37.5931
 31
0.0
  0
LINE
  8
0
 62
     0
 10
78.77
 20
37.5931
 30
0.0
 11
79.5708
 21
37.5931
 31
0.0
  0
LINE
  8
0
 62
     0
 10
79.5708
 20
37.5931
 30
0.0
 11
79.5708
 21
50.395
 31
0.0
  0
LINE
  8
0
 62
     0
 10
79.5708
 20
50.395
 30
0.0
 11
78.77
 21
50.395
 31
0.0
  0
LINE
  8
0
 62
     0
 10
78.77
 20
50.395
 30
0.0
 11
78.77
 21
50.993
 31
0.0
  0
LINE
  8
0
 62
     0
 10
78.77
 20
50.993
 30
0.0
 11
64.7707
 21
50.993
 31
0.0
  0
LINE
  8
0
 62
     0
 10
83.8207
 20
50.993
 30
0.0
 11
83.8207
 21
50.395
 31
0.0
  0
LINE
  8
0
 62
     0
 10
83.8207
 20
50.395
 30
0.0
 11
83.0199
 21
50.395
 31
0.0
  0
LINE
  8
0
 62
     0
 10
83.0199
 20
50.395
 30
0.0
 11
83.0199
 21
37.5931
 31
0.0
  0
LINE
  8
0
 62
     0
 10
83.0199
 20
37.5931
 30
0.0
 11
83.8207
 21
37.5931
 31
0.0
  0
LINE
  8
0
 62
     0
 10
83.8207
 20
37.5931
 30
0.0
 11
83.8207
 21
36.9933
 31
0.0
  0
LINE
  8
0
 62
     0
 10
83.8207
 20
36.9933
 30
0.0
 11
97.82
 21
36.9933
 31
0.0
  0
LINE
  8
0
 62
     0
 10
97.82
 20
36.9933
 30
0.0
 11
97.82
 21
37.5931
 31
0.0
  0
LINE
  8
0
 62
     0
 10
97.82
 20
37.5931
 30
0.0
 11
98.6194
 21
37.5931
 31
0.0
  0
LINE
  8
0
 62
     0
 10
98.6194
 20
37.5931
 30
0.0
 11
98.6194
 21
50.395
 31
0.0
  0
LINE
  8
0
 62
     0
 10
98.6194
 20
50.395
 30
0.0
 11
97.82
 21
50.395
 31
0.0
  0
LINE
  8
0
 62
     0
 10
97.82
 20
50.395
 30
0.0
 11
97.82
 21
50.993
 31
0.0
  0
LINE
  8
0
 62
     0
 10
97.82
 20
50.993
 30
0.0
 11
83.8207
 21
50.993
 31
0.0
  0
LINE
  8
0
 62
     0
 10
102.869
 20
50.993
 30
0.0
 11
102.869
 21
50.395
 31
0.0
  0
LINE
  8
0
 62
     0
 10
102.869
 20
50.395
 30
0.0
 11
102.07
 21
50.395
 31
0.0
  0
LINE
  8
0
 62
     0
 10
102.07
 20
50.395
 30
0.0
 11
102.07
 21
37.5931
 31
0.0
  0
LINE
  8
0
 62
     0
 10
102.07
 20
37.5931
 30
0.0
 11
102.869
 21
37.5931
 31
0.0
  0
LINE
  8
0
 62
     0
 10
102.869
 20
37.5931
 30
0.0
 11
102.869
 21
36.9933
 31
0.0
  0
LINE
  8
0
 62
     0
 10
102.869
 20
36.9933
 30
0.0
 11
116.87
 21
36.9933
 31
0.0
  0
LINE
  8
0
 62
     0
 10
116.87
 20
36.9933
 30
0.0
 11
116.87
 21
37.5931
 31
0.0
  0
LINE
  8
0
 62
     0
 10
116.87
 20
37.5931
 30
0.0
 11
117.669
 21
37.5931
 31
0.0
  0
LINE
  8
0
 62
     0
 10
117.669
 20
37.5931
 30
0.0
 11
117.669
 21
50.395
 31
0.0
  0
LINE
  8
0
 62
     0
 10
117.669
 20
50.395
 30
0.0
 11
116.87
 21
50.395
 31
0.0
  0
LINE
  8
0
 62
     0
 10
116.87
 20
50.395
 30
0.0
 11
116.87
 21
50.993
 31
0.0
  0
LINE
  8
0
 62
     0
 10
116.87
 20
50.993
 30
0.0
 11
102.869
 21
50.993
 31
0.0
  0
LINE
  8
0
 62
     0
 10
121.919
 20
50.993
 30
0.0
 11
121.919
 21
50.395
 31
0.0
  0
LINE
  8
0
 62
     0
 10
121.919
 20
50.395
 30
0.0
 11
121.12
 21
50.395
 31
0.0
  0
LINE
  8
0
 62
     0
 10
121.12
 20
50.395
 30
0.0
 11
121.12
 21
37.5931
 31
0.0
  0
LINE
  8
0
 62
     0
 10
121.12
 20
37.5931
 30
0.0
 11
121.919
 21
37.5931
 31
0.0
  0
LINE
  8
0
 62
     0
 10
121.919
 20
37.5931
 30
0.0
 11
121.919
 21
36.9933
 31
0.0
  0
LINE
  8
0
 62
     0
 10
121.919
 20
36.9933
 30
0.0
 11
135.92
 21
36.9933
 31
0.0
  0
LINE
  8
0
 62
     0
 10
135.92
 20
36.9933
 30
0.0
 11
135.92
 21
37.5931
 31
0.0
  0
LINE
  8
0
 62
     0
 10
135.92
 20
37.5931
 30
0.0
 11
136.721
 21
37.5931
 31
0.0
  0
LINE
  8
0
 62
     0
 10
136.721
 20
37.5931
 30
0.0
 11
136.721
 21
50.395
 31
0.0
  0
LINE
  8
0
 62
     0
 10
136.721
 20
50.395
 30
0.0
 11
135.92
 21
50.395
 31
0.0
  0
LINE
  8
0
 62
     0
 10
135.92
 20
50.395
 30
0.0
 11
135.92
 21
50.993
 31
0.0
  0
LINE
  8
0
 62
     0
 10
135.92
 20
50.993
 30
0.0
 11
121.919
 21
50.993
 31
0.0
  0
LINE
  8
0
 62
     0
 10
140.971
 20
50.993
 30
0.0
 11
140.971
 21
50.395
 31
0.0
  0
LINE
  8
0
 62
     0
 10
140.971
 20
50.395
 30
0.0
 11
140.17
 21
50.395
 31
0.0
  0
LINE
  8
0
 62
     0
 10
140.17
 20
50.395
 30
0.0
 11
140.17
 21
37.5931
 31
0.0
  0
LINE
  8
0
 62
     0
 10
140.17
 20
37.5931
 30
0.0
 11
140.971
 21
37.5931
 31
0.0
  0
LINE
  8
0
 62
     0
 10
140.971
 20
37.5931
 30
0.0
 11
140.971
 21
36.9933
 31
0.0
  0
LINE
  8
0
 62
     0
 10
140.971
 20
36.9933
 30
0.0
 11
154.97
 21
36.9933
 31
0.0
  0
LINE
  8
0
 62
     0
 10
154.97
 20
36.9933
 30
0.0
 11
154.97
 21
37.5931
 31
0.0
  0
LINE
  8
0
 62
     0
 10
154.97
 20
37.5931
 30
0.0
 11
155.771
 21
37.5931
 31
0.0
  0
LINE
  8
0
 62
     0
 10
155.771
 20
37.5931
 30
0.0
 11
155.771
 21
50.395
 31
0.0
  0
LINE
  8
0
 62
     0
 10
155.771
 20
50.395
 30
0.0
 11
154.97
 21
50.395
 31
0.0
  0
LINE
  8
0
 62
     0
 10
154.97
 20
50.395
 30
0.0
 11
154.97
 21
50.993
 31
0.0
  0
LINE
  8
0
 62
     0
 10
154.97
 20
50.993
 30
0.0
 11
140.971
 21
50.993
 31
0.0
  0
LINE
  8
0
 62
     0
 10
160.021
 20
50.993
 30
0.0
 11
160.021
 21
50.395
 31
0.0
  0
LINE
  8
0
 62
     0
 10
160.021
 20
50.395
 30
0.0
 11
159.22
 21
50.395
 31
0.0
  0
LINE
  8
0
 62
     0
 10
159.22
 20
50.395
 30
0.0
 11
159.22
 21
37.5931
 31
0.0
  0
LINE
  8
0
 62
     0
 10
159.22
 20
37.5931
 30
0.0
 11
160.021
 21
37.5931
 31
0.0
  0
LINE
  8
0
 62
     0
 10
160.021
 20
37.5931
 30
0.0
 11
160.021
 21
36.9933
 31
0.0
  0
LINE
  8
0
 62
     0
 10
160.021
 20
36.9933
 30
0.0
 11
174.02
 21
36.9933
 31
0.0
  0
LINE
  8
0
 62
     0
 10
174.02
 20
36.9933
 30
0.0
 11
174.02
 21
37.5931
 31
0.0
  0
LINE
  8
0
 62
     0
 10
174.02
 20
37.5931
 30
0.0
 11
174.821
 21
37.5931
 31
0.0
  0
LINE
  8
0
 62
     0
 10
174.821
 20
37.5931
 30
0.0
 11
174.821
 21
50.395
 31
0.0
  0
LINE
  8
0
 62
     0
 10
174.821
 20
50.395
 30
0.0
 11
174.02
 21
50.395
 31
0.0
  0
LINE
  8
0
 62
     0
 10
174.02
 20
50.395
 30
0.0
 11
174.02
 21
50.993
 31
0.0
  0
LINE
  8
0
 62
     0
 10
174.02
 20
50.993
 30
0.0
 11
160.021
 21
50.993
 31
0.0
  0
LINE
  8
0
 62
     0
 10
179.071
 20
50.993
 30
0.0
 11
179.071
 21
50.395
 31
0.0
  0
LINE
  8
0
 62
     0
 10
179.071
 20
50.395
 30
0.0
 11
178.27
 21
50.395
 31
0.0
  0
LINE
  8
0
 62
     0
 10
178.27
 20
50.395
 30
0.0
 11
178.27
 21
37.5931
 31
0.0
  0
LINE
  8
0
 62
     0
 10
178.27
 20
37.5931
 30
0.0
 11
179.071
 21
37.5931
 31
0.0
  0
LINE
  8
0
 62
     0
 10
179.071
 20
37.5931
 30
0.0
 11
179.071
 21
36.9933
 31
0.0
  0
LINE
  8
0
 62
     0
 10
179.071
 20
36.9933
 30
0.0
 11
193.07
 21
36.9933
 31
0.0
  0
LINE
  8
0
 62
     0
 10
193.07
 20
36.9933
 30
0.0
 11
193.07
 21
37.5931
 31
0.0
  0
LINE
  8
0
 62
     0
 10
193.07
 20
37.5931
 30
0.0
 11
193.871
 21
37.5931
 31
0.0
  0
LINE
  8
0
 62
     0
 10
193.871
 20
37.5931
 30
0.0
 11
193.871
 21
50.395
 31
0.0
  0
LINE
  8
0
 62
     0
 10
193.871
 20
50.395
 30
0.0
 11
193.07
 21
50.395
 31
0.0
  0
LINE
  8
0
 62
     0
 10
193.07
 20
50.395
 30
0.0
 11
193.07
 21
50.993
 31
0.0
  0
LINE
  8
0
 62
     0
 10
193.07
 20
50.993
 30
0.0
 11
179.071
 21
50.993
 31
0.0
  0
LINE
  8
0
 62
     0
 10
198.121
 20
50.993
 30
0.0
 11
198.121
 21
50.395
 31
0.0
  0
LINE
  8
0
 62
     0
 10
198.121
 20
50.395
 30
0.0
 11
197.32
 21
50.395
 31
0.0
  0
LINE
  8
0
 62
     0
 10
197.32
 20
50.395
 30
0.0
 11
197.32
 21
37.5931
 31
0.0
  0
LINE
  8
0
 62
     0
 10
197.32
 20
37.5931
 30
0.0
 11
198.121
 21
37.5931
 31
0.0
  0
LINE
  8
0
 62
     0
 10
198.121
 20
37.5931
 30
0.0
 11
198.121
 21
36.9933
 31
0.0
  0
LINE
  8
0
 62
     0
 10
198.121
 20
36.9933
 30
0.0
 11
212.12
 21
36.9933
 31
0.0
  0
LINE
  8
0
 62
     0
 10
212.12
 20
36.9933
 30
0.0
 11
212.12
 21
37.5931
 31
0.0
  0
LINE
  8
0
 62
     0
 10
212.12
 20
37.5931
 30
0.0
 11
212.921
 21
37.5931
 31
0.0
  0
LINE
  8
0
 62
     0
 10
212.921
 20
37.5931
 30
0.0
 11
212.921
 21
50.395
 31
0.0
  0
LINE
  8
0
 62
     0
 10
212.921
 20
50.395
 30
0.0
 11
212.12
 21
50.395
 31
0.0
  0
LINE
  8
0
 62
     0
 10
212.12
 20
50.395
 30
0.0
 11
212.12
 21
50.993
 31
0.0
  0
LINE
  8
0
 62
     0
 10
212.12
 20
50.993
 30
0.0
 11
198.121
 21
50.993
 31
0.0
  0
LINE
  8
0
 62
     0
 10
217.171
 20
50.993
 30
0.0
 11
217.171
 21
50.395
 31
0.0
  0
LINE
  8
0
 62
     0
 10
217.171
 20
50.395
 30
0.0
 11
216.37
 21
50.395
 31
0.0
  0
LINE
  8
0
 62
     0
 10
216.37
 20
50.395
 30
0.0
 11
216.37
 21
37.5931
 31
0.0
  0
LINE
  8
0
 62
     0
 10
216.37
 20
37.5931
 30
0.0
 11
217.171
 21
37.5931
 31
0.0
  0
LINE
  8
0
 62
     0
 10
217.171
 20
37.5931
 30
0.0
 11
217.171
 21
36.9933
 31
0.0
  0
LINE
  8
0
 62
     0
 10
217.171
 20
36.9933
 30
0.0
 11
231.17
 21
36.9933
 31
0.0
  0
LINE
  8
0
 62
     0
 10
231.17
 20
36.9933
 30
0.0
 11
231.17
 21
37.5931
 31
0.0
  0
LINE
  8
0
 62
     0
 10
231.17
 20
37.5931
 30
0.0
 11
231.971
 21
37.5931
 31
0.0
  0
LINE
  8
0
 62
     0
 10
231.971
 20
37.5931
 30
0.0
 11
231.971
 21
50.395
 31
0.0
  0
LINE
  8
0
 62
     0
 10
231.971
 20
50.395
 30
0.0
 11
231.17
 21
50.395
 31
0.0
  0
LINE
  8
0
 62
     0
 10
231.17
 20
50.395
 30
0.0
 11
231.17
 21
50.993
 31
0.0
  0
LINE
  8
0
 62
     0
 10
231.17
 20
50.993
 30
0.0
 11
217.171
 21
50.993
 31
0.0
  0
LINE
  8
0
 62
     0
 10
236.221
 20
50.993
 30
0.0
 11
236.221
 21
50.395
 31
0.0
  0
LINE
  8
0
 62
     0
 10
236.221
 20
50.395
 30
0.0
 11
235.42
 21
50.395
 31
0.0
  0
LINE
  8
0
 62
     0
 10
235.42
 20
50.395
 30
0.0
 11
235.42
 21
37.5931
 31
0.0
  0
LINE
  8
0
 62
     0
 10
235.42
 20
37.5931
 30
0.0
 11
236.221
 21
37.5931
 31
0.0
  0
LINE
  8
0
 62
     0
 10
236.221
 20
37.5931
 30
0.0
 11
236.221
 21
36.9933
 31
0.0
  0
LINE
  8
0
 62
     0
 10
236.221
 20
36.9933
 30
0.0
 11
250.22
 21
36.9933
 31
0.0
  0
LINE
  8
0
 62
     0
 10
250.22
 20
36.9933
 30
0.0
 11
250.22
 21
37.5931
 31
0.0
  0
LINE
  8
0
 62
     0
 10
250.22
 20
37.5931
 30
0.0
 11
251.021
 21
37.5931
 31
0.0
  0
LINE
  8
0
 62
     0
 10
251.021
 20
37.5931
 30
0.0
 11
251.021
 21
50.395
 31
0.0
  0
LINE
  8
0
 62
     0
 10
251.021
 20
50.395
 30
0.0
 11
250.22
 21
50.395
 31
0.0
  0
LINE
  8
0
 62
     0
 10
250.22
 20
50.395
 30
0.0
 11
250.22
 21
50.993
 31
0.0
  0
LINE
  8
0
 62
     0
 10
250.22
 20
50.993
 30
0.0
 11
236.221
 21
50.993
 31
0.0
  0
LINE
  8
0
 62
     0
 10
12.3831
 20
70.043
 30
0.0
 11
12.3831
 21
69.4436
 31
0.0
  0
LINE
  8
0
 62
     0
 10
12.3831
 20
69.4436
 30
0.0
 11
11.5824
 21
69.4436
 31
0.0
  0
LINE
  8
0
 62
     0
 10
11.5824
 20
69.4436
 30
0.0
 11
11.5824
 21
56.6431
 31
0.0
  0
LINE
  8
0
 62
     0
 10
11.5824
 20
56.6431
 30
0.0
 11
12.3831
 21
56.6431
 31
0.0
  0
LINE
  8
0
 62
     0
 10
12.3831
 20
56.6431
 30
0.0
 11
12.3831
 21
56.0433
 31
0.0
  0
LINE
  8
0
 62
     0
 10
12.3831
 20
56.0433
 30
0.0
 11
26.3826
 21
56.0433
 31
0.0
  0
LINE
  8
0
 62
     0
 10
26.3826
 20
56.0433
 30
0.0
 11
26.3826
 21
56.6431
 31
0.0
  0
LINE
  8
0
 62
     0
 10
26.3826
 20
56.6431
 30
0.0
 11
27.1818
 21
56.6431
 31
0.0
  0
LINE
  8
0
 62
     0
 10
27.1818
 20
56.6431
 30
0.0
 11
27.1818
 21
69.4436
 31
0.0
  0
LINE
  8
0
 62
     0
 10
27.1818
 20
69.4436
 30
0.0
 11
26.3826
 21
69.4436
 31
0.0
  0
LINE
  8
0
 62
     0
 10
26.3826
 20
69.4436
 30
0.0
 11
26.3826
 21
70.043
 31
0.0
  0
LINE
  8
0
 62
     0
 10
26.3826
 20
70.043
 30
0.0
 11
12.3831
 21
70.043
 31
0.0
  0
LINE
  8
0
 62
     0
 10
36.1957
 20
70.043
 30
0.0
 11
36.1957
 21
69.4436
 31
0.0
  0
LINE
  8
0
 62
     0
 10
36.1957
 20
69.4436
 30
0.0
 11
35.3949
 21
69.4436
 31
0.0
  0
LINE
  8
0
 62
     0
 10
35.3949
 20
69.4436
 30
0.0
 11
35.3949
 21
56.6431
 31
0.0
  0
LINE
  8
0
 62
     0
 10
35.3949
 20
56.6431
 30
0.0
 11
36.1957
 21
56.6431
 31
0.0
  0
LINE
  8
0
 62
     0
 10
36.1957
 20
56.6431
 30
0.0
 11
36.1957
 21
56.0433
 31
0.0
  0
LINE
  8
0
 62
     0
 10
36.1957
 20
56.0433
 30
0.0
 11
50.195
 21
56.0433
 31
0.0
  0
LINE
  8
0
 62
     0
 10
50.195
 20
56.0433
 30
0.0
 11
50.195
 21
56.6431
 31
0.0
  0
LINE
  8
0
 62
     0
 10
50.195
 20
56.6431
 30
0.0
 11
50.9958
 21
56.6431
 31
0.0
  0
LINE
  8
0
 62
     0
 10
50.9958
 20
56.6431
 30
0.0
 11
50.9958
 21
69.4436
 31
0.0
  0
LINE
  8
0
 62
     0
 10
50.9958
 20
69.4436
 30
0.0
 11
50.195
 21
69.4436
 31
0.0
  0
LINE
  8
0
 62
     0
 10
50.195
 20
69.4436
 30
0.0
 11
50.195
 21
70.043
 31
0.0
  0
LINE
  8
0
 62
     0
 10
50.195
 20
70.043
 30
0.0
 11
36.1957
 21
70.043
 31
0.0
  0
LINE
  8
0
 62
     0
 10
55.2457
 20
70.043
 30
0.0
 11
55.2457
 21
69.4436
 31
0.0
  0
LINE
  8
0
 62
     0
 10
55.2457
 20
69.4436
 30
0.0
 11
54.4449
 21
69.4436
 31
0.0
  0
LINE
  8
0
 62
     0
 10
54.4449
 20
69.4436
 30
0.0
 11
54.4449
 21
56.6431
 31
0.0
  0
LINE
  8
0
 62
     0
 10
54.4449
 20
56.6431
 30
0.0
 11
55.2457
 21
56.6431
 31
0.0
  0
LINE
  8
0
 62
     0
 10
55.2457
 20
56.6431
 30
0.0
 11
55.2457
 21
56.0433
 31
0.0
  0
LINE
  8
0
 62
     0
 10
55.2457
 20
56.0433
 30
0.0
 11
69.245
 21
56.0433
 31
0.0
  0
LINE
  8
0
 62
     0
 10
69.245
 20
56.0433
 30
0.0
 11
69.245
 21
56.6431
 31
0.0
  0
LINE
  8
0
 62
     0
 10
69.245
 20
56.6431
 30
0.0
 11
70.0458
 21
56.6431
 31
0.0
  0
LINE
  8
0
 62
     0
 10
70.0458
 20
56.6431
 30
0.0
 11
70.0458
 21
69.4436
 31
0.0
  0
LINE
  8
0
 62
     0
 10
70.0458
 20
69.4436
 30
0.0
 11
69.245
 21
69.4436
 31
0.0
  0
LINE
  8
0
 62
     0
 10
69.245
 20
69.4436
 30
0.0
 11
69.245
 21
70.043
 31
0.0
  0
LINE
  8
0
 62
     0
 10
69.245
 20
70.043
 30
0.0
 11
55.2457
 21
70.043
 31
0.0
  0
LINE
  8
0
 62
     0
 10
74.2957
 20
70.043
 30
0.0
 11
74.2957
 21
69.4436
 31
0.0
  0
LINE
  8
0
 62
     0
 10
74.2957
 20
69.4436
 30
0.0
 11
73.4949
 21
69.4436
 31
0.0
  0
LINE
  8
0
 62
     0
 10
73.4949
 20
69.4436
 30
0.0
 11
73.4949
 21
56.6431
 31
0.0
  0
LINE
  8
0
 62
     0
 10
73.4949
 20
56.6431
 30
0.0
 11
74.2957
 21
56.6431
 31
0.0
  0
LINE
  8
0
 62
     0
 10
74.2957
 20
56.6431
 30
0.0
 11
74.2957
 21
56.0433
 31
0.0
  0
LINE
  8
0
 62
     0
 10
74.2957
 20
56.0433
 30
0.0
 11
88.295
 21
56.0433
 31
0.0
  0
LINE
  8
0
 62
     0
 10
88.295
 20
56.0433
 30
0.0
 11
88.295
 21
56.6431
 31
0.0
  0
LINE
  8
0
 62
     0
 10
88.295
 20
56.6431
 30
0.0
 11
89.0958
 21
56.6431
 31
0.0
  0
LINE
  8
0
 62
     0
 10
89.0958
 20
56.6431
 30
0.0
 11
89.0958
 21
69.4436
 31
0.0
  0
LINE
  8
0
 62
     0
 10
89.0958
 20
69.4436
 30
0.0
 11
88.295
 21
69.4436
 31
0.0
  0
LINE
  8
0
 62
     0
 10
88.295
 20
69.4436
 30
0.0
 11
88.295
 21
70.043
 31
0.0
  0
LINE
  8
0
 62
     0
 10
88.295
 20
70.043
 30
0.0
 11
74.2957
 21
70.043
 31
0.0
  0
LINE
  8
0
 62
     0
 10
93.3457
 20
70.043
 30
0.0
 11
93.3457
 21
69.4436
 31
0.0
  0
LINE
  8
0
 62
     0
 10
93.3457
 20
69.4436
 30
0.0
 11
92.5449
 21
69.4436
 31
0.0
  0
LINE
  8
0
 62
     0
 10
92.5449
 20
69.4436
 30
0.0
 11
92.5449
 21
56.6431
 31
0.0
  0
LINE
  8
0
 62
     0
 10
92.5449
 20
56.6431
 30
0.0
 11
93.3457
 21
56.6431
 31
0.0
  0
LINE
  8
0
 62
     0
 10
93.3457
 20
56.6431
 30
0.0
 11
93.3457
 21
56.0433
 31
0.0
  0
LINE
  8
0
 62
     0
 10
93.3457
 20
56.0433
 30
0.0
 11
107.345
 21
56.0433
 31
0.0
  0
LINE
  8
0
 62
     0
 10
107.345
 20
56.0433
 30
0.0
 11
107.345
 21
56.6431
 31
0.0
  0
LINE
  8
0
 62
     0
 10
107.345
 20
56.6431
 30
0.0
 11
108.146
 21
56.6431
 31
0.0
  0
LINE
  8
0
 62
     0
 10
108.146
 20
56.6431
 30
0.0
 11
108.146
 21
69.4436
 31
0.0
  0
LINE
  8
0
 62
     0
 10
108.146
 20
69.4436
 30
0.0
 11
107.345
 21
69.4436
 31
0.0
  0
LINE
  8
0
 62
     0
 10
107.345
 20
69.4436
 30
0.0
 11
107.345
 21
70.043
 31
0.0
  0
LINE
  8
0
 62
     0
 10
107.345
 20
70.043
 30
0.0
 11
93.3457
 21
70.043
 31
0.0
  0
LINE
  8
0
 62
     0
 10
112.396
 20
70.043
 30
0.0
 11
112.396
 21
69.4436
 31
0.0
  0
LINE
  8
0
 62
     0
 10
112.396
 20
69.4436
 30
0.0
 11
111.595
 21
69.4436
 31
0.0
  0
LINE
  8
0
 62
     0
 10
111.595
 20
69.4436
 30
0.0
 11
111.595
 21
56.6431
 31
0.0
  0
LINE
  8
0
 62
     0
 10
111.595
 20
56.6431
 30
0.0
 11
112.396
 21
56.6431
 31
0.0
  0
LINE
  8
0
 62
     0
 10
112.396
 20
56.6431
 30
0.0
 11
112.396
 21
56.0433
 31
0.0
  0
LINE
  8
0
 62
     0
 10
112.396
 20
56.0433
 30
0.0
 11
126.395
 21
56.0433
 31
0.0
  0
LINE
  8
0
 62
     0
 10
126.395
 20
56.0433
 30
0.0
 11
126.395
 21
56.6431
 31
0.0
  0
LINE
  8
0
 62
     0
 10
126.395
 20
56.6431
 30
0.0
 11
127.196
 21
56.6431
 31
0.0
  0
LINE
  8
0
 62
     0
 10
127.196
 20
56.6431
 30
0.0
 11
127.196
 21
69.4436
 31
0.0
  0
LINE
  8
0
 62
     0
 10
127.196
 20
69.4436
 30
0.0
 11
126.395
 21
69.4436
 31
0.0
  0
LINE
  8
0
 62
     0
 10
126.395
 20
69.4436
 30
0.0
 11
126.395
 21
70.043
 31
0.0
  0
LINE
  8
0
 62
     0
 10
126.395
 20
70.043
 30
0.0
 11
112.396
 21
70.043
 31
0.0
  0
LINE
  8
0
 62
     0
 10
131.446
 20
70.043
 30
0.0
 11
131.446
 21
69.4436
 31
0.0
  0
LINE
  8
0
 62
     0
 10
131.446
 20
69.4436
 30
0.0
 11
130.645
 21
69.4436
 31
0.0
  0
LINE
  8
0
 62
     0
 10
130.645
 20
69.4436
 30
0.0
 11
130.645
 21
56.6431
 31
0.0
  0
LINE
  8
0
 62
     0
 10
130.645
 20
56.6431
 30
0.0
 11
131.446
 21
56.6431
 31
0.0
  0
LINE
  8
0
 62
     0
 10
131.446
 20
56.6431
 30
0.0
 11
131.446
 21
56.0433
 31
0.0
  0
LINE
  8
0
 62
     0
 10
131.446
 20
56.0433
 30
0.0
 11
145.445
 21
56.0433
 31
0.0
  0
LINE
  8
0
 62
     0
 10
145.445
 20
56.0433
 30
0.0
 11
145.445
 21
56.6431
 31
0.0
  0
LINE
  8
0
 62
     0
 10
145.445
 20
56.6431
 30
0.0
 11
146.246
 21
56.6431
 31
0.0
  0
LINE
  8
0
 62
     0
 10
146.246
 20
56.6431
 30
0.0
 11
146.246
 21
69.4436
 31
0.0
  0
LINE
  8
0
 62
     0
 10
146.246
 20
69.4436
 30
0.0
 11
145.445
 21
69.4436
 31
0.0
  0
LINE
  8
0
 62
     0
 10
145.445
 20
69.4436
 30
0.0
 11
145.445
 21
70.043
 31
0.0
  0
LINE
  8
0
 62
     0
 10
145.445
 20
70.043
 30
0.0
 11
131.446
 21
70.043
 31
0.0
  0
LINE
  8
0
 62
     0
 10
150.496
 20
70.043
 30
0.0
 11
150.496
 21
69.4436
 31
0.0
  0
LINE
  8
0
 62
     0
 10
150.496
 20
69.4436
 30
0.0
 11
149.695
 21
69.4436
 31
0.0
  0
LINE
  8
0
 62
     0
 10
149.695
 20
69.4436
 30
0.0
 11
149.695
 21
56.6431
 31
0.0
  0
LINE
  8
0
 62
     0
 10
149.695
 20
56.6431
 30
0.0
 11
150.496
 21
56.6431
 31
0.0
  0
LINE
  8
0
 62
     0
 10
150.496
 20
56.6431
 30
0.0
 11
150.496
 21
56.0433
 31
0.0
  0
LINE
  8
0
 62
     0
 10
150.496
 20
56.0433
 30
0.0
 11
164.495
 21
56.0433
 31
0.0
  0
LINE
  8
0
 62
     0
 10
164.495
 20
56.0433
 30
0.0
 11
164.495
 21
56.6431
 31
0.0
  0
LINE
  8
0
 62
     0
 10
164.495
 20
56.6431
 30
0.0
 11
165.296
 21
56.6431
 31
0.0
  0
LINE
  8
0
 62
     0
 10
165.296
 20
56.6431
 30
0.0
 11
165.296
 21
69.4436
 31
0.0
  0
LINE
  8
0
 62
     0
 10
165.296
 20
69.4436
 30
0.0
 11
164.495
 21
69.4436
 31
0.0
  0
LINE
  8
0
 62
     0
 10
164.495
 20
69.4436
 30
0.0
 11
164.495
 21
70.043
 31
0.0
  0
LINE
  8
0
 62
     0
 10
164.495
 20
70.043
 30
0.0
 11
150.496
 21
70.043
 31
0.0
  0
LINE
  8
0
 62
     0
 10
169.546
 20
70.043
 30
0.0
 11
169.546
 21
69.4436
 31
0.0
  0
LINE
  8
0
 62
     0
 10
169.546
 20
69.4436
 30
0.0
 11
168.745
 21
69.4436
 31
0.0
  0
LINE
  8
0
 62
     0
 10
168.745
 20
69.4436
 30
0.0
 11
168.745
 21
56.6431
 31
0.0
  0
LINE
  8
0
 62
     0
 10
168.745
 20
56.6431
 30
0.0
 11
169.546
 21
56.6431
 31
0.0
  0
LINE
  8
0
 62
     0
 10
169.546
 20
56.6431
 30
0.0
 11
169.546
 21
56.0433
 31
0.0
  0
LINE
  8
0
 62
     0
 10
169.546
 20
56.0433
 30
0.0
 11
183.545
 21
56.0433
 31
0.0
  0
LINE
  8
0
 62
     0
 10
183.545
 20
56.0433
 30
0.0
 11
183.545
 21
56.6431
 31
0.0
  0
LINE
  8
0
 62
     0
 10
183.545
 20
56.6431
 30
0.0
 11
184.346
 21
56.6431
 31
0.0
  0
LINE
  8
0
 62
     0
 10
184.346
 20
56.6431
 30
0.0
 11
184.346
 21
69.4436
 31
0.0
  0
LINE
  8
0
 62
     0
 10
184.346
 20
69.4436
 30
0.0
 11
183.545
 21
69.4436
 31
0.0
  0
LINE
  8
0
 62
     0
 10
183.545
 20
69.4436
 30
0.0
 11
183.545
 21
70.043
 31
0.0
  0
LINE
  8
0
 62
     0
 10
183.545
 20
70.043
 30
0.0
 11
169.546
 21
70.043
 31
0.0
  0
LINE
  8
0
 62
     0
 10
188.596
 20
70.043
 30
0.0
 11
188.596
 21
69.4436
 31
0.0
  0
LINE
  8
0
 62
     0
 10
188.596
 20
69.4436
 30
0.0
 11
187.795
 21
69.4436
 31
0.0
  0
LINE
  8
0
 62
     0
 10
187.795
 20
69.4436
 30
0.0
 11
187.795
 21
56.6431
 31
0.0
  0
LINE
  8
0
 62
     0
 10
187.795
 20
56.6431
 30
0.0
 11
188.596
 21
56.6431
 31
0.0
  0
LINE
  8
0
 62
     0
 10
188.596
 20
56.6431
 30
0.0
 11
188.596
 21
56.0433
 31
0.0
  0
LINE
  8
0
 62
     0
 10
188.596
 20
56.0433
 30
0.0
 11
202.595
 21
56.0433
 31
0.0
  0
LINE
  8
0
 62
     0
 10
202.595
 20
56.0433
 30
0.0
 11
202.595
 21
56.6431
 31
0.0
  0
LINE
  8
0
 62
     0
 10
202.595
 20
56.6431
 30
0.0
 11
203.396
 21
56.6431
 31
0.0
  0
LINE
  8
0
 62
     0
 10
203.396
 20
56.6431
 30
0.0
 11
203.396
 21
69.4436
 31
0.0
  0
LINE
  8
0
 62
     0
 10
203.396
 20
69.4436
 30
0.0
 11
202.595
 21
69.4436
 31
0.0
  0
LINE
  8
0
 62
     0
 10
202.595
 20
69.4436
 30
0.0
 11
202.595
 21
70.043
 31
0.0
  0
LINE
  8
0
 62
     0
 10
202.595
 20
70.043
 30
0.0
 11
188.596
 21
70.043
 31
0.0
  0
LINE
  8
0
 62
     0
 10
207.646
 20
70.043
 30
0.0
 11
207.646
 21
69.4436
 31
0.0
  0
LINE
  8
0
 62
     0
 10
207.646
 20
69.4436
 30
0.0
 11
206.845
 21
69.4436
 31
0.0
  0
LINE
  8
0
 62
     0
 10
206.845
 20
69.4436
 30
0.0
 11
206.845
 21
56.6431
 31
0.0
  0
LINE
  8
0
 62
     0
 10
206.845
 20
56.6431
 30
0.0
 11
207.646
 21
56.6431
 31
0.0
  0
LINE
  8
0
 62
     0
 10
207.646
 20
56.6431
 30
0.0
 11
207.646
 21
56.0433
 31
0.0
  0
LINE
  8
0
 62
     0
 10
207.646
 20
56.0433
 30
0.0
 11
221.645
 21
56.0433
 31
0.0
  0
LINE
  8
0
 62
     0
 10
221.645
 20
56.0433
 30
0.0
 11
221.645
 21
56.6431
 31
0.0
  0
LINE
  8
0
 62
     0
 10
221.645
 20
56.6431
 30
0.0
 11
222.446
 21
56.6431
 31
0.0
  0
LINE
  8
0
 62
     0
 10
222.446
 20
56.6431
 30
0.0
 11
222.446
 21
69.4436
 31
0.0
  0
LINE
  8
0
 62
     0
 10
222.446
 20
69.4436
 30
0.0
 11
221.645
 21
69.4436
 31
0.0
  0
LINE
  8
0
 62
     0
 10
221.645
 20
69.4436
 30
0.0
 11
221.645
 21
70.043
 31
0.0
  0
LINE
  8
0
 62
     0
 10
221.645
 20
70.043
 30
0.0
 11
207.646
 21
70.043
 31
0.0
  0
LINE
  8
0
 62
     0
 10
231.458
 20
70.043
 30
0.0
 11
231.458
 21
69.4436
 31
0.0
  0
LINE
  8
0
 62
     0
 10
231.458
 20
69.4436
 30
0.0
 11
230.657
 21
69.4436
 31
0.0
  0
LINE
  8
0
 62
     0
 10
230.657
 20
69.4436
 30
0.0
 11
230.657
 21
56.6431
 31
0.0
  0
LINE
  8
0
 62
     0
 10
230.657
 20
56.6431
 30
0.0
 11
231.458
 21
56.6431
 31
0.0
  0
LINE
  8
0
 62
     0
 10
231.458
 20
56.6431
 30
0.0
 11
231.458
 21
56.0433
 31
0.0
  0
LINE
  8
0
 62
     0
 10
231.458
 20
56.0433
 30
0.0
 11
245.457
 21
56.0433
 31
0.0
  0
LINE
  8
0
 62
     0
 10
245.457
 20
56.0433
 30
0.0
 11
245.457
 21
56.6431
 31
0.0
  0
LINE
  8
0
 62
     0
 10
245.457
 20
56.6431
 30
0.0
 11
246.258
 21
56.6431
 31
0.0
  0
LINE
  8
0
 62
     0
 10
246.258
 20
56.6431
 30
0.0
 11
246.258
 21
69.4436
 31
0.0
  0
LINE
  8
0
 62
     0
 10
246.258
 20
69.4436
 30
0.0
 11
245.457
 21
69.4436
 31
0.0
  0
LINE
  8
0
 62
     0
 10
245.457
 20
69.4436
 30
0.0
 11
245.457
 21
70.043
 31
0.0
  0
LINE
  8
0
 62
     0
 10
245.457
 20
70.043
 30
0.0
 11
231.458
 21
70.043
 31
0.0
  0
LINE
  8
0
 62
     0
 10
7.61919
 20
89.093
 30
0.0
 11
7.61919
 21
88.4936
 31
0.0
  0
LINE
  8
0
 62
     0
 10
7.61919
 20
88.4936
 30
0.0
 11
6.8199
 21
88.4936
 31
0.0
  0
LINE
  8
0
 62
     0
 10
6.8199
 20
88.4936
 30
0.0
 11
6.8199
 21
75.6931
 31
0.0
  0
LINE
  8
0
 62
     0
 10
6.8199
 20
75.6931
 30
0.0
 11
7.61919
 21
75.6931
 31
0.0
  0
LINE
  8
0
 62
     0
 10
7.61919
 20
75.6931
 30
0.0
 11
7.61919
 21
75.0933
 31
0.0
  0
LINE
  8
0
 62
     0
 10
7.61919
 20
75.0933
 30
0.0
 11
21.6201
 21
75.0933
 31
0.0
  0
LINE
  8
0
 62
     0
 10
21.6201
 20
75.0933
 30
0.0
 11
21.6201
 21
75.6931
 31
0.0
  0
LINE
  8
0
 62
     0
 10
21.6201
 20
75.6931
 30
0.0
 11
22.4207
 21
75.6931
 31
0.0
  0
LINE
  8
0
 62
     0
 10
22.4207
 20
75.6931
 30
0.0
 11
22.4207
 21
88.4936
 31
0.0
  0
LINE
  8
0
 62
     0
 10
22.4207
 20
88.4936
 30
0.0
 11
21.6201
 21
88.4936
 31
0.0
  0
LINE
  8
0
 62
     0
 10
21.6201
 20
88.4936
 30
0.0
 11
21.6201
 21
89.093
 31
0.0
  0
LINE
  8
0
 62
     0
 10
21.6201
 20
89.093
 30
0.0
 11
7.61919
 21
89.093
 31
0.0
  0
LINE
  8
0
 62
     0
 10
26.6706
 20
89.093
 30
0.0
 11
26.6706
 21
88.4936
 31
0.0
  0
LINE
  8
0
 62
     0
 10
26.6706
 20
88.4936
 30
0.0
 11
25.8699
 21
88.4936
 31
0.0
  0
LINE
  8
0
 62
     0
 10
25.8699
 20
88.4936
 30
0.0
 11
25.8699
 21
75.6931
 31
0.0
  0
LINE
  8
0
 62
     0
 10
25.8699
 20
75.6931
 30
0.0
 11
26.6706
 21
75.6931
 31
0.0
  0
LINE
  8
0
 62
     0
 10
26.6706
 20
75.6931
 30
0.0
 11
26.6706
 21
75.0933
 31
0.0
  0
LINE
  8
0
 62
     0
 10
26.6706
 20
75.0933
 30
0.0
 11
40.67
 21
75.0933
 31
0.0
  0
LINE
  8
0
 62
     0
 10
40.67
 20
75.0933
 30
0.0
 11
40.67
 21
75.6931
 31
0.0
  0
LINE
  8
0
 62
     0
 10
40.67
 20
75.6931
 30
0.0
 11
41.4708
 21
75.6931
 31
0.0
  0
LINE
  8
0
 62
     0
 10
41.4708
 20
75.6931
 30
0.0
 11
41.4708
 21
88.4936
 31
0.0
  0
LINE
  8
0
 62
     0
 10
41.4708
 20
88.4936
 30
0.0
 11
40.67
 21
88.4936
 31
0.0
  0
LINE
  8
0
 62
     0
 10
40.67
 20
88.4936
 30
0.0
 11
40.67
 21
89.093
 31
0.0
  0
LINE
  8
0
 62
     0
 10
40.67
 20
89.093
 30
0.0
 11
26.6706
 21
89.093
 31
0.0
  0
LINE
  8
0
 62
     0
 10
45.7207
 20
89.093
 30
0.0
 11
45.7207
 21
88.4936
 31
0.0
  0
LINE
  8
0
 62
     0
 10
45.7207
 20
88.4936
 30
0.0
 11
44.9199
 21
88.4936
 31
0.0
  0
LINE
  8
0
 62
     0
 10
44.9199
 20
88.4936
 30
0.0
 11
44.9199
 21
75.6931
 31
0.0
  0
LINE
  8
0
 62
     0
 10
44.9199
 20
75.6931
 30
0.0
 11
45.7207
 21
75.6931
 31
0.0
  0
LINE
  8
0
 62
     0
 10
45.7207
 20
75.6931
 30
0.0
 11
45.7207
 21
75.0933
 31
0.0
  0
LINE
  8
0
 62
     0
 10
45.7207
 20
75.0933
 30
0.0
 11
59.72
 21
75.0933
 31
0.0
  0
LINE
  8
0
 62
     0
 10
59.72
 20
75.0933
 30
0.0
 11
59.72
 21
75.6931
 31
0.0
  0
LINE
  8
0
 62
     0
 10
59.72
 20
75.6931
 30
0.0
 11
60.5208
 21
75.6931
 31
0.0
  0
LINE
  8
0
 62
     0
 10
60.5208
 20
75.6931
 30
0.0
 11
60.5208
 21
88.4936
 31
0.0
  0
LINE
  8
0
 62
     0
 10
60.5208
 20
88.4936
 30
0.0
 11
59.72
 21
88.4936
 31
0.0
  0
LINE
  8
0
 62
     0
 10
59.72
 20
88.4936
 30
0.0
 11
59.72
 21
89.093
 31
0.0
  0
LINE
  8
0
 62
     0
 10
59.72
 20
89.093
 30
0.0
 11
45.7207
 21
89.093
 31
0.0
  0
LINE
  8
0
 62
     0
 10
64.7707
 20
89.093
 30
0.0
 11
64.7707
 21
88.4936
 31
0.0
  0
LINE
  8
0
 62
     0
 10
64.7707
 20
88.4936
 30
0.0
 11
63.9699
 21
88.4936
 31
0.0
  0
LINE
  8
0
 62
     0
 10
63.9699
 20
88.4936
 30
0.0
 11
63.9699
 21
75.6931
 31
0.0
  0
LINE
  8
0
 62
     0
 10
63.9699
 20
75.6931
 30
0.0
 11
64.7707
 21
75.6931
 31
0.0
  0
LINE
  8
0
 62
     0
 10
64.7707
 20
75.6931
 30
0.0
 11
64.7707
 21
75.0933
 31
0.0
  0
LINE
  8
0
 62
     0
 10
64.7707
 20
75.0933
 30
0.0
 11
78.77
 21
75.0933
 31
0.0
  0
LINE
  8
0
 62
     0
 10
78.77
 20
75.0933
 30
0.0
 11
78.77
 21
75.6931
 31
0.0
  0
LINE
  8
0
 62
     0
 10
78.77
 20
75.6931
 30
0.0
 11
79.5708
 21
75.6931
 31
0.0
  0
LINE
  8
0
 62
     0
 10
79.5708
 20
75.6931
 30
0.0
 11
79.5708
 21
88.4936
 31
0.0
  0
LINE
  8
0
 62
     0
 10
79.5708
 20
88.4936
 30
0.0
 11
78.77
 21
88.4936
 31
0.0
  0
LINE
  8
0
 62
     0
 10
78.77
 20
88.4936
 30
0.0
 11
78.77
 21
89.093
 31
0.0
  0
LINE
  8
0
 62
     0
 10
78.77
 20
89.093
 30
0.0
 11
64.7707
 21
89.093
 31
0.0
  0
LINE
  8
0
 62
     0
 10
83.8207
 20
89.093
 30
0.0
 11
83.8207
 21
88.4936
 31
0.0
  0
LINE
  8
0
 62
     0
 10
83.8207
 20
88.4936
 30
0.0
 11
83.0199
 21
88.4936
 31
0.0
  0
LINE
  8
0
 62
     0
 10
83.0199
 20
88.4936
 30
0.0
 11
83.0199
 21
75.6931
 31
0.0
  0
LINE
  8
0
 62
     0
 10
83.0199
 20
75.6931
 30
0.0
 11
83.8207
 21
75.6931
 31
0.0
  0
LINE
  8
0
 62
     0
 10
83.8207
 20
75.6931
 30
0.0
 11
83.8207
 21
75.0933
 31
0.0
  0
LINE
  8
0
 62
     0
 10
83.8207
 20
75.0933
 30
0.0
 11
97.82
 21
75.0933
 31
0.0
  0
LINE
  8
0
 62
     0
 10
97.82
 20
75.0933
 30
0.0
 11
97.82
 21
75.6931
 31
0.0
  0
LINE
  8
0
 62
     0
 10
97.82
 20
75.6931
 30
0.0
 11
98.6194
 21
75.6931
 31
0.0
  0
LINE
  8
0
 62
     0
 10
98.6194
 20
75.6931
 30
0.0
 11
98.6194
 21
88.4936
 31
0.0
  0
LINE
  8
0
 62
     0
 10
98.6194
 20
88.4936
 30
0.0
 11
97.82
 21
88.4936
 31
0.0
  0
LINE
  8
0
 62
     0
 10
97.82
 20
88.4936
 30
0.0
 11
97.82
 21
89.093
 31
0.0
  0
LINE
  8
0
 62
     0
 10
97.82
 20
89.093
 30
0.0
 11
83.8207
 21
89.093
 31
0.0
  0
LINE
  8
0
 62
     0
 10
102.869
 20
89.093
 30
0.0
 11
102.869
 21
88.4936
 31
0.0
  0
LINE
  8
0
 62
     0
 10
102.869
 20
88.4936
 30
0.0
 11
102.07
 21
88.4936
 31
0.0
  0
LINE
  8
0
 62
     0
 10
102.07
 20
88.4936
 30
0.0
 11
102.07
 21
75.6931
 31
0.0
  0
LINE
  8
0
 62
     0
 10
102.07
 20
75.6931
 30
0.0
 11
102.869
 21
75.6931
 31
0.0
  0
LINE
  8
0
 62
     0
 10
102.869
 20
75.6931
 30
0.0
 11
102.869
 21
75.0933
 31
0.0
  0
LINE
  8
0
 62
     0
 10
102.869
 20
75.0933
 30
0.0
 11
116.87
 21
75.0933
 31
0.0
  0
LINE
  8
0
 62
     0
 10
116.87
 20
75.0933
 30
0.0
 11
116.87
 21
75.6931
 31
0.0
  0
LINE
  8
0
 62
     0
 10
116.87
 20
75.6931
 30
0.0
 11
117.669
 21
75.6931
 31
0.0
  0
LINE
  8
0
 62
     0
 10
117.669
 20
75.6931
 30
0.0
 11
117.669
 21
88.4936
 31
0.0
  0
LINE
  8
0
 62
     0
 10
117.669
 20
88.4936
 30
0.0
 11
116.87
 21
88.4936
 31
0.0
  0
LINE
  8
0
 62
     0
 10
116.87
 20
88.4936
 30
0.0
 11
116.87
 21
89.093
 31
0.0
  0
LINE
  8
0
 62
     0
 10
116.87
 20
89.093
 30
0.0
 11
102.869
 21
89.093
 31
0.0
  0
LINE
  8
0
 62
     0
 10
121.919
 20
89.093
 30
0.0
 11
121.919
 21
88.4936
 31
0.0
  0
LINE
  8
0
 62
     0
 10
121.919
 20
88.4936
 30
0.0
 11
121.12
 21
88.4936
 31
0.0
  0
LINE
  8
0
 62
     0
 10
121.12
 20
88.4936
 30
0.0
 11
121.12
 21
75.6931
 31
0.0
  0
LINE
  8
0
 62
     0
 10
121.12
 20
75.6931
 30
0.0
 11
121.919
 21
75.6931
 31
0.0
  0
LINE
  8
0
 62
     0
 10
121.919
 20
75.6931
 30
0.0
 11
121.919
 21
75.0933
 31
0.0
  0
LINE
  8
0
 62
     0
 10
121.919
 20
75.0933
 30
0.0
 11
135.92
 21
75.0933
 31
0.0
  0
LINE
  8
0
 62
     0
 10
135.92
 20
75.0933
 30
0.0
 11
135.92
 21
75.6931
 31
0.0
  0
LINE
  8
0
 62
     0
 10
135.92
 20
75.6931
 30
0.0
 11
136.721
 21
75.6931
 31
0.0
  0
LINE
  8
0
 62
     0
 10
136.721
 20
75.6931
 30
0.0
 11
136.721
 21
88.4936
 31
0.0
  0
LINE
  8
0
 62
     0
 10
136.721
 20
88.4936
 30
0.0
 11
135.92
 21
88.4936
 31
0.0
  0
LINE
  8
0
 62
     0
 10
135.92
 20
88.4936
 30
0.0
 11
135.92
 21
89.093
 31
0.0
  0
LINE
  8
0
 62
     0
 10
135.92
 20
89.093
 30
0.0
 11
121.919
 21
89.093
 31
0.0
  0
LINE
  8
0
 62
     0
 10
140.971
 20
89.093
 30
0.0
 11
140.971
 21
88.4936
 31
0.0
  0
LINE
  8
0
 62
     0
 10
140.971
 20
88.4936
 30
0.0
 11
140.17
 21
88.4936
 31
0.0
  0
LINE
  8
0
 62
     0
 10
140.17
 20
88.4936
 30
0.0
 11
140.17
 21
75.6931
 31
0.0
  0
LINE
  8
0
 62
     0
 10
140.17
 20
75.6931
 30
0.0
 11
140.971
 21
75.6931
 31
0.0
  0
LINE
  8
0
 62
     0
 10
140.971
 20
75.6931
 30
0.0
 11
140.971
 21
75.0933
 31
0.0
  0
LINE
  8
0
 62
     0
 10
140.971
 20
75.0933
 30
0.0
 11
154.97
 21
75.0933
 31
0.0
  0
LINE
  8
0
 62
     0
 10
154.97
 20
75.0933
 30
0.0
 11
154.97
 21
75.6931
 31
0.0
  0
LINE
  8
0
 62
     0
 10
154.97
 20
75.6931
 30
0.0
 11
155.771
 21
75.6931
 31
0.0
  0
LINE
  8
0
 62
     0
 10
155.771
 20
75.6931
 30
0.0
 11
155.771
 21
88.4936
 31
0.0
  0
LINE
  8
0
 62
     0
 10
155.771
 20
88.4936
 30
0.0
 11
154.97
 21
88.4936
 31
0.0
  0
LINE
  8
0
 62
     0
 10
154.97
 20
88.4936
 30
0.0
 11
154.97
 21
89.093
 31
0.0
  0
LINE
  8
0
 62
     0
 10
154.97
 20
89.093
 30
0.0
 11
140.971
 21
89.093
 31
0.0
  0
LINE
  8
0
 62
     0
 10
160.021
 20
89.093
 30
0.0
 11
160.021
 21
88.4936
 31
0.0
  0
LINE
  8
0
 62
     0
 10
160.021
 20
88.4936
 30
0.0
 11
159.22
 21
88.4936
 31
0.0
  0
LINE
  8
0
 62
     0
 10
159.22
 20
88.4936
 30
0.0
 11
159.22
 21
75.6931
 31
0.0
  0
LINE
  8
0
 62
     0
 10
159.22
 20
75.6931
 30
0.0
 11
160.021
 21
75.6931
 31
0.0
  0
LINE
  8
0
 62
     0
 10
160.021
 20
75.6931
 30
0.0
 11
160.021
 21
75.0933
 31
0.0
  0
LINE
  8
0
 62
     0
 10
160.021
 20
75.0933
 30
0.0
 11
174.02
 21
75.0933
 31
0.0
  0
LINE
  8
0
 62
     0
 10
174.02
 20
75.0933
 30
0.0
 11
174.02
 21
75.6931
 31
0.0
  0
LINE
  8
0
 62
     0
 10
174.02
 20
75.6931
 30
0.0
 11
174.821
 21
75.6931
 31
0.0
  0
LINE
  8
0
 62
     0
 10
174.821
 20
75.6931
 30
0.0
 11
174.821
 21
88.4936
 31
0.0
  0
LINE
  8
0
 62
     0
 10
174.821
 20
88.4936
 30
0.0
 11
174.02
 21
88.4936
 31
0.0
  0
LINE
  8
0
 62
     0
 10
174.02
 20
88.4936
 30
0.0
 11
174.02
 21
89.093
 31
0.0
  0
LINE
  8
0
 62
     0
 10
174.02
 20
89.093
 30
0.0
 11
160.021
 21
89.093
 31
0.0
  0
LINE
  8
0
 62
     0
 10
179.071
 20
89.093
 30
0.0
 11
179.071
 21
88.4936
 31
0.0
  0
LINE
  8
0
 62
     0
 10
179.071
 20
88.4936
 30
0.0
 11
178.27
 21
88.4936
 31
0.0
  0
LINE
  8
0
 62
     0
 10
178.27
 20
88.4936
 30
0.0
 11
178.27
 21
75.6931
 31
0.0
  0
LINE
  8
0
 62
     0
 10
178.27
 20
75.6931
 30
0.0
 11
179.071
 21
75.6931
 31
0.0
  0
LINE
  8
0
 62
     0
 10
179.071
 20
75.6931
 30
0.0
 11
179.071
 21
75.0933
 31
0.0
  0
LINE
  8
0
 62
     0
 10
179.071
 20
75.0933
 30
0.0
 11
193.07
 21
75.0933
 31
0.0
  0
LINE
  8
0
 62
     0
 10
193.07
 20
75.0933
 30
0.0
 11
193.07
 21
75.6931
 31
0.0
  0
LINE
  8
0
 62
     0
 10
193.07
 20
75.6931
 30
0.0
 11
193.871
 21
75.6931
 31
0.0
  0
LINE
  8
0
 62
     0
 10
193.871
 20
75.6931
 30
0.0
 11
193.871
 21
88.4936
 31
0.0
  0
LINE
  8
0
 62
     0
 10
193.871
 20
88.4936
 30
0.0
 11
193.07
 21
88.4936
 31
0.0
  0
LINE
  8
0
 62
     0
 10
193.07
 20
88.4936
 30
0.0
 11
193.07
 21
89.093
 31
0.0
  0
LINE
  8
0
 62
     0
 10
193.07
 20
89.093
 30
0.0
 11
179.071
 21
89.093
 31
0.0
  0
LINE
  8
0
 62
     0
 10
198.121
 20
89.093
 30
0.0
 11
198.121
 21
88.4936
 31
0.0
  0
LINE
  8
0
 62
     0
 10
198.121
 20
88.4936
 30
0.0
 11
197.32
 21
88.4936
 31
0.0
  0
LINE
  8
0
 62
     0
 10
197.32
 20
88.4936
 30
0.0
 11
197.32
 21
75.6931
 31
0.0
  0
LINE
  8
0
 62
     0
 10
197.32
 20
75.6931
 30
0.0
 11
198.121
 21
75.6931
 31
0.0
  0
LINE
  8
0
 62
     0
 10
198.121
 20
75.6931
 30
0.0
 11
198.121
 21
75.0933
 31
0.0
  0
LINE
  8
0
 62
     0
 10
198.121
 20
75.0933
 30
0.0
 11
212.12
 21
75.0933
 31
0.0
  0
LINE
  8
0
 62
     0
 10
212.12
 20
75.0933
 30
0.0
 11
212.12
 21
75.6931
 31
0.0
  0
LINE
  8
0
 62
     0
 10
212.12
 20
75.6931
 30
0.0
 11
212.921
 21
75.6931
 31
0.0
  0
LINE
  8
0
 62
     0
 10
212.921
 20
75.6931
 30
0.0
 11
212.921
 21
88.4936
 31
0.0
  0
LINE
  8
0
 62
     0
 10
212.921
 20
88.4936
 30
0.0
 11
212.12
 21
88.4936
 31
0.0
  0
LINE
  8
0
 62
     0
 10
212.12
 20
88.4936
 30
0.0
 11
212.12
 21
89.093
 31
0.0
  0
LINE
  8
0
 62
     0
 10
212.12
 20
89.093
 30
0.0
 11
198.121
 21
89.093
 31
0.0
  0
LINE
  8
0
 62
     0
 10
217.171
 20
89.093
 30
0.0
 11
217.171
 21
88.4936
 31
0.0
  0
LINE
  8
0
 62
     0
 10
217.171
 20
88.4936
 30
0.0
 11
216.37
 21
88.4936
 31
0.0
  0
LINE
  8
0
 62
     0
 10
216.37
 20
88.4936
 30
0.0
 11
216.37
 21
75.6931
 31
0.0
  0
LINE
  8
0
 62
     0
 10
216.37
 20
75.6931
 30
0.0
 11
217.171
 21
75.6931
 31
0.0
  0
LINE
  8
0
 62
     0
 10
217.171
 20
75.6931
 30
0.0
 11
217.171
 21
75.0933
 31
0.0
  0
LINE
  8
0
 62
     0
 10
217.171
 20
75.0933
 30
0.0
 11
231.17
 21
75.0933
 31
0.0
  0
LINE
  8
0
 62
     0
 10
231.17
 20
75.0933
 30
0.0
 11
231.17
 21
75.6931
 31
0.0
  0
LINE
  8
0
 62
     0
 10
231.17
 20
75.6931
 30
0.0
 11
231.971
 21
75.6931
 31
0.0
  0
LINE
  8
0
 62
     0
 10
231.971
 20
75.6931
 30
0.0
 11
231.971
 21
88.4936
 31
0.0
  0
LINE
  8
0
 62
     0
 10
231.971
 20
88.4936
 30
0.0
 11
231.17
 21
88.4936
 31
0.0
  0
LINE
  8
0
 62
     0
 10
231.17
 20
88.4936
 30
0.0
 11
231.17
 21
89.093
 31
0.0
  0
LINE
  8
0
 62
     0
 10
231.17
 20
89.093
 30
0.0
 11
217.171
 21
89.093
 31
0.0
  0
LINE
  8
0
 62
     0
 10
236.221
 20
89.093
 30
0.0
 11
236.221
 21
88.4936
 31
0.0
  0
LINE
  8
0
 62
     0
 10
236.221
 20
88.4936
 30
0.0
 11
235.42
 21
88.4936
 31
0.0
  0
LINE
  8
0
 62
     0
 10
235.42
 20
88.4936
 30
0.0
 11
235.42
 21
75.6931
 31
0.0
  0
LINE
  8
0
 62
     0
 10
235.42
 20
75.6931
 30
0.0
 11
236.221
 21
75.6931
 31
0.0
  0
LINE
  8
0
 62
     0
 10
236.221
 20
75.6931
 30
0.0
 11
236.221
 21
75.0933
 31
0.0
  0
LINE
  8
0
 62
     0
 10
236.221
 20
75.0933
 30
0.0
 11
250.22
 21
75.0933
 31
0.0
  0
LINE
  8
0
 62
     0
 10
250.22
 20
75.0933
 30
0.0
 11
250.22
 21
75.6931
 31
0.0
  0
LINE
  8
0
 62
     0
 10
250.22
 20
75.6931
 30
0.0
 11
251.021
 21
75.6931
 31
0.0
  0
LINE
  8
0
 62
     0
 10
251.021
 20
75.6931
 30
0.0
 11
251.021
 21
88.4936
 31
0.0
  0
LINE
  8
0
 62
     0
 10
251.021
 20
88.4936
 30
0.0
 11
250.22
 21
88.4936
 31
0.0
  0
LINE
  8
0
 62
     0
 10
250.22
 20
88.4936
 30
0.0
 11
250.22
 21
89.093
 31
0.0
  0
LINE
  8
0
 62
     0
 10
250.22
 20
89.093
 30
0.0
 11
236.221
 21
89.093
 31
0.0
  0
LINE
  8
0
 62
     0
 10
7.10103
 20
103.641
 30
0.0
 11
6.65455
 21
103.414
 31
0.0
  0
LINE
  8
0
 62
     0
 10
6.65455
 20
103.414
 30
0.0
 11
6.3004
 21
103.059
 31
0.0
  0
LINE
  8
0
 62
     0
 10
6.3004
 20
103.059
 30
0.0
 11
6.073
 21
102.613
 31
0.0
  0
LINE
  8
0
 62
     0
 10
6.073
 20
102.613
 30
0.0
 11
5.99585
 21
102.118
 31
0.0
  0
LINE
  8
0
 62
     0
 10
5.99585
 20
102.118
 30
0.0
 11
6.073
 21
101.625
 31
0.0
  0
LINE
  8
0
 62
     0
 10
6.073
 20
101.625
 30
0.0
 11
6.3004
 21
101.178
 31
0.0
  0
LINE
  8
0
 62
     0
 10
6.3004
 20
101.178
 30
0.0
 11
6.65455
 21
100.824
 31
0.0
  0
LINE
  8
0
 62
     0
 10
6.65455
 20
100.824
 30
0.0
 11
7.10103
 21
100.597
 31
0.0
  0
LINE
  8
0
 62
     0
 10
7.10103
 20
100.597
 30
0.0
 11
7.59576
 21
100.518
 31
0.0
  0
LINE
  8
0
 62
     0
 10
7.59576
 20
100.518
 30
0.0
 11
8.08909
 21
100.597
 31
0.0
  0
LINE
  8
0
 62
     0
 10
8.08909
 20
100.597
 30
0.0
 11
8.53556
 21
100.824
 31
0.0
  0
LINE
  8
0
 62
     0
 10
8.53556
 20
100.824
 30
0.0
 11
8.88972
 21
101.178
 31
0.0
  0
LINE
  8
0
 62
     0
 10
8.88972
 20
101.178
 30
0.0
 11
9.11712
 21
101.625
 31
0.0
  0
LINE
  8
0
 62
     0
 10
9.11712
 20
101.625
 30
0.0
 11
9.19565
 21
102.118
 31
0.0
  0
LINE
  8
0
 62
     0
 10
9.19565
 20
102.118
 30
0.0
 11
9.11712
 21
102.613
 31
0.0
  0
LINE
  8
0
 62
     0
 10
9.11712
 20
102.613
 30
0.0
 11
8.88972
 21
103.059
 31
0.0
  0
LINE
  8
0
 62
     0
 10
8.88972
 20
103.059
 30
0.0
 11
8.53556
 21
103.414
 31
0.0
  0
LINE
  8
0
 62
     0
 10
8.53556
 20
103.414
 30
0.0
 11
8.08909
 21
103.641
 31
0.0
  0
LINE
  8
0
 62
     0
 10
8.08909
 20
103.641
 30
0.0
 11
7.59576
 21
103.718
 31
0.0
  0
LINE
  8
0
 62
     0
 10
7.59576
 20
103.718
 30
0.0
 11
7.10103
 21
103.641
 31
0.0
  0
LINE
  8
0
 62
     0
 10
128.426
 20
103.641
 30
0.0
 11
127.981
 21
103.414
 31
0.0
  0
LINE
  8
0
 62
     0
 10
127.981
 20
103.414
 30
0.0
 11
127.627
 21
103.059
 31
0.0
  0
LINE
  8
0
 62
     0
 10
127.627
 20
103.059
 30
0.0
 11
127.398
 21
102.613
 31
0.0
  0
LINE
  8
0
 62
     0
 10
127.398
 20
102.613
 30
0.0
 11
127.321
 21
102.118
 31
0.0
  0
LINE
  8
0
 62
     0
 10
127.321
 20
102.118
 30
0.0
 11
127.398
 21
101.625
 31
0.0
  0
LINE
  8
0
 62
     0
 10
127.398
 20
101.625
 30
0.0
 11
127.627
 21
101.178
 31
0.0
  0
LINE
  8
0
 62
     0
 10
127.627
 20
101.178
 30
0.0
 11
127.981
 21
100.824
 31
0.0
  0
LINE
  8
0
 62
     0
 10
127.981
 20
100.824
 30
0.0
 11
128.426
 21
100.597
 31
0.0
  0
LINE
  8
0
 62
     0
 10
128.426
 20
100.597
 30
0.0
 11
128.921
 21
100.518
 31
0.0
  0
LINE
  8
0
 62
     0
 10
128.921
 20
100.518
 30
0.0
 11
129.414
 21
100.597
 31
0.0
  0
LINE
  8
0
 62
     0
 10
129.414
 20
100.597
 30
0.0
 11
129.861
 21
100.824
 31
0.0
  0
LINE
  8
0
 62
     0
 10
129.861
 20
100.824
 30
0.0
 11
130.215
 21
101.178
 31
0.0
  0
LINE
  8
0
 62
     0
 10
130.215
 20
101.178
 30
0.0
 11
130.442
 21
101.625
 31
0.0
  0
LINE
  8
0
 62
     0
 10
130.442
 20
101.625
 30
0.0
 11
130.521
 21
102.118
 31
0.0
  0
LINE
  8
0
 62
     0
 10
130.521
 20
102.118
 30
0.0
 11
130.442
 21
102.613
 31
0.0
  0
LINE
  8
0
 62
     0
 10
130.442
 20
102.613
 30
0.0
 11
130.215
 21
103.059
 31
0.0
  0
LINE
  8
0
 62
     0
 10
130.215
 20
103.059
 30
0.0
 11
129.861
 21
103.414
 31
0.0
  0
LINE
  8
0
 62
     0
 10
129.861
 20
103.414
 30
0.0
 11
129.414
 21
103.641
 31
0.0
  0
LINE
  8
0
 62
     0
 10
129.414
 20
103.641
 30
0.0
 11
128.921
 21
103.718
 31
0.0
  0
LINE
  8
0
 62
     0
 10
128.921
 20
103.718
 30
0.0
 11
128.426
 21
103.641
 31
0.0
  0
LINE
  8
0
 62
     0
 10
249.751
 20
103.641
 30
0.0
 11
249.305
 21
103.414
 31
0.0
  0
LINE
  8
0
 62
     0
 10
249.305
 20
103.414
 30
0.0
 11
248.951
 21
103.059
 31
0.0
  0
LINE
  8
0
 62
     0
 10
248.951
 20
103.059
 30
0.0
 11
248.725
 21
102.613
 31
0.0
  0
LINE
  8
0
 62
     0
 10
248.725
 20
102.613
 30
0.0
 11
248.646
 21
102.118
 31
0.0
  0
LINE
  8
0
 62
     0
 10
248.646
 20
102.118
 30
0.0
 11
248.725
 21
101.625
 31
0.0
  0
LINE
  8
0
 62
     0
 10
248.725
 20
101.625
 30
0.0
 11
248.951
 21
101.178
 31
0.0
  0
LINE
  8
0
 62
     0
 10
248.951
 20
101.178
 30
0.0
 11
249.305
 21
100.824
 31
0.0
  0
LINE
  8
0
 62
     0
 10
249.305
 20
100.824
 30
0.0
 11
249.751
 21
100.597
 31
0.0
  0
LINE
  8
0
 62
     0
 10
249.751
 20
100.597
 30
0.0
 11
250.246
 21
100.518
 31
0.0
  0
LINE
  8
0
 62
     0
 10
250.246
 20
100.518
 30
0.0
 11
250.741
 21
100.597
 31
0.0
  0
LINE
  8
0
 62
     0
 10
250.741
 20
100.597
 30
0.0
 11
251.186
 21
100.824
 31
0.0
  0
LINE
  8
0
 62
     0
 10
251.186
 20
100.824
 30
0.0
 11
251.54
 21
101.178
 31
0.0
  0
LINE
  8
0
 62
     0
 10
251.54
 20
101.178
 30
0.0
 11
251.768
 21
101.625
 31
0.0
  0
LINE
  8
0
 62
     0
 10
251.768
 20
101.625
 30
0.0
 11
251.846
 21
102.118
 31
0.0
  0
LINE
  8
0
 62
     0
 10
251.846
 20
102.118
 30
0.0
 11
251.768
 21
102.613
 31
0.0
  0
LINE
  8
0
 62
     0
 10
251.768
 20
102.613
 30
0.0
 11
251.54
 21
103.059
 31
0.0
  0
LINE
  8
0
 62
     0
 10
251.54
 20
103.059
 30
0.0
 11
251.186
 21
103.414
 31
0.0
  0
LINE
  8
0
 62
     0
 10
251.186
 20
103.414
 30
0.0
 11
250.741
 21
103.641
 31
0.0
  0
LINE
  8
0
 62
     0
 10
250.741
 20
103.641
 30
0.0
 11
250.246
 21
103.718
 31
0.0
  0
LINE
  8
0
 62
     0
 10
250.246
 20
103.718
 30
0.0
 11
249.751
 21
103.641
 31
0.0
  0
ENDSEC
  0
EOF
