  0
SECTION
  2
HEADER
  9
$ACADVER
  1
AC1009
  9
$FILLMODE
 70
 0
  9
$SPLFRAME
 70
 1
  9
$EXTMIN
 10
0
 20
0
 30
0.0
  9
$EXTMAX
 10
1058.33
 20
1058.33
 30
0.0
  0
ENDSEC
  0
SECTION
  2
TABLES
  0
TABLE
  2
LAYER
 70
1
  0
LAYER
  2
0
 70
     0
 62
     7
  6
CONTINUOUS
  0
ENDTAB
  0
ENDSEC
  0
SECTION
  2
ENTITIES
  0
LINE
  8
0
 62
     0
 10
245.747
 20
96.5659
 30
0.0
 11
246.138
 21
96.551
 31
0.0
  0
LINE
  8
0
 62
     0
 10
246.138
 20
96.551
 30
0.0
 11
246.528
 21
96.5041
 31
0.0
  0
LINE
  8
0
 62
     0
 10
246.528
 20
96.5041
 30
0.0
 11
246.914
 21
96.4283
 31
0.0
  0
LINE
  8
0
 62
     0
 10
246.914
 20
96.4283
 30
0.0
 11
247.292
 21
96.3221
 31
0.0
  0
LINE
  8
0
 62
     0
 10
247.292
 20
96.3221
 30
0.0
 11
247.66
 21
96.1856
 31
0.0
  0
LINE
  8
0
 62
     0
 10
247.66
 20
96.1856
 30
0.0
 11
248.015
 21
96.0219
 31
0.0
  0
LINE
  8
0
 62
     0
 10
248.015
 20
96.0219
 30
0.0
 11
248.358
 21
95.8303
 31
0.0
  0
LINE
  8
0
 62
     0
 10
248.358
 20
95.8303
 30
0.0
 11
248.685
 21
95.6109
 31
0.0
  0
LINE
  8
0
 62
     0
 10
248.685
 20
95.6109
 30
0.0
 11
248.994
 21
95.3685
 31
0.0
  0
LINE
  8
0
 62
     0
 10
248.994
 20
95.3685
 30
0.0
 11
249.282
 21
95.1011
 31
0.0
  0
LINE
  8
0
 62
     0
 10
249.282
 20
95.1011
 30
0.0
 11
249.549
 21
94.8133
 31
0.0
  0
LINE
  8
0
 62
     0
 10
249.549
 20
94.8133
 30
0.0
 11
249.791
 21
94.5046
 31
0.0
  0
LINE
  8
0
 62
     0
 10
249.791
 20
94.5046
 30
0.0
 11
250.009
 21
94.1793
 31
0.0
  0
LINE
  8
0
 62
     0
 10
250.009
 20
94.1793
 30
0.0
 11
250.202
 21
93.8361
 31
0.0
  0
LINE
  8
0
 62
     0
 10
250.202
 20
93.8361
 30
0.0
 11
250.366
 21
93.4791
 31
0.0
  0
LINE
  8
0
 62
     0
 10
250.366
 20
93.4791
 30
0.0
 11
250.501
 21
93.1115
 31
0.0
  0
LINE
  8
0
 62
     0
 10
250.501
 20
93.1115
 30
0.0
 11
250.607
 21
92.7336
 31
0.0
  0
LINE
  8
0
 62
     0
 10
250.607
 20
92.7336
 30
0.0
 11
250.685
 21
92.3491
 31
0.0
  0
LINE
  8
0
 62
     0
 10
250.685
 20
92.3491
 30
0.0
 11
250.73
 21
91.9593
 31
0.0
  0
LINE
  8
0
 62
     0
 10
250.73
 20
91.9593
 30
0.0
 11
250.746
 21
91.5652
 31
0.0
  0
LINE
  8
0
 62
     0
 10
250.746
 20
91.5652
 30
0.0
 11
250.746
 21
5.36469
 31
0.0
  0
LINE
  8
0
 62
     0
 10
250.746
 20
5.36469
 30
0.0
 11
250.73
 21
4.97198
 31
0.0
  0
LINE
  8
0
 62
     0
 10
250.73
 20
4.97198
 30
0.0
 11
250.685
 21
4.58198
 31
0.0
  0
LINE
  8
0
 62
     0
 10
250.685
 20
4.58198
 30
0.0
 11
250.607
 21
4.19749
 31
0.0
  0
LINE
  8
0
 62
     0
 10
250.607
 20
4.19749
 30
0.0
 11
250.501
 21
3.81991
 31
0.0
  0
LINE
  8
0
 62
     0
 10
250.501
 20
3.81991
 30
0.0
 11
250.366
 21
3.45199
 31
0.0
  0
LINE
  8
0
 62
     0
 10
250.366
 20
3.45199
 30
0.0
 11
250.202
 21
3.09507
 31
0.0
  0
LINE
  8
0
 62
     0
 10
250.202
 20
3.09507
 30
0.0
 11
250.009
 21
2.75194
 31
0.0
  0
LINE
  8
0
 62
     0
 10
250.009
 20
2.75194
 30
0.0
 11
249.791
 21
2.42673
 31
0.0
  0
LINE
  8
0
 62
     0
 10
249.791
 20
2.42673
 30
0.0
 11
249.549
 21
2.11805
 31
0.0
  0
LINE
  8
0
 62
     0
 10
249.549
 20
2.11805
 30
0.0
 11
249.282
 21
1.83003
 31
0.0
  0
LINE
  8
0
 62
     0
 10
249.282
 20
1.83003
 30
0.0
 11
248.994
 21
1.5627
 31
0.0
  0
LINE
  8
0
 62
     0
 10
248.994
 20
1.5627
 30
0.0
 11
248.685
 21
1.32016
 31
0.0
  0
LINE
  8
0
 62
     0
 10
248.685
 20
1.32016
 30
0.0
 11
248.358
 21
1.10105
 31
0.0
  0
LINE
  8
0
 62
     0
 10
248.358
 20
1.10105
 30
0.0
 11
248.015
 21
0.909507
 31
0.0
  0
LINE
  8
0
 62
     0
 10
248.015
 20
0.909507
 30
0.0
 11
247.66
 21
0.745518
 31
0.0
  0
LINE
  8
0
 62
     0
 10
247.66
 20
0.745518
 30
0.0
 11
247.292
 21
0.609092
 31
0.0
  0
LINE
  8
0
 62
     0
 10
247.292
 20
0.609092
 30
0.0
 11
246.914
 21
0.502984
 31
0.0
  0
LINE
  8
0
 62
     0
 10
246.914
 20
0.502984
 30
0.0
 11
246.528
 21
0.427193
 31
0.0
  0
LINE
  8
0
 62
     0
 10
246.528
 20
0.427193
 30
0.0
 11
246.138
 21
0.38034
 31
0.0
  0
LINE
  8
0
 62
     0
 10
246.138
 20
0.38034
 30
0.0
 11
245.747
 21
0.365181
 31
0.0
  0
LINE
  8
0
 62
     0
 10
245.747
 20
0.365181
 30
0.0
 11
5.09598
 21
0.365181
 31
0.0
  0
LINE
  8
0
 62
     0
 10
5.09598
 20
0.365181
 30
0.0
 11
4.70186
 21
0.38034
 31
0.0
  0
LINE
  8
0
 62
     0
 10
4.70186
 20
0.38034
 30
0.0
 11
4.3119
 21
0.427193
 31
0.0
  0
LINE
  8
0
 62
     0
 10
4.3119
 20
0.427193
 30
0.0
 11
3.9274
 21
0.502984
 31
0.0
  0
LINE
  8
0
 62
     0
 10
3.9274
 20
0.502984
 30
0.0
 11
3.54983
 21
0.609092
 31
0.0
  0
LINE
  8
0
 62
     0
 10
3.54983
 20
0.609092
 30
0.0
 11
3.18189
 21
0.745518
 31
0.0
  0
LINE
  8
0
 62
     0
 10
3.18189
 20
0.745518
 30
0.0
 11
2.82498
 21
0.909507
 31
0.0
  0
LINE
  8
0
 62
     0
 10
2.82498
 20
0.909507
 30
0.0
 11
2.48185
 21
1.10105
 31
0.0
  0
LINE
  8
0
 62
     0
 10
2.48185
 20
1.10105
 30
0.0
 11
2.15663
 21
1.32016
 31
0.0
  0
LINE
  8
0
 62
     0
 10
2.15663
 20
1.32016
 30
0.0
 11
1.84795
 21
1.5627
 31
0.0
  0
LINE
  8
0
 62
     0
 10
1.84795
 20
1.5627
 30
0.0
 11
1.55994
 21
1.83003
 31
0.0
  0
LINE
  8
0
 62
     0
 10
1.55994
 20
1.83003
 30
0.0
 11
1.2926
 21
2.11805
 31
0.0
  0
LINE
  8
0
 62
     0
 10
1.2926
 20
2.11805
 30
0.0
 11
1.05006
 21
2.42673
 31
0.0
  0
LINE
  8
0
 62
     0
 10
1.05006
 20
2.42673
 30
0.0
 11
0.830957
 21
2.75194
 31
0.0
  0
LINE
  8
0
 62
     0
 10
0.830957
 20
2.75194
 30
0.0
 11
0.63941
 21
3.09507
 31
0.0
  0
LINE
  8
0
 62
     0
 10
0.63941
 20
3.09507
 30
0.0
 11
0.475424
 21
3.45199
 31
0.0
  0
LINE
  8
0
 62
     0
 10
0.475424
 20
3.45199
 30
0.0
 11
0.338998
 21
3.81991
 31
0.0
  0
LINE
  8
0
 62
     0
 10
0.338998
 20
3.81991
 30
0.0
 11
0.232888
 21
4.19749
 31
0.0
  0
LINE
  8
0
 62
     0
 10
0.232888
 20
4.19749
 30
0.0
 11
0.157097
 21
4.58198
 31
0.0
  0
LINE
  8
0
 62
     0
 10
0.157097
 20
4.58198
 30
0.0
 11
0.110243
 21
4.97198
 31
0.0
  0
LINE
  8
0
 62
     0
 10
0.110243
 20
4.97198
 30
0.0
 11
0.0950846
 21
5.36607
 31
0.0
  0
LINE
  8
0
 62
     0
 10
0.0950846
 20
5.36607
 30
0.0
 11
0.0950846
 21
91.5652
 31
0.0
  0
LINE
  8
0
 62
     0
 10
0.0950846
 20
91.5652
 30
0.0
 11
0.110243
 21
91.9593
 31
0.0
  0
LINE
  8
0
 62
     0
 10
0.110243
 20
91.9593
 30
0.0
 11
0.157097
 21
92.3491
 31
0.0
  0
LINE
  8
0
 62
     0
 10
0.157097
 20
92.3491
 30
0.0
 11
0.232888
 21
92.7336
 31
0.0
  0
LINE
  8
0
 62
     0
 10
0.232888
 20
92.7336
 30
0.0
 11
0.338998
 21
93.1115
 31
0.0
  0
LINE
  8
0
 62
     0
 10
0.338998
 20
93.1115
 30
0.0
 11
0.475424
 21
93.4791
 31
0.0
  0
LINE
  8
0
 62
     0
 10
0.475424
 20
93.4791
 30
0.0
 11
0.63941
 21
93.8361
 31
0.0
  0
LINE
  8
0
 62
     0
 10
0.63941
 20
93.8361
 30
0.0
 11
0.830957
 21
94.1793
 31
0.0
  0
LINE
  8
0
 62
     0
 10
0.830957
 20
94.1793
 30
0.0
 11
1.05006
 21
94.5046
 31
0.0
  0
LINE
  8
0
 62
     0
 10
1.05006
 20
94.5046
 30
0.0
 11
1.2926
 21
94.8133
 31
0.0
  0
LINE
  8
0
 62
     0
 10
1.2926
 20
94.8133
 30
0.0
 11
1.55994
 21
95.1011
 31
0.0
  0
LINE
  8
0
 62
     0
 10
1.55994
 20
95.1011
 30
0.0
 11
1.84795
 21
95.3685
 31
0.0
  0
LINE
  8
0
 62
     0
 10
1.84795
 20
95.3685
 30
0.0
 11
2.15663
 21
95.6109
 31
0.0
  0
LINE
  8
0
 62
     0
 10
2.15663
 20
95.6109
 30
0.0
 11
2.48185
 21
95.8303
 31
0.0
  0
LINE
  8
0
 62
     0
 10
2.48185
 20
95.8303
 30
0.0
 11
2.82498
 21
96.0219
 31
0.0
  0
LINE
  8
0
 62
     0
 10
2.82498
 20
96.0219
 30
0.0
 11
3.18189
 21
96.1856
 31
0.0
  0
LINE
  8
0
 62
     0
 10
3.18189
 20
96.1856
 30
0.0
 11
3.54983
 21
96.3221
 31
0.0
  0
LINE
  8
0
 62
     0
 10
3.54983
 20
96.3221
 30
0.0
 11
3.9274
 21
96.4283
 31
0.0
  0
LINE
  8
0
 62
     0
 10
3.9274
 20
96.4283
 30
0.0
 11
4.3119
 21
96.5041
 31
0.0
  0
LINE
  8
0
 62
     0
 10
4.3119
 20
96.5041
 30
0.0
 11
4.70186
 21
96.551
 31
0.0
  0
LINE
  8
0
 62
     0
 10
4.70186
 20
96.551
 30
0.0
 11
5.09598
 21
96.5659
 31
0.0
  0
LINE
  8
0
 62
     0
 10
5.09598
 20
96.5659
 30
0.0
 11
245.747
 21
96.5659
 31
0.0
  0
LINE
  8
0
 62
     0
 10
4.5999
 20
6.88605
 30
0.0
 11
4.15477
 21
6.66006
 31
0.0
  0
LINE
  8
0
 62
     0
 10
4.15477
 20
6.66006
 30
0.0
 11
3.80062
 21
6.3059
 31
0.0
  0
LINE
  8
0
 62
     0
 10
3.80062
 20
6.3059
 30
0.0
 11
3.57325
 21
5.85943
 31
0.0
  0
LINE
  8
0
 62
     0
 10
3.57325
 20
5.85943
 30
0.0
 11
3.49608
 21
5.36469
 31
0.0
  0
LINE
  8
0
 62
     0
 10
3.49608
 20
5.36469
 30
0.0
 11
3.57325
 21
4.86999
 31
0.0
  0
LINE
  8
0
 62
     0
 10
3.57325
 20
4.86999
 30
0.0
 11
3.80062
 21
4.42489
 31
0.0
  0
LINE
  8
0
 62
     0
 10
3.80062
 20
4.42489
 30
0.0
 11
4.15477
 21
4.07074
 31
0.0
  0
LINE
  8
0
 62
     0
 10
4.15477
 20
4.07074
 30
0.0
 11
4.5999
 21
3.84334
 31
0.0
  0
LINE
  8
0
 62
     0
 10
4.5999
 20
3.84334
 30
0.0
 11
5.09598
 21
3.76619
 31
0.0
  0
LINE
  8
0
 62
     0
 10
5.09598
 20
3.76619
 30
0.0
 11
5.58934
 21
3.84334
 31
0.0
  0
LINE
  8
0
 62
     0
 10
5.58934
 20
3.84334
 30
0.0
 11
6.03582
 21
4.07074
 31
0.0
  0
LINE
  8
0
 62
     0
 10
6.03582
 20
4.07074
 30
0.0
 11
6.38997
 21
4.42489
 31
0.0
  0
LINE
  8
0
 62
     0
 10
6.38997
 20
4.42489
 30
0.0
 11
6.61596
 21
4.86999
 31
0.0
  0
LINE
  8
0
 62
     0
 10
6.61596
 20
4.86999
 30
0.0
 11
6.6959
 21
5.36469
 31
0.0
  0
LINE
  8
0
 62
     0
 10
6.6959
 20
5.36469
 30
0.0
 11
6.61596
 21
5.85943
 31
0.0
  0
LINE
  8
0
 62
     0
 10
6.61596
 20
5.85943
 30
0.0
 11
6.38997
 21
6.3059
 31
0.0
  0
LINE
  8
0
 62
     0
 10
6.38997
 20
6.3059
 30
0.0
 11
6.03582
 21
6.66006
 31
0.0
  0
LINE
  8
0
 62
     0
 10
6.03582
 20
6.66006
 30
0.0
 11
5.58934
 21
6.88605
 31
0.0
  0
LINE
  8
0
 62
     0
 10
5.58934
 20
6.88605
 30
0.0
 11
5.09598
 21
6.96461
 31
0.0
  0
LINE
  8
0
 62
     0
 10
5.09598
 20
6.96461
 30
0.0
 11
4.5999
 21
6.88605
 31
0.0
  0
LINE
  8
0
 62
     0
 10
124.926
 20
6.88605
 30
0.0
 11
124.479
 21
6.66006
 31
0.0
  0
LINE
  8
0
 62
     0
 10
124.479
 20
6.66006
 30
0.0
 11
124.127
 21
6.3059
 31
0.0
  0
LINE
  8
0
 62
     0
 10
124.127
 20
6.3059
 30
0.0
 11
123.898
 21
5.85943
 31
0.0
  0
LINE
  8
0
 62
     0
 10
123.898
 20
5.85943
 30
0.0
 11
123.821
 21
5.36469
 31
0.0
  0
LINE
  8
0
 62
     0
 10
123.821
 20
5.36469
 30
0.0
 11
123.898
 21
4.86999
 31
0.0
  0
LINE
  8
0
 62
     0
 10
123.898
 20
4.86999
 30
0.0
 11
124.127
 21
4.42489
 31
0.0
  0
LINE
  8
0
 62
     0
 10
124.127
 20
4.42489
 30
0.0
 11
124.479
 21
4.07074
 31
0.0
  0
LINE
  8
0
 62
     0
 10
124.479
 20
4.07074
 30
0.0
 11
124.926
 21
3.84334
 31
0.0
  0
LINE
  8
0
 62
     0
 10
124.926
 20
3.84334
 30
0.0
 11
125.42
 21
3.76619
 31
0.0
  0
LINE
  8
0
 62
     0
 10
125.42
 20
3.76619
 30
0.0
 11
125.914
 21
3.84334
 31
0.0
  0
LINE
  8
0
 62
     0
 10
125.914
 20
3.84334
 30
0.0
 11
126.361
 21
4.07074
 31
0.0
  0
LINE
  8
0
 62
     0
 10
126.361
 20
4.07074
 30
0.0
 11
126.715
 21
4.42489
 31
0.0
  0
LINE
  8
0
 62
     0
 10
126.715
 20
4.42489
 30
0.0
 11
126.942
 21
4.86999
 31
0.0
  0
LINE
  8
0
 62
     0
 10
126.942
 20
4.86999
 30
0.0
 11
127.021
 21
5.36469
 31
0.0
  0
LINE
  8
0
 62
     0
 10
127.021
 20
5.36469
 30
0.0
 11
126.942
 21
5.85943
 31
0.0
  0
LINE
  8
0
 62
     0
 10
126.942
 20
5.85943
 30
0.0
 11
126.715
 21
6.3059
 31
0.0
  0
LINE
  8
0
 62
     0
 10
126.715
 20
6.3059
 30
0.0
 11
126.361
 21
6.66006
 31
0.0
  0
LINE
  8
0
 62
     0
 10
126.361
 20
6.66006
 30
0.0
 11
125.914
 21
6.88605
 31
0.0
  0
LINE
  8
0
 62
     0
 10
125.914
 20
6.88605
 30
0.0
 11
125.42
 21
6.96461
 31
0.0
  0
LINE
  8
0
 62
     0
 10
125.42
 20
6.96461
 30
0.0
 11
124.926
 21
6.88605
 31
0.0
  0
LINE
  8
0
 62
     0
 10
245.251
 20
6.88605
 30
0.0
 11
244.806
 21
6.66006
 31
0.0
  0
LINE
  8
0
 62
     0
 10
244.806
 20
6.66006
 30
0.0
 11
244.452
 21
6.3059
 31
0.0
  0
LINE
  8
0
 62
     0
 10
244.452
 20
6.3059
 30
0.0
 11
244.224
 21
5.85943
 31
0.0
  0
LINE
  8
0
 62
     0
 10
244.224
 20
5.85943
 30
0.0
 11
244.147
 21
5.36469
 31
0.0
  0
LINE
  8
0
 62
     0
 10
244.147
 20
5.36469
 30
0.0
 11
244.224
 21
4.86999
 31
0.0
  0
LINE
  8
0
 62
     0
 10
244.224
 20
4.86999
 30
0.0
 11
244.452
 21
4.42489
 31
0.0
  0
LINE
  8
0
 62
     0
 10
244.452
 20
4.42489
 30
0.0
 11
244.806
 21
4.07074
 31
0.0
  0
LINE
  8
0
 62
     0
 10
244.806
 20
4.07074
 30
0.0
 11
245.251
 21
3.84334
 31
0.0
  0
LINE
  8
0
 62
     0
 10
245.251
 20
3.84334
 30
0.0
 11
245.747
 21
3.76619
 31
0.0
  0
LINE
  8
0
 62
     0
 10
245.747
 20
3.76619
 30
0.0
 11
246.24
 21
3.84334
 31
0.0
  0
LINE
  8
0
 62
     0
 10
246.24
 20
3.84334
 30
0.0
 11
246.687
 21
4.07074
 31
0.0
  0
LINE
  8
0
 62
     0
 10
246.687
 20
4.07074
 30
0.0
 11
247.041
 21
4.42489
 31
0.0
  0
LINE
  8
0
 62
     0
 10
247.041
 20
4.42489
 30
0.0
 11
247.267
 21
4.86999
 31
0.0
  0
LINE
  8
0
 62
     0
 10
247.267
 20
4.86999
 30
0.0
 11
247.347
 21
5.36469
 31
0.0
  0
LINE
  8
0
 62
     0
 10
247.347
 20
5.36469
 30
0.0
 11
247.267
 21
5.85943
 31
0.0
  0
LINE
  8
0
 62
     0
 10
247.267
 20
5.85943
 30
0.0
 11
247.041
 21
6.3059
 31
0.0
  0
LINE
  8
0
 62
     0
 10
247.041
 20
6.3059
 30
0.0
 11
246.687
 21
6.66006
 31
0.0
  0
LINE
  8
0
 62
     0
 10
246.687
 20
6.66006
 30
0.0
 11
246.24
 21
6.88605
 31
0.0
  0
LINE
  8
0
 62
     0
 10
246.24
 20
6.88605
 30
0.0
 11
245.747
 21
6.96461
 31
0.0
  0
LINE
  8
0
 62
     0
 10
245.747
 20
6.96461
 30
0.0
 11
245.251
 21
6.88605
 31
0.0
  0
LINE
  8
0
 62
     0
 10
108.895
 20
26.8911
 30
0.0
 11
108.895
 21
25.8906
 31
0.0
  0
LINE
  8
0
 62
     0
 10
108.895
 20
25.8906
 30
0.0
 11
108.096
 21
25.8906
 31
0.0
  0
LINE
  8
0
 62
     0
 10
108.096
 20
25.8906
 30
0.0
 11
108.096
 21
22.7914
 31
0.0
  0
LINE
  8
0
 62
     0
 10
108.096
 20
22.7914
 30
0.0
 11
108.895
 21
22.7914
 31
0.0
  0
LINE
  8
0
 62
     0
 10
108.895
 20
22.7914
 30
0.0
 11
108.895
 21
22.1905
 31
0.0
  0
LINE
  8
0
 62
     0
 10
108.895
 20
22.1905
 30
0.0
 11
90.6956
 21
22.1905
 31
0.0
  0
LINE
  8
0
 62
     0
 10
90.6956
 20
22.1905
 30
0.0
 11
90.6956
 21
25.4207
 31
0.0
  0
LINE
  8
0
 62
     0
 10
90.6956
 20
25.4207
 30
0.0
 11
88.9702
 21
25.4207
 31
0.0
  0
LINE
  8
0
 62
     0
 10
88.9702
 20
25.4207
 30
0.0
 11
88.9702
 21
26.3412
 31
0.0
  0
LINE
  8
0
 62
     0
 10
88.9702
 20
26.3412
 30
0.0
 11
85.67
 21
26.3412
 31
0.0
  0
LINE
  8
0
 62
     0
 10
85.67
 20
26.3412
 30
0.0
 11
85.67
 21
25.4207
 31
0.0
  0
LINE
  8
0
 62
     0
 10
85.67
 20
25.4207
 30
0.0
 11
83.9459
 21
25.4207
 31
0.0
  0
LINE
  8
0
 62
     0
 10
83.9459
 20
25.4207
 30
0.0
 11
83.9459
 21
22.1905
 31
0.0
  0
LINE
  8
0
 62
     0
 10
83.9459
 20
22.1905
 30
0.0
 11
83.1204
 21
22.1905
 31
0.0
  0
LINE
  8
0
 62
     0
 10
83.1204
 20
22.1905
 30
0.0
 11
83.1204
 21
19.3904
 31
0.0
  0
LINE
  8
0
 62
     0
 10
83.1204
 20
19.3904
 30
0.0
 11
83.9459
 21
19.3904
 31
0.0
  0
LINE
  8
0
 62
     0
 10
83.9459
 20
19.3904
 30
0.0
 11
83.9459
 21
13.1203
 31
0.0
  0
LINE
  8
0
 62
     0
 10
83.9459
 20
13.1203
 30
0.0
 11
85.67
 21
13.1203
 31
0.0
  0
LINE
  8
0
 62
     0
 10
85.67
 20
13.1203
 30
0.0
 11
85.67
 21
12.1405
 31
0.0
  0
LINE
  8
0
 62
     0
 10
85.67
 20
12.1405
 30
0.0
 11
88.9702
 21
12.1405
 31
0.0
  0
LINE
  8
0
 62
     0
 10
88.9702
 20
12.1405
 30
0.0
 11
88.9702
 21
13.1203
 31
0.0
  0
LINE
  8
0
 62
     0
 10
88.9702
 20
13.1203
 30
0.0
 11
90.6956
 21
13.1203
 31
0.0
  0
LINE
  8
0
 62
     0
 10
90.6956
 20
13.1203
 30
0.0
 11
90.6956
 21
17.5907
 31
0.0
  0
LINE
  8
0
 62
     0
 10
90.6956
 20
17.5907
 30
0.0
 11
108.895
 21
17.5907
 31
0.0
  0
LINE
  8
0
 62
     0
 10
108.895
 20
17.5907
 30
0.0
 11
108.895
 21
16.9912
 31
0.0
  0
LINE
  8
0
 62
     0
 10
108.895
 20
16.9912
 30
0.0
 11
108.096
 21
16.9912
 31
0.0
  0
LINE
  8
0
 62
     0
 10
108.096
 20
16.9912
 30
0.0
 11
108.096
 21
13.8906
 31
0.0
  0
LINE
  8
0
 62
     0
 10
108.096
 20
13.8906
 30
0.0
 11
108.895
 21
13.8906
 31
0.0
  0
LINE
  8
0
 62
     0
 10
108.895
 20
13.8906
 30
0.0
 11
108.895
 21
12.8902
 31
0.0
  0
LINE
  8
0
 62
     0
 10
108.895
 20
12.8902
 30
0.0
 11
122.895
 21
12.8902
 31
0.0
  0
LINE
  8
0
 62
     0
 10
122.895
 20
12.8902
 30
0.0
 11
122.895
 21
13.8906
 31
0.0
  0
LINE
  8
0
 62
     0
 10
122.895
 20
13.8906
 30
0.0
 11
123.696
 21
13.8906
 31
0.0
  0
LINE
  8
0
 62
     0
 10
123.696
 20
13.8906
 30
0.0
 11
123.696
 21
16.9912
 31
0.0
  0
LINE
  8
0
 62
     0
 10
123.696
 20
16.9912
 30
0.0
 11
122.895
 21
16.9912
 31
0.0
  0
LINE
  8
0
 62
     0
 10
122.895
 20
16.9912
 30
0.0
 11
122.895
 21
17.5907
 31
0.0
  0
LINE
  8
0
 62
     0
 10
122.895
 20
17.5907
 30
0.0
 11
141.096
 21
17.5907
 31
0.0
  0
LINE
  8
0
 62
     0
 10
141.096
 20
17.5907
 30
0.0
 11
141.096
 21
13.1203
 31
0.0
  0
LINE
  8
0
 62
     0
 10
141.096
 20
13.1203
 30
0.0
 11
142.82
 21
13.1203
 31
0.0
  0
LINE
  8
0
 62
     0
 10
142.82
 20
13.1203
 30
0.0
 11
142.82
 21
12.1405
 31
0.0
  0
LINE
  8
0
 62
     0
 10
142.82
 20
12.1405
 30
0.0
 11
146.12
 21
12.1405
 31
0.0
  0
LINE
  8
0
 62
     0
 10
146.12
 20
12.1405
 30
0.0
 11
146.12
 21
13.1203
 31
0.0
  0
LINE
  8
0
 62
     0
 10
146.12
 20
13.1203
 30
0.0
 11
147.846
 21
13.1203
 31
0.0
  0
LINE
  8
0
 62
     0
 10
147.846
 20
13.1203
 30
0.0
 11
147.846
 21
19.3904
 31
0.0
  0
LINE
  8
0
 62
     0
 10
147.846
 20
19.3904
 30
0.0
 11
148.671
 21
19.3904
 31
0.0
  0
LINE
  8
0
 62
     0
 10
148.671
 20
19.3904
 30
0.0
 11
148.671
 21
22.1905
 31
0.0
  0
LINE
  8
0
 62
     0
 10
148.671
 20
22.1905
 30
0.0
 11
147.846
 21
22.1905
 31
0.0
  0
LINE
  8
0
 62
     0
 10
147.846
 20
22.1905
 30
0.0
 11
147.846
 21
25.4207
 31
0.0
  0
LINE
  8
0
 62
     0
 10
147.846
 20
25.4207
 30
0.0
 11
146.12
 21
25.4207
 31
0.0
  0
LINE
  8
0
 62
     0
 10
146.12
 20
25.4207
 30
0.0
 11
146.12
 21
26.3412
 31
0.0
  0
LINE
  8
0
 62
     0
 10
146.12
 20
26.3412
 30
0.0
 11
142.82
 21
26.3412
 31
0.0
  0
LINE
  8
0
 62
     0
 10
142.82
 20
26.3412
 30
0.0
 11
142.82
 21
25.4207
 31
0.0
  0
LINE
  8
0
 62
     0
 10
142.82
 20
25.4207
 30
0.0
 11
141.096
 21
25.4207
 31
0.0
  0
LINE
  8
0
 62
     0
 10
141.096
 20
25.4207
 30
0.0
 11
141.096
 21
22.1905
 31
0.0
  0
LINE
  8
0
 62
     0
 10
141.096
 20
22.1905
 30
0.0
 11
122.895
 21
22.1905
 31
0.0
  0
LINE
  8
0
 62
     0
 10
122.895
 20
22.1905
 30
0.0
 11
122.895
 21
22.7914
 31
0.0
  0
LINE
  8
0
 62
     0
 10
122.895
 20
22.7914
 30
0.0
 11
123.696
 21
22.7914
 31
0.0
  0
LINE
  8
0
 62
     0
 10
123.696
 20
22.7914
 30
0.0
 11
123.696
 21
25.8906
 31
0.0
  0
LINE
  8
0
 62
     0
 10
123.696
 20
25.8906
 30
0.0
 11
122.895
 21
25.8906
 31
0.0
  0
LINE
  8
0
 62
     0
 10
122.895
 20
25.8906
 30
0.0
 11
122.895
 21
26.8911
 31
0.0
  0
LINE
  8
0
 62
     0
 10
122.895
 20
26.8911
 30
0.0
 11
108.895
 21
26.8911
 31
0.0
  0
LINE
  8
0
 62
     0
 10
4.11896
 20
26.8911
 30
0.0
 11
4.11896
 21
25.8906
 31
0.0
  0
LINE
  8
0
 62
     0
 10
4.11896
 20
25.8906
 30
0.0
 11
3.3197
 21
25.8906
 31
0.0
  0
LINE
  8
0
 62
     0
 10
3.3197
 20
25.8906
 30
0.0
 11
3.3197
 21
22.7914
 31
0.0
  0
LINE
  8
0
 62
     0
 10
3.3197
 20
22.7914
 30
0.0
 11
4.11896
 21
22.7914
 31
0.0
  0
LINE
  8
0
 62
     0
 10
4.11896
 20
22.7914
 30
0.0
 11
4.11896
 21
16.9912
 31
0.0
  0
LINE
  8
0
 62
     0
 10
4.11896
 20
16.9912
 30
0.0
 11
3.3197
 21
16.9912
 31
0.0
  0
LINE
  8
0
 62
     0
 10
3.3197
 20
16.9912
 30
0.0
 11
3.3197
 21
13.8906
 31
0.0
  0
LINE
  8
0
 62
     0
 10
3.3197
 20
13.8906
 30
0.0
 11
4.11896
 21
13.8906
 31
0.0
  0
LINE
  8
0
 62
     0
 10
4.11896
 20
13.8906
 30
0.0
 11
4.11896
 21
12.8902
 31
0.0
  0
LINE
  8
0
 62
     0
 10
4.11896
 20
12.8902
 30
0.0
 11
18.1198
 21
12.8902
 31
0.0
  0
LINE
  8
0
 62
     0
 10
18.1198
 20
12.8902
 30
0.0
 11
18.1198
 21
13.8906
 31
0.0
  0
LINE
  8
0
 62
     0
 10
18.1198
 20
13.8906
 30
0.0
 11
18.9205
 21
13.8906
 31
0.0
  0
LINE
  8
0
 62
     0
 10
18.9205
 20
13.8906
 30
0.0
 11
18.9205
 21
16.9912
 31
0.0
  0
LINE
  8
0
 62
     0
 10
18.9205
 20
16.9912
 30
0.0
 11
18.1198
 21
16.9912
 31
0.0
  0
LINE
  8
0
 62
     0
 10
18.1198
 20
16.9912
 30
0.0
 11
18.1198
 21
22.7914
 31
0.0
  0
LINE
  8
0
 62
     0
 10
18.1198
 20
22.7914
 30
0.0
 11
18.9205
 21
22.7914
 31
0.0
  0
LINE
  8
0
 62
     0
 10
18.9205
 20
22.7914
 30
0.0
 11
18.9205
 21
25.8906
 31
0.0
  0
LINE
  8
0
 62
     0
 10
18.9205
 20
25.8906
 30
0.0
 11
18.1198
 21
25.8906
 31
0.0
  0
LINE
  8
0
 62
     0
 10
18.1198
 20
25.8906
 30
0.0
 11
18.1198
 21
26.8911
 31
0.0
  0
LINE
  8
0
 62
     0
 10
18.1198
 20
26.8911
 30
0.0
 11
4.11896
 21
26.8911
 31
0.0
  0
LINE
  8
0
 62
     0
 10
23.1703
 20
26.8911
 30
0.0
 11
23.1703
 21
25.8906
 31
0.0
  0
LINE
  8
0
 62
     0
 10
23.1703
 20
25.8906
 30
0.0
 11
22.3711
 21
25.8906
 31
0.0
  0
LINE
  8
0
 62
     0
 10
22.3711
 20
25.8906
 30
0.0
 11
22.3711
 21
22.7914
 31
0.0
  0
LINE
  8
0
 62
     0
 10
22.3711
 20
22.7914
 30
0.0
 11
23.1703
 21
22.7914
 31
0.0
  0
LINE
  8
0
 62
     0
 10
23.1703
 20
22.7914
 30
0.0
 11
23.1703
 21
16.9912
 31
0.0
  0
LINE
  8
0
 62
     0
 10
23.1703
 20
16.9912
 30
0.0
 11
22.3711
 21
16.9912
 31
0.0
  0
LINE
  8
0
 62
     0
 10
22.3711
 20
16.9912
 30
0.0
 11
22.3711
 21
13.8906
 31
0.0
  0
LINE
  8
0
 62
     0
 10
22.3711
 20
13.8906
 30
0.0
 11
23.1703
 21
13.8906
 31
0.0
  0
LINE
  8
0
 62
     0
 10
23.1703
 20
13.8906
 30
0.0
 11
23.1703
 21
12.8902
 31
0.0
  0
LINE
  8
0
 62
     0
 10
23.1703
 20
12.8902
 30
0.0
 11
37.1697
 21
12.8902
 31
0.0
  0
LINE
  8
0
 62
     0
 10
37.1697
 20
12.8902
 30
0.0
 11
37.1697
 21
13.8906
 31
0.0
  0
LINE
  8
0
 62
     0
 10
37.1697
 20
13.8906
 30
0.0
 11
37.9705
 21
13.8906
 31
0.0
  0
LINE
  8
0
 62
     0
 10
37.9705
 20
13.8906
 30
0.0
 11
37.9705
 21
16.9912
 31
0.0
  0
LINE
  8
0
 62
     0
 10
37.9705
 20
16.9912
 30
0.0
 11
37.1697
 21
16.9912
 31
0.0
  0
LINE
  8
0
 62
     0
 10
37.1697
 20
16.9912
 30
0.0
 11
37.1697
 21
22.7914
 31
0.0
  0
LINE
  8
0
 62
     0
 10
37.1697
 20
22.7914
 30
0.0
 11
37.9705
 21
22.7914
 31
0.0
  0
LINE
  8
0
 62
     0
 10
37.9705
 20
22.7914
 30
0.0
 11
37.9705
 21
25.8906
 31
0.0
  0
LINE
  8
0
 62
     0
 10
37.9705
 20
25.8906
 30
0.0
 11
37.1697
 21
25.8906
 31
0.0
  0
LINE
  8
0
 62
     0
 10
37.1697
 20
25.8906
 30
0.0
 11
37.1697
 21
26.8911
 31
0.0
  0
LINE
  8
0
 62
     0
 10
37.1697
 20
26.8911
 30
0.0
 11
23.1703
 21
26.8911
 31
0.0
  0
LINE
  8
0
 62
     0
 10
42.2204
 20
26.8911
 30
0.0
 11
42.2204
 21
25.8906
 31
0.0
  0
LINE
  8
0
 62
     0
 10
42.2204
 20
25.8906
 30
0.0
 11
41.4211
 21
25.8906
 31
0.0
  0
LINE
  8
0
 62
     0
 10
41.4211
 20
25.8906
 30
0.0
 11
41.4211
 21
22.7914
 31
0.0
  0
LINE
  8
0
 62
     0
 10
41.4211
 20
22.7914
 30
0.0
 11
42.2204
 21
22.7914
 31
0.0
  0
LINE
  8
0
 62
     0
 10
42.2204
 20
22.7914
 30
0.0
 11
42.2204
 21
16.9912
 31
0.0
  0
LINE
  8
0
 62
     0
 10
42.2204
 20
16.9912
 30
0.0
 11
41.4211
 21
16.9912
 31
0.0
  0
LINE
  8
0
 62
     0
 10
41.4211
 20
16.9912
 30
0.0
 11
41.4211
 21
13.8906
 31
0.0
  0
LINE
  8
0
 62
     0
 10
41.4211
 20
13.8906
 30
0.0
 11
42.2204
 21
13.8906
 31
0.0
  0
LINE
  8
0
 62
     0
 10
42.2204
 20
13.8906
 30
0.0
 11
42.2204
 21
12.8902
 31
0.0
  0
LINE
  8
0
 62
     0
 10
42.2204
 20
12.8902
 30
0.0
 11
56.2197
 21
12.8902
 31
0.0
  0
LINE
  8
0
 62
     0
 10
56.2197
 20
12.8902
 30
0.0
 11
56.2197
 21
13.8906
 31
0.0
  0
LINE
  8
0
 62
     0
 10
56.2197
 20
13.8906
 30
0.0
 11
57.0205
 21
13.8906
 31
0.0
  0
LINE
  8
0
 62
     0
 10
57.0205
 20
13.8906
 30
0.0
 11
57.0205
 21
16.9912
 31
0.0
  0
LINE
  8
0
 62
     0
 10
57.0205
 20
16.9912
 30
0.0
 11
56.2197
 21
16.9912
 31
0.0
  0
LINE
  8
0
 62
     0
 10
56.2197
 20
16.9912
 30
0.0
 11
56.2197
 21
22.7914
 31
0.0
  0
LINE
  8
0
 62
     0
 10
56.2197
 20
22.7914
 30
0.0
 11
57.0205
 21
22.7914
 31
0.0
  0
LINE
  8
0
 62
     0
 10
57.0205
 20
22.7914
 30
0.0
 11
57.0205
 21
25.8906
 31
0.0
  0
LINE
  8
0
 62
     0
 10
57.0205
 20
25.8906
 30
0.0
 11
56.2197
 21
25.8906
 31
0.0
  0
LINE
  8
0
 62
     0
 10
56.2197
 20
25.8906
 30
0.0
 11
56.2197
 21
26.8911
 31
0.0
  0
LINE
  8
0
 62
     0
 10
56.2197
 20
26.8911
 30
0.0
 11
42.2204
 21
26.8911
 31
0.0
  0
LINE
  8
0
 62
     0
 10
61.2704
 20
26.8911
 30
0.0
 11
61.2704
 21
25.8906
 31
0.0
  0
LINE
  8
0
 62
     0
 10
61.2704
 20
25.8906
 30
0.0
 11
60.4711
 21
25.8906
 31
0.0
  0
LINE
  8
0
 62
     0
 10
60.4711
 20
25.8906
 30
0.0
 11
60.4711
 21
22.7914
 31
0.0
  0
LINE
  8
0
 62
     0
 10
60.4711
 20
22.7914
 30
0.0
 11
61.2704
 21
22.7914
 31
0.0
  0
LINE
  8
0
 62
     0
 10
61.2704
 20
22.7914
 30
0.0
 11
61.2704
 21
16.9912
 31
0.0
  0
LINE
  8
0
 62
     0
 10
61.2704
 20
16.9912
 30
0.0
 11
60.4711
 21
16.9912
 31
0.0
  0
LINE
  8
0
 62
     0
 10
60.4711
 20
16.9912
 30
0.0
 11
60.4711
 21
13.8906
 31
0.0
  0
LINE
  8
0
 62
     0
 10
60.4711
 20
13.8906
 30
0.0
 11
61.2704
 21
13.8906
 31
0.0
  0
LINE
  8
0
 62
     0
 10
61.2704
 20
13.8906
 30
0.0
 11
61.2704
 21
12.8902
 31
0.0
  0
LINE
  8
0
 62
     0
 10
61.2704
 20
12.8902
 30
0.0
 11
75.2697
 21
12.8902
 31
0.0
  0
LINE
  8
0
 62
     0
 10
75.2697
 20
12.8902
 30
0.0
 11
75.2697
 21
13.8906
 31
0.0
  0
LINE
  8
0
 62
     0
 10
75.2697
 20
13.8906
 30
0.0
 11
76.0705
 21
13.8906
 31
0.0
  0
LINE
  8
0
 62
     0
 10
76.0705
 20
13.8906
 30
0.0
 11
76.0705
 21
16.9912
 31
0.0
  0
LINE
  8
0
 62
     0
 10
76.0705
 20
16.9912
 30
0.0
 11
75.2697
 21
16.9912
 31
0.0
  0
LINE
  8
0
 62
     0
 10
75.2697
 20
16.9912
 30
0.0
 11
75.2697
 21
22.7914
 31
0.0
  0
LINE
  8
0
 62
     0
 10
75.2697
 20
22.7914
 30
0.0
 11
76.0705
 21
22.7914
 31
0.0
  0
LINE
  8
0
 62
     0
 10
76.0705
 20
22.7914
 30
0.0
 11
76.0705
 21
25.8906
 31
0.0
  0
LINE
  8
0
 62
     0
 10
76.0705
 20
25.8906
 30
0.0
 11
75.2697
 21
25.8906
 31
0.0
  0
LINE
  8
0
 62
     0
 10
75.2697
 20
25.8906
 30
0.0
 11
75.2697
 21
26.8911
 31
0.0
  0
LINE
  8
0
 62
     0
 10
75.2697
 20
26.8911
 30
0.0
 11
61.2704
 21
26.8911
 31
0.0
  0
LINE
  8
0
 62
     0
 10
156.52
 20
26.8911
 30
0.0
 11
156.52
 21
25.8906
 31
0.0
  0
LINE
  8
0
 62
     0
 10
156.52
 20
25.8906
 30
0.0
 11
155.721
 21
25.8906
 31
0.0
  0
LINE
  8
0
 62
     0
 10
155.721
 20
25.8906
 30
0.0
 11
155.721
 21
22.7914
 31
0.0
  0
LINE
  8
0
 62
     0
 10
155.721
 20
22.7914
 30
0.0
 11
156.52
 21
22.7914
 31
0.0
  0
LINE
  8
0
 62
     0
 10
156.52
 20
22.7914
 30
0.0
 11
156.52
 21
16.9912
 31
0.0
  0
LINE
  8
0
 62
     0
 10
156.52
 20
16.9912
 30
0.0
 11
155.721
 21
16.9912
 31
0.0
  0
LINE
  8
0
 62
     0
 10
155.721
 20
16.9912
 30
0.0
 11
155.721
 21
13.8906
 31
0.0
  0
LINE
  8
0
 62
     0
 10
155.721
 20
13.8906
 30
0.0
 11
156.52
 21
13.8906
 31
0.0
  0
LINE
  8
0
 62
     0
 10
156.52
 20
13.8906
 30
0.0
 11
156.52
 21
12.8902
 31
0.0
  0
LINE
  8
0
 62
     0
 10
156.52
 20
12.8902
 30
0.0
 11
170.52
 21
12.8902
 31
0.0
  0
LINE
  8
0
 62
     0
 10
170.52
 20
12.8902
 30
0.0
 11
170.52
 21
13.8906
 31
0.0
  0
LINE
  8
0
 62
     0
 10
170.52
 20
13.8906
 30
0.0
 11
171.321
 21
13.8906
 31
0.0
  0
LINE
  8
0
 62
     0
 10
171.321
 20
13.8906
 30
0.0
 11
171.321
 21
16.9912
 31
0.0
  0
LINE
  8
0
 62
     0
 10
171.321
 20
16.9912
 30
0.0
 11
170.52
 21
16.9912
 31
0.0
  0
LINE
  8
0
 62
     0
 10
170.52
 20
16.9912
 30
0.0
 11
170.52
 21
22.7914
 31
0.0
  0
LINE
  8
0
 62
     0
 10
170.52
 20
22.7914
 30
0.0
 11
171.321
 21
22.7914
 31
0.0
  0
LINE
  8
0
 62
     0
 10
171.321
 20
22.7914
 30
0.0
 11
171.321
 21
25.8906
 31
0.0
  0
LINE
  8
0
 62
     0
 10
171.321
 20
25.8906
 30
0.0
 11
170.52
 21
25.8906
 31
0.0
  0
LINE
  8
0
 62
     0
 10
170.52
 20
25.8906
 30
0.0
 11
170.52
 21
26.8911
 31
0.0
  0
LINE
  8
0
 62
     0
 10
170.52
 20
26.8911
 30
0.0
 11
156.52
 21
26.8911
 31
0.0
  0
LINE
  8
0
 62
     0
 10
175.57
 20
26.8911
 30
0.0
 11
175.57
 21
25.8906
 31
0.0
  0
LINE
  8
0
 62
     0
 10
175.57
 20
25.8906
 30
0.0
 11
174.771
 21
25.8906
 31
0.0
  0
LINE
  8
0
 62
     0
 10
174.771
 20
25.8906
 30
0.0
 11
174.771
 21
22.7914
 31
0.0
  0
LINE
  8
0
 62
     0
 10
174.771
 20
22.7914
 30
0.0
 11
175.57
 21
22.7914
 31
0.0
  0
LINE
  8
0
 62
     0
 10
175.57
 20
22.7914
 30
0.0
 11
175.57
 21
16.9912
 31
0.0
  0
LINE
  8
0
 62
     0
 10
175.57
 20
16.9912
 30
0.0
 11
174.771
 21
16.9912
 31
0.0
  0
LINE
  8
0
 62
     0
 10
174.771
 20
16.9912
 30
0.0
 11
174.771
 21
13.8906
 31
0.0
  0
LINE
  8
0
 62
     0
 10
174.771
 20
13.8906
 30
0.0
 11
175.57
 21
13.8906
 31
0.0
  0
LINE
  8
0
 62
     0
 10
175.57
 20
13.8906
 30
0.0
 11
175.57
 21
12.8902
 31
0.0
  0
LINE
  8
0
 62
     0
 10
175.57
 20
12.8902
 30
0.0
 11
189.57
 21
12.8902
 31
0.0
  0
LINE
  8
0
 62
     0
 10
189.57
 20
12.8902
 30
0.0
 11
189.57
 21
13.8906
 31
0.0
  0
LINE
  8
0
 62
     0
 10
189.57
 20
13.8906
 30
0.0
 11
190.371
 21
13.8906
 31
0.0
  0
LINE
  8
0
 62
     0
 10
190.371
 20
13.8906
 30
0.0
 11
190.371
 21
16.9912
 31
0.0
  0
LINE
  8
0
 62
     0
 10
190.371
 20
16.9912
 30
0.0
 11
189.57
 21
16.9912
 31
0.0
  0
LINE
  8
0
 62
     0
 10
189.57
 20
16.9912
 30
0.0
 11
189.57
 21
22.7914
 31
0.0
  0
LINE
  8
0
 62
     0
 10
189.57
 20
22.7914
 30
0.0
 11
190.371
 21
22.7914
 31
0.0
  0
LINE
  8
0
 62
     0
 10
190.371
 20
22.7914
 30
0.0
 11
190.371
 21
25.8906
 31
0.0
  0
LINE
  8
0
 62
     0
 10
190.371
 20
25.8906
 30
0.0
 11
189.57
 21
25.8906
 31
0.0
  0
LINE
  8
0
 62
     0
 10
189.57
 20
25.8906
 30
0.0
 11
189.57
 21
26.8911
 31
0.0
  0
LINE
  8
0
 62
     0
 10
189.57
 20
26.8911
 30
0.0
 11
175.57
 21
26.8911
 31
0.0
  0
LINE
  8
0
 62
     0
 10
194.62
 20
26.8911
 30
0.0
 11
194.62
 21
25.8906
 31
0.0
  0
LINE
  8
0
 62
     0
 10
194.62
 20
25.8906
 30
0.0
 11
193.821
 21
25.8906
 31
0.0
  0
LINE
  8
0
 62
     0
 10
193.821
 20
25.8906
 30
0.0
 11
193.821
 21
22.7914
 31
0.0
  0
LINE
  8
0
 62
     0
 10
193.821
 20
22.7914
 30
0.0
 11
194.62
 21
22.7914
 31
0.0
  0
LINE
  8
0
 62
     0
 10
194.62
 20
22.7914
 30
0.0
 11
194.62
 21
16.9912
 31
0.0
  0
LINE
  8
0
 62
     0
 10
194.62
 20
16.9912
 30
0.0
 11
193.821
 21
16.9912
 31
0.0
  0
LINE
  8
0
 62
     0
 10
193.821
 20
16.9912
 30
0.0
 11
193.821
 21
13.8906
 31
0.0
  0
LINE
  8
0
 62
     0
 10
193.821
 20
13.8906
 30
0.0
 11
194.62
 21
13.8906
 31
0.0
  0
LINE
  8
0
 62
     0
 10
194.62
 20
13.8906
 30
0.0
 11
194.62
 21
12.8902
 31
0.0
  0
LINE
  8
0
 62
     0
 10
194.62
 20
12.8902
 30
0.0
 11
208.62
 21
12.8902
 31
0.0
  0
LINE
  8
0
 62
     0
 10
208.62
 20
12.8902
 30
0.0
 11
208.62
 21
13.8906
 31
0.0
  0
LINE
  8
0
 62
     0
 10
208.62
 20
13.8906
 30
0.0
 11
209.421
 21
13.8906
 31
0.0
  0
LINE
  8
0
 62
     0
 10
209.421
 20
13.8906
 30
0.0
 11
209.421
 21
16.9912
 31
0.0
  0
LINE
  8
0
 62
     0
 10
209.421
 20
16.9912
 30
0.0
 11
208.62
 21
16.9912
 31
0.0
  0
LINE
  8
0
 62
     0
 10
208.62
 20
16.9912
 30
0.0
 11
208.62
 21
22.7914
 31
0.0
  0
LINE
  8
0
 62
     0
 10
208.62
 20
22.7914
 30
0.0
 11
209.421
 21
22.7914
 31
0.0
  0
LINE
  8
0
 62
     0
 10
209.421
 20
22.7914
 30
0.0
 11
209.421
 21
25.8906
 31
0.0
  0
LINE
  8
0
 62
     0
 10
209.421
 20
25.8906
 30
0.0
 11
208.62
 21
25.8906
 31
0.0
  0
LINE
  8
0
 62
     0
 10
208.62
 20
25.8906
 30
0.0
 11
208.62
 21
26.8911
 31
0.0
  0
LINE
  8
0
 62
     0
 10
208.62
 20
26.8911
 30
0.0
 11
194.62
 21
26.8911
 31
0.0
  0
LINE
  8
0
 62
     0
 10
213.67
 20
26.8911
 30
0.0
 11
213.67
 21
25.8906
 31
0.0
  0
LINE
  8
0
 62
     0
 10
213.67
 20
25.8906
 30
0.0
 11
212.871
 21
25.8906
 31
0.0
  0
LINE
  8
0
 62
     0
 10
212.871
 20
25.8906
 30
0.0
 11
212.871
 21
22.7914
 31
0.0
  0
LINE
  8
0
 62
     0
 10
212.871
 20
22.7914
 30
0.0
 11
213.67
 21
22.7914
 31
0.0
  0
LINE
  8
0
 62
     0
 10
213.67
 20
22.7914
 30
0.0
 11
213.67
 21
16.9912
 31
0.0
  0
LINE
  8
0
 62
     0
 10
213.67
 20
16.9912
 30
0.0
 11
212.871
 21
16.9912
 31
0.0
  0
LINE
  8
0
 62
     0
 10
212.871
 20
16.9912
 30
0.0
 11
212.871
 21
13.8906
 31
0.0
  0
LINE
  8
0
 62
     0
 10
212.871
 20
13.8906
 30
0.0
 11
213.67
 21
13.8906
 31
0.0
  0
LINE
  8
0
 62
     0
 10
213.67
 20
13.8906
 30
0.0
 11
213.67
 21
12.8902
 31
0.0
  0
LINE
  8
0
 62
     0
 10
213.67
 20
12.8902
 30
0.0
 11
227.67
 21
12.8902
 31
0.0
  0
LINE
  8
0
 62
     0
 10
227.67
 20
12.8902
 30
0.0
 11
227.67
 21
13.8906
 31
0.0
  0
LINE
  8
0
 62
     0
 10
227.67
 20
13.8906
 30
0.0
 11
228.471
 21
13.8906
 31
0.0
  0
LINE
  8
0
 62
     0
 10
228.471
 20
13.8906
 30
0.0
 11
228.471
 21
16.9912
 31
0.0
  0
LINE
  8
0
 62
     0
 10
228.471
 20
16.9912
 30
0.0
 11
227.67
 21
16.9912
 31
0.0
  0
LINE
  8
0
 62
     0
 10
227.67
 20
16.9912
 30
0.0
 11
227.67
 21
22.7914
 31
0.0
  0
LINE
  8
0
 62
     0
 10
227.67
 20
22.7914
 30
0.0
 11
228.471
 21
22.7914
 31
0.0
  0
LINE
  8
0
 62
     0
 10
228.471
 20
22.7914
 30
0.0
 11
228.471
 21
25.8906
 31
0.0
  0
LINE
  8
0
 62
     0
 10
228.471
 20
25.8906
 30
0.0
 11
227.67
 21
25.8906
 31
0.0
  0
LINE
  8
0
 62
     0
 10
227.67
 20
25.8906
 30
0.0
 11
227.67
 21
26.8911
 31
0.0
  0
LINE
  8
0
 62
     0
 10
227.67
 20
26.8911
 30
0.0
 11
213.67
 21
26.8911
 31
0.0
  0
LINE
  8
0
 62
     0
 10
232.72
 20
26.8911
 30
0.0
 11
232.72
 21
25.8906
 31
0.0
  0
LINE
  8
0
 62
     0
 10
232.72
 20
25.8906
 30
0.0
 11
231.921
 21
25.8906
 31
0.0
  0
LINE
  8
0
 62
     0
 10
231.921
 20
25.8906
 30
0.0
 11
231.921
 21
22.7914
 31
0.0
  0
LINE
  8
0
 62
     0
 10
231.921
 20
22.7914
 30
0.0
 11
232.72
 21
22.7914
 31
0.0
  0
LINE
  8
0
 62
     0
 10
232.72
 20
22.7914
 30
0.0
 11
232.72
 21
16.9912
 31
0.0
  0
LINE
  8
0
 62
     0
 10
232.72
 20
16.9912
 30
0.0
 11
231.921
 21
16.9912
 31
0.0
  0
LINE
  8
0
 62
     0
 10
231.921
 20
16.9912
 30
0.0
 11
231.921
 21
13.8906
 31
0.0
  0
LINE
  8
0
 62
     0
 10
231.921
 20
13.8906
 30
0.0
 11
232.72
 21
13.8906
 31
0.0
  0
LINE
  8
0
 62
     0
 10
232.72
 20
13.8906
 30
0.0
 11
232.72
 21
12.8902
 31
0.0
  0
LINE
  8
0
 62
     0
 10
232.72
 20
12.8902
 30
0.0
 11
246.72
 21
12.8902
 31
0.0
  0
LINE
  8
0
 62
     0
 10
246.72
 20
12.8902
 30
0.0
 11
246.72
 21
13.8906
 31
0.0
  0
LINE
  8
0
 62
     0
 10
246.72
 20
13.8906
 30
0.0
 11
247.521
 21
13.8906
 31
0.0
  0
LINE
  8
0
 62
     0
 10
247.521
 20
13.8906
 30
0.0
 11
247.521
 21
16.9912
 31
0.0
  0
LINE
  8
0
 62
     0
 10
247.521
 20
16.9912
 30
0.0
 11
246.72
 21
16.9912
 31
0.0
  0
LINE
  8
0
 62
     0
 10
246.72
 20
16.9912
 30
0.0
 11
246.72
 21
22.7914
 31
0.0
  0
LINE
  8
0
 62
     0
 10
246.72
 20
22.7914
 30
0.0
 11
247.521
 21
22.7914
 31
0.0
  0
LINE
  8
0
 62
     0
 10
247.521
 20
22.7914
 30
0.0
 11
247.521
 21
25.8906
 31
0.0
  0
LINE
  8
0
 62
     0
 10
247.521
 20
25.8906
 30
0.0
 11
246.72
 21
25.8906
 31
0.0
  0
LINE
  8
0
 62
     0
 10
246.72
 20
25.8906
 30
0.0
 11
246.72
 21
26.8911
 31
0.0
  0
LINE
  8
0
 62
     0
 10
246.72
 20
26.8911
 30
0.0
 11
232.72
 21
26.8911
 31
0.0
  0
LINE
  8
0
 62
     0
 10
13.6453
 20
45.9412
 30
0.0
 11
13.6453
 21
44.9407
 31
0.0
  0
LINE
  8
0
 62
     0
 10
13.6453
 20
44.9407
 30
0.0
 11
12.8461
 21
44.9407
 31
0.0
  0
LINE
  8
0
 62
     0
 10
12.8461
 20
44.9407
 30
0.0
 11
12.8461
 21
41.8401
 31
0.0
  0
LINE
  8
0
 62
     0
 10
12.8461
 20
41.8401
 30
0.0
 11
13.6453
 21
41.8401
 31
0.0
  0
LINE
  8
0
 62
     0
 10
13.6453
 20
41.8401
 30
0.0
 11
13.6453
 21
41.2404
 31
0.0
  0
LINE
  8
0
 62
     0
 10
13.6453
 20
41.2404
 30
0.0
 11
12.1199
 21
41.2404
 31
0.0
  0
LINE
  8
0
 62
     0
 10
12.1199
 20
41.2404
 30
0.0
 11
12.1199
 21
44.4708
 31
0.0
  0
LINE
  8
0
 62
     0
 10
12.1199
 20
44.4708
 30
0.0
 11
10.3959
 21
44.4708
 31
0.0
  0
LINE
  8
0
 62
     0
 10
10.3959
 20
44.4708
 30
0.0
 11
10.3959
 21
45.3912
 31
0.0
  0
LINE
  8
0
 62
     0
 10
10.3959
 20
45.3912
 30
0.0
 11
7.09553
 21
45.3912
 31
0.0
  0
LINE
  8
0
 62
     0
 10
7.09553
 20
45.3912
 30
0.0
 11
7.09553
 21
44.4708
 31
0.0
  0
LINE
  8
0
 62
     0
 10
7.09553
 20
44.4708
 30
0.0
 11
5.37023
 21
44.4708
 31
0.0
  0
LINE
  8
0
 62
     0
 10
5.37023
 20
44.4708
 30
0.0
 11
5.37023
 21
41.2404
 31
0.0
  0
LINE
  8
0
 62
     0
 10
5.37023
 20
41.2404
 30
0.0
 11
4.54614
 21
41.2404
 31
0.0
  0
LINE
  8
0
 62
     0
 10
4.54614
 20
41.2404
 30
0.0
 11
4.54614
 21
38.4404
 31
0.0
  0
LINE
  8
0
 62
     0
 10
4.54614
 20
38.4404
 30
0.0
 11
5.37023
 21
38.4404
 31
0.0
  0
LINE
  8
0
 62
     0
 10
5.37023
 20
38.4404
 30
0.0
 11
5.37023
 21
32.1703
 31
0.0
  0
LINE
  8
0
 62
     0
 10
5.37023
 20
32.1703
 30
0.0
 11
7.09553
 21
32.1703
 31
0.0
  0
LINE
  8
0
 62
     0
 10
7.09553
 20
32.1703
 30
0.0
 11
7.09553
 21
31.1905
 31
0.0
  0
LINE
  8
0
 62
     0
 10
7.09553
 20
31.1905
 30
0.0
 11
10.3959
 21
31.1905
 31
0.0
  0
LINE
  8
0
 62
     0
 10
10.3959
 20
31.1905
 30
0.0
 11
10.3959
 21
32.1703
 31
0.0
  0
LINE
  8
0
 62
     0
 10
10.3959
 20
32.1703
 30
0.0
 11
12.1199
 21
32.1703
 31
0.0
  0
LINE
  8
0
 62
     0
 10
12.1199
 20
32.1703
 30
0.0
 11
12.1199
 21
36.6406
 31
0.0
  0
LINE
  8
0
 62
     0
 10
12.1199
 20
36.6406
 30
0.0
 11
13.6453
 21
36.6406
 31
0.0
  0
LINE
  8
0
 62
     0
 10
13.6453
 20
36.6406
 30
0.0
 11
13.6453
 21
36.0412
 31
0.0
  0
LINE
  8
0
 62
     0
 10
13.6453
 20
36.0412
 30
0.0
 11
12.8461
 21
36.0412
 31
0.0
  0
LINE
  8
0
 62
     0
 10
12.8461
 20
36.0412
 30
0.0
 11
12.8461
 21
32.9406
 31
0.0
  0
LINE
  8
0
 62
     0
 10
12.8461
 20
32.9406
 30
0.0
 11
13.6453
 21
32.9406
 31
0.0
  0
LINE
  8
0
 62
     0
 10
13.6453
 20
32.9406
 30
0.0
 11
13.6453
 21
31.9402
 31
0.0
  0
LINE
  8
0
 62
     0
 10
13.6453
 20
31.9402
 30
0.0
 11
27.6448
 21
31.9402
 31
0.0
  0
LINE
  8
0
 62
     0
 10
27.6448
 20
31.9402
 30
0.0
 11
27.6448
 21
32.9406
 31
0.0
  0
LINE
  8
0
 62
     0
 10
27.6448
 20
32.9406
 30
0.0
 11
28.4455
 21
32.9406
 31
0.0
  0
LINE
  8
0
 62
     0
 10
28.4455
 20
32.9406
 30
0.0
 11
28.4455
 21
36.0412
 31
0.0
  0
LINE
  8
0
 62
     0
 10
28.4455
 20
36.0412
 30
0.0
 11
27.6448
 21
36.0412
 31
0.0
  0
LINE
  8
0
 62
     0
 10
27.6448
 20
36.0412
 30
0.0
 11
27.6448
 21
36.6406
 31
0.0
  0
LINE
  8
0
 62
     0
 10
27.6448
 20
36.6406
 30
0.0
 11
29.1703
 21
36.6406
 31
0.0
  0
LINE
  8
0
 62
     0
 10
29.1703
 20
36.6406
 30
0.0
 11
29.1703
 21
32.1703
 31
0.0
  0
LINE
  8
0
 62
     0
 10
29.1703
 20
32.1703
 30
0.0
 11
30.8956
 21
32.1703
 31
0.0
  0
LINE
  8
0
 62
     0
 10
30.8956
 20
32.1703
 30
0.0
 11
30.8956
 21
31.1905
 31
0.0
  0
LINE
  8
0
 62
     0
 10
30.8956
 20
31.1905
 30
0.0
 11
34.196
 21
31.1905
 31
0.0
  0
LINE
  8
0
 62
     0
 10
34.196
 20
31.1905
 30
0.0
 11
34.196
 21
32.1703
 31
0.0
  0
LINE
  8
0
 62
     0
 10
34.196
 20
32.1703
 30
0.0
 11
35.9198
 21
32.1703
 31
0.0
  0
LINE
  8
0
 62
     0
 10
35.9198
 20
32.1703
 30
0.0
 11
35.9198
 21
38.4404
 31
0.0
  0
LINE
  8
0
 62
     0
 10
35.9198
 20
38.4404
 30
0.0
 11
36.7453
 21
38.4404
 31
0.0
  0
LINE
  8
0
 62
     0
 10
36.7453
 20
38.4404
 30
0.0
 11
36.7453
 21
41.2404
 31
0.0
  0
LINE
  8
0
 62
     0
 10
36.7453
 20
41.2404
 30
0.0
 11
35.9198
 21
41.2404
 31
0.0
  0
LINE
  8
0
 62
     0
 10
35.9198
 20
41.2404
 30
0.0
 11
35.9198
 21
44.4708
 31
0.0
  0
LINE
  8
0
 62
     0
 10
35.9198
 20
44.4708
 30
0.0
 11
34.196
 21
44.4708
 31
0.0
  0
LINE
  8
0
 62
     0
 10
34.196
 20
44.4708
 30
0.0
 11
34.196
 21
45.3912
 31
0.0
  0
LINE
  8
0
 62
     0
 10
34.196
 20
45.3912
 30
0.0
 11
30.8956
 21
45.3912
 31
0.0
  0
LINE
  8
0
 62
     0
 10
30.8956
 20
45.3912
 30
0.0
 11
30.8956
 21
44.4708
 31
0.0
  0
LINE
  8
0
 62
     0
 10
30.8956
 20
44.4708
 30
0.0
 11
29.1703
 21
44.4708
 31
0.0
  0
LINE
  8
0
 62
     0
 10
29.1703
 20
44.4708
 30
0.0
 11
29.1703
 21
41.2404
 31
0.0
  0
LINE
  8
0
 62
     0
 10
29.1703
 20
41.2404
 30
0.0
 11
27.6448
 21
41.2404
 31
0.0
  0
LINE
  8
0
 62
     0
 10
27.6448
 20
41.2404
 30
0.0
 11
27.6448
 21
41.8401
 31
0.0
  0
LINE
  8
0
 62
     0
 10
27.6448
 20
41.8401
 30
0.0
 11
28.4455
 21
41.8401
 31
0.0
  0
LINE
  8
0
 62
     0
 10
28.4455
 20
41.8401
 30
0.0
 11
28.4455
 21
44.9407
 31
0.0
  0
LINE
  8
0
 62
     0
 10
28.4455
 20
44.9407
 30
0.0
 11
27.6448
 21
44.9407
 31
0.0
  0
LINE
  8
0
 62
     0
 10
27.6448
 20
44.9407
 30
0.0
 11
27.6448
 21
45.9412
 31
0.0
  0
LINE
  8
0
 62
     0
 10
27.6448
 20
45.9412
 30
0.0
 11
13.6453
 21
45.9412
 31
0.0
  0
LINE
  8
0
 62
     0
 10
42.2204
 20
45.9412
 30
0.0
 11
42.2204
 21
44.9407
 31
0.0
  0
LINE
  8
0
 62
     0
 10
42.2204
 20
44.9407
 30
0.0
 11
41.4211
 21
44.9407
 31
0.0
  0
LINE
  8
0
 62
     0
 10
41.4211
 20
44.9407
 30
0.0
 11
41.4211
 21
41.8401
 31
0.0
  0
LINE
  8
0
 62
     0
 10
41.4211
 20
41.8401
 30
0.0
 11
42.2204
 21
41.8401
 31
0.0
  0
LINE
  8
0
 62
     0
 10
42.2204
 20
41.8401
 30
0.0
 11
42.2204
 21
36.0412
 31
0.0
  0
LINE
  8
0
 62
     0
 10
42.2204
 20
36.0412
 30
0.0
 11
41.4211
 21
36.0412
 31
0.0
  0
LINE
  8
0
 62
     0
 10
41.4211
 20
36.0412
 30
0.0
 11
41.4211
 21
32.9406
 31
0.0
  0
LINE
  8
0
 62
     0
 10
41.4211
 20
32.9406
 30
0.0
 11
42.2204
 21
32.9406
 31
0.0
  0
LINE
  8
0
 62
     0
 10
42.2204
 20
32.9406
 30
0.0
 11
42.2204
 21
31.9402
 31
0.0
  0
LINE
  8
0
 62
     0
 10
42.2204
 20
31.9402
 30
0.0
 11
56.2197
 21
31.9402
 31
0.0
  0
LINE
  8
0
 62
     0
 10
56.2197
 20
31.9402
 30
0.0
 11
56.2197
 21
32.9406
 31
0.0
  0
LINE
  8
0
 62
     0
 10
56.2197
 20
32.9406
 30
0.0
 11
57.0205
 21
32.9406
 31
0.0
  0
LINE
  8
0
 62
     0
 10
57.0205
 20
32.9406
 30
0.0
 11
57.0205
 21
36.0412
 31
0.0
  0
LINE
  8
0
 62
     0
 10
57.0205
 20
36.0412
 30
0.0
 11
56.2197
 21
36.0412
 31
0.0
  0
LINE
  8
0
 62
     0
 10
56.2197
 20
36.0412
 30
0.0
 11
56.2197
 21
41.8401
 31
0.0
  0
LINE
  8
0
 62
     0
 10
56.2197
 20
41.8401
 30
0.0
 11
57.0205
 21
41.8401
 31
0.0
  0
LINE
  8
0
 62
     0
 10
57.0205
 20
41.8401
 30
0.0
 11
57.0205
 21
44.9407
 31
0.0
  0
LINE
  8
0
 62
     0
 10
57.0205
 20
44.9407
 30
0.0
 11
56.2197
 21
44.9407
 31
0.0
  0
LINE
  8
0
 62
     0
 10
56.2197
 20
44.9407
 30
0.0
 11
56.2197
 21
45.9412
 31
0.0
  0
LINE
  8
0
 62
     0
 10
56.2197
 20
45.9412
 30
0.0
 11
42.2204
 21
45.9412
 31
0.0
  0
LINE
  8
0
 62
     0
 10
61.2704
 20
45.9412
 30
0.0
 11
61.2704
 21
44.9407
 31
0.0
  0
LINE
  8
0
 62
     0
 10
61.2704
 20
44.9407
 30
0.0
 11
60.4711
 21
44.9407
 31
0.0
  0
LINE
  8
0
 62
     0
 10
60.4711
 20
44.9407
 30
0.0
 11
60.4711
 21
41.8401
 31
0.0
  0
LINE
  8
0
 62
     0
 10
60.4711
 20
41.8401
 30
0.0
 11
61.2704
 21
41.8401
 31
0.0
  0
LINE
  8
0
 62
     0
 10
61.2704
 20
41.8401
 30
0.0
 11
61.2704
 21
36.0412
 31
0.0
  0
LINE
  8
0
 62
     0
 10
61.2704
 20
36.0412
 30
0.0
 11
60.4711
 21
36.0412
 31
0.0
  0
LINE
  8
0
 62
     0
 10
60.4711
 20
36.0412
 30
0.0
 11
60.4711
 21
32.9406
 31
0.0
  0
LINE
  8
0
 62
     0
 10
60.4711
 20
32.9406
 30
0.0
 11
61.2704
 21
32.9406
 31
0.0
  0
LINE
  8
0
 62
     0
 10
61.2704
 20
32.9406
 30
0.0
 11
61.2704
 21
31.9402
 31
0.0
  0
LINE
  8
0
 62
     0
 10
61.2704
 20
31.9402
 30
0.0
 11
75.2697
 21
31.9402
 31
0.0
  0
LINE
  8
0
 62
     0
 10
75.2697
 20
31.9402
 30
0.0
 11
75.2697
 21
32.9406
 31
0.0
  0
LINE
  8
0
 62
     0
 10
75.2697
 20
32.9406
 30
0.0
 11
76.0705
 21
32.9406
 31
0.0
  0
LINE
  8
0
 62
     0
 10
76.0705
 20
32.9406
 30
0.0
 11
76.0705
 21
36.0412
 31
0.0
  0
LINE
  8
0
 62
     0
 10
76.0705
 20
36.0412
 30
0.0
 11
75.2697
 21
36.0412
 31
0.0
  0
LINE
  8
0
 62
     0
 10
75.2697
 20
36.0412
 30
0.0
 11
75.2697
 21
41.8401
 31
0.0
  0
LINE
  8
0
 62
     0
 10
75.2697
 20
41.8401
 30
0.0
 11
76.0705
 21
41.8401
 31
0.0
  0
LINE
  8
0
 62
     0
 10
76.0705
 20
41.8401
 30
0.0
 11
76.0705
 21
44.9407
 31
0.0
  0
LINE
  8
0
 62
     0
 10
76.0705
 20
44.9407
 30
0.0
 11
75.2697
 21
44.9407
 31
0.0
  0
LINE
  8
0
 62
     0
 10
75.2697
 20
44.9407
 30
0.0
 11
75.2697
 21
45.9412
 31
0.0
  0
LINE
  8
0
 62
     0
 10
75.2697
 20
45.9412
 30
0.0
 11
61.2704
 21
45.9412
 31
0.0
  0
LINE
  8
0
 62
     0
 10
80.3204
 20
45.9412
 30
0.0
 11
80.3204
 21
44.9407
 31
0.0
  0
LINE
  8
0
 62
     0
 10
80.3204
 20
44.9407
 30
0.0
 11
79.5211
 21
44.9407
 31
0.0
  0
LINE
  8
0
 62
     0
 10
79.5211
 20
44.9407
 30
0.0
 11
79.5211
 21
41.8401
 31
0.0
  0
LINE
  8
0
 62
     0
 10
79.5211
 20
41.8401
 30
0.0
 11
80.3204
 21
41.8401
 31
0.0
  0
LINE
  8
0
 62
     0
 10
80.3204
 20
41.8401
 30
0.0
 11
80.3204
 21
36.0412
 31
0.0
  0
LINE
  8
0
 62
     0
 10
80.3204
 20
36.0412
 30
0.0
 11
79.5211
 21
36.0412
 31
0.0
  0
LINE
  8
0
 62
     0
 10
79.5211
 20
36.0412
 30
0.0
 11
79.5211
 21
32.9406
 31
0.0
  0
LINE
  8
0
 62
     0
 10
79.5211
 20
32.9406
 30
0.0
 11
80.3204
 21
32.9406
 31
0.0
  0
LINE
  8
0
 62
     0
 10
80.3204
 20
32.9406
 30
0.0
 11
80.3204
 21
31.9402
 31
0.0
  0
LINE
  8
0
 62
     0
 10
80.3204
 20
31.9402
 30
0.0
 11
94.3197
 21
31.9402
 31
0.0
  0
LINE
  8
0
 62
     0
 10
94.3197
 20
31.9402
 30
0.0
 11
94.3197
 21
32.9406
 31
0.0
  0
LINE
  8
0
 62
     0
 10
94.3197
 20
32.9406
 30
0.0
 11
95.1191
 21
32.9406
 31
0.0
  0
LINE
  8
0
 62
     0
 10
95.1191
 20
32.9406
 30
0.0
 11
95.1191
 21
36.0412
 31
0.0
  0
LINE
  8
0
 62
     0
 10
95.1191
 20
36.0412
 30
0.0
 11
94.3197
 21
36.0412
 31
0.0
  0
LINE
  8
0
 62
     0
 10
94.3197
 20
36.0412
 30
0.0
 11
94.3197
 21
41.8401
 31
0.0
  0
LINE
  8
0
 62
     0
 10
94.3197
 20
41.8401
 30
0.0
 11
95.1191
 21
41.8401
 31
0.0
  0
LINE
  8
0
 62
     0
 10
95.1191
 20
41.8401
 30
0.0
 11
95.1191
 21
44.9407
 31
0.0
  0
LINE
  8
0
 62
     0
 10
95.1191
 20
44.9407
 30
0.0
 11
94.3197
 21
44.9407
 31
0.0
  0
LINE
  8
0
 62
     0
 10
94.3197
 20
44.9407
 30
0.0
 11
94.3197
 21
45.9412
 31
0.0
  0
LINE
  8
0
 62
     0
 10
94.3197
 20
45.9412
 30
0.0
 11
80.3204
 21
45.9412
 31
0.0
  0
LINE
  8
0
 62
     0
 10
99.369
 20
45.9412
 30
0.0
 11
99.369
 21
44.9407
 31
0.0
  0
LINE
  8
0
 62
     0
 10
99.369
 20
44.9407
 30
0.0
 11
98.5711
 21
44.9407
 31
0.0
  0
LINE
  8
0
 62
     0
 10
98.5711
 20
44.9407
 30
0.0
 11
98.5711
 21
41.8401
 31
0.0
  0
LINE
  8
0
 62
     0
 10
98.5711
 20
41.8401
 30
0.0
 11
99.369
 21
41.8401
 31
0.0
  0
LINE
  8
0
 62
     0
 10
99.369
 20
41.8401
 30
0.0
 11
99.369
 21
36.0412
 31
0.0
  0
LINE
  8
0
 62
     0
 10
99.369
 20
36.0412
 30
0.0
 11
98.5711
 21
36.0412
 31
0.0
  0
LINE
  8
0
 62
     0
 10
98.5711
 20
36.0412
 30
0.0
 11
98.5711
 21
32.9406
 31
0.0
  0
LINE
  8
0
 62
     0
 10
98.5711
 20
32.9406
 30
0.0
 11
99.369
 21
32.9406
 31
0.0
  0
LINE
  8
0
 62
     0
 10
99.369
 20
32.9406
 30
0.0
 11
99.369
 21
31.9402
 31
0.0
  0
LINE
  8
0
 62
     0
 10
99.369
 20
31.9402
 30
0.0
 11
113.37
 21
31.9402
 31
0.0
  0
LINE
  8
0
 62
     0
 10
113.37
 20
31.9402
 30
0.0
 11
113.37
 21
32.9406
 31
0.0
  0
LINE
  8
0
 62
     0
 10
113.37
 20
32.9406
 30
0.0
 11
114.169
 21
32.9406
 31
0.0
  0
LINE
  8
0
 62
     0
 10
114.169
 20
32.9406
 30
0.0
 11
114.169
 21
36.0412
 31
0.0
  0
LINE
  8
0
 62
     0
 10
114.169
 20
36.0412
 30
0.0
 11
113.37
 21
36.0412
 31
0.0
  0
LINE
  8
0
 62
     0
 10
113.37
 20
36.0412
 30
0.0
 11
113.37
 21
41.8401
 31
0.0
  0
LINE
  8
0
 62
     0
 10
113.37
 20
41.8401
 30
0.0
 11
114.169
 21
41.8401
 31
0.0
  0
LINE
  8
0
 62
     0
 10
114.169
 20
41.8401
 30
0.0
 11
114.169
 21
44.9407
 31
0.0
  0
LINE
  8
0
 62
     0
 10
114.169
 20
44.9407
 30
0.0
 11
113.37
 21
44.9407
 31
0.0
  0
LINE
  8
0
 62
     0
 10
113.37
 20
44.9407
 30
0.0
 11
113.37
 21
45.9412
 31
0.0
  0
LINE
  8
0
 62
     0
 10
113.37
 20
45.9412
 30
0.0
 11
99.369
 21
45.9412
 31
0.0
  0
LINE
  8
0
 62
     0
 10
118.419
 20
45.9412
 30
0.0
 11
118.419
 21
44.9407
 31
0.0
  0
LINE
  8
0
 62
     0
 10
118.419
 20
44.9407
 30
0.0
 11
117.62
 21
44.9407
 31
0.0
  0
LINE
  8
0
 62
     0
 10
117.62
 20
44.9407
 30
0.0
 11
117.62
 21
41.8401
 31
0.0
  0
LINE
  8
0
 62
     0
 10
117.62
 20
41.8401
 30
0.0
 11
118.419
 21
41.8401
 31
0.0
  0
LINE
  8
0
 62
     0
 10
118.419
 20
41.8401
 30
0.0
 11
118.419
 21
36.0412
 31
0.0
  0
LINE
  8
0
 62
     0
 10
118.419
 20
36.0412
 30
0.0
 11
117.62
 21
36.0412
 31
0.0
  0
LINE
  8
0
 62
     0
 10
117.62
 20
36.0412
 30
0.0
 11
117.62
 21
32.9406
 31
0.0
  0
LINE
  8
0
 62
     0
 10
117.62
 20
32.9406
 30
0.0
 11
118.419
 21
32.9406
 31
0.0
  0
LINE
  8
0
 62
     0
 10
118.419
 20
32.9406
 30
0.0
 11
118.419
 21
31.9402
 31
0.0
  0
LINE
  8
0
 62
     0
 10
118.419
 20
31.9402
 30
0.0
 11
132.42
 21
31.9402
 31
0.0
  0
LINE
  8
0
 62
     0
 10
132.42
 20
31.9402
 30
0.0
 11
132.42
 21
32.9406
 31
0.0
  0
LINE
  8
0
 62
     0
 10
132.42
 20
32.9406
 30
0.0
 11
133.221
 21
32.9406
 31
0.0
  0
LINE
  8
0
 62
     0
 10
133.221
 20
32.9406
 30
0.0
 11
133.221
 21
36.0412
 31
0.0
  0
LINE
  8
0
 62
     0
 10
133.221
 20
36.0412
 30
0.0
 11
132.42
 21
36.0412
 31
0.0
  0
LINE
  8
0
 62
     0
 10
132.42
 20
36.0412
 30
0.0
 11
132.42
 21
41.8401
 31
0.0
  0
LINE
  8
0
 62
     0
 10
132.42
 20
41.8401
 30
0.0
 11
133.221
 21
41.8401
 31
0.0
  0
LINE
  8
0
 62
     0
 10
133.221
 20
41.8401
 30
0.0
 11
133.221
 21
44.9407
 31
0.0
  0
LINE
  8
0
 62
     0
 10
133.221
 20
44.9407
 30
0.0
 11
132.42
 21
44.9407
 31
0.0
  0
LINE
  8
0
 62
     0
 10
132.42
 20
44.9407
 30
0.0
 11
132.42
 21
45.9412
 31
0.0
  0
LINE
  8
0
 62
     0
 10
132.42
 20
45.9412
 30
0.0
 11
118.419
 21
45.9412
 31
0.0
  0
LINE
  8
0
 62
     0
 10
137.47
 20
45.9412
 30
0.0
 11
137.47
 21
44.9407
 31
0.0
  0
LINE
  8
0
 62
     0
 10
137.47
 20
44.9407
 30
0.0
 11
136.671
 21
44.9407
 31
0.0
  0
LINE
  8
0
 62
     0
 10
136.671
 20
44.9407
 30
0.0
 11
136.671
 21
41.8401
 31
0.0
  0
LINE
  8
0
 62
     0
 10
136.671
 20
41.8401
 30
0.0
 11
137.47
 21
41.8401
 31
0.0
  0
LINE
  8
0
 62
     0
 10
137.47
 20
41.8401
 30
0.0
 11
137.47
 21
36.0412
 31
0.0
  0
LINE
  8
0
 62
     0
 10
137.47
 20
36.0412
 30
0.0
 11
136.671
 21
36.0412
 31
0.0
  0
LINE
  8
0
 62
     0
 10
136.671
 20
36.0412
 30
0.0
 11
136.671
 21
32.9406
 31
0.0
  0
LINE
  8
0
 62
     0
 10
136.671
 20
32.9406
 30
0.0
 11
137.47
 21
32.9406
 31
0.0
  0
LINE
  8
0
 62
     0
 10
137.47
 20
32.9406
 30
0.0
 11
137.47
 21
31.9402
 31
0.0
  0
LINE
  8
0
 62
     0
 10
137.47
 20
31.9402
 30
0.0
 11
151.47
 21
31.9402
 31
0.0
  0
LINE
  8
0
 62
     0
 10
151.47
 20
31.9402
 30
0.0
 11
151.47
 21
32.9406
 31
0.0
  0
LINE
  8
0
 62
     0
 10
151.47
 20
32.9406
 30
0.0
 11
152.271
 21
32.9406
 31
0.0
  0
LINE
  8
0
 62
     0
 10
152.271
 20
32.9406
 30
0.0
 11
152.271
 21
36.0412
 31
0.0
  0
LINE
  8
0
 62
     0
 10
152.271
 20
36.0412
 30
0.0
 11
151.47
 21
36.0412
 31
0.0
  0
LINE
  8
0
 62
     0
 10
151.47
 20
36.0412
 30
0.0
 11
151.47
 21
41.8401
 31
0.0
  0
LINE
  8
0
 62
     0
 10
151.47
 20
41.8401
 30
0.0
 11
152.271
 21
41.8401
 31
0.0
  0
LINE
  8
0
 62
     0
 10
152.271
 20
41.8401
 30
0.0
 11
152.271
 21
44.9407
 31
0.0
  0
LINE
  8
0
 62
     0
 10
152.271
 20
44.9407
 30
0.0
 11
151.47
 21
44.9407
 31
0.0
  0
LINE
  8
0
 62
     0
 10
151.47
 20
44.9407
 30
0.0
 11
151.47
 21
45.9412
 31
0.0
  0
LINE
  8
0
 62
     0
 10
151.47
 20
45.9412
 30
0.0
 11
137.47
 21
45.9412
 31
0.0
  0
LINE
  8
0
 62
     0
 10
156.52
 20
45.9412
 30
0.0
 11
156.52
 21
44.9407
 31
0.0
  0
LINE
  8
0
 62
     0
 10
156.52
 20
44.9407
 30
0.0
 11
155.721
 21
44.9407
 31
0.0
  0
LINE
  8
0
 62
     0
 10
155.721
 20
44.9407
 30
0.0
 11
155.721
 21
41.8401
 31
0.0
  0
LINE
  8
0
 62
     0
 10
155.721
 20
41.8401
 30
0.0
 11
156.52
 21
41.8401
 31
0.0
  0
LINE
  8
0
 62
     0
 10
156.52
 20
41.8401
 30
0.0
 11
156.52
 21
36.0412
 31
0.0
  0
LINE
  8
0
 62
     0
 10
156.52
 20
36.0412
 30
0.0
 11
155.721
 21
36.0412
 31
0.0
  0
LINE
  8
0
 62
     0
 10
155.721
 20
36.0412
 30
0.0
 11
155.721
 21
32.9406
 31
0.0
  0
LINE
  8
0
 62
     0
 10
155.721
 20
32.9406
 30
0.0
 11
156.52
 21
32.9406
 31
0.0
  0
LINE
  8
0
 62
     0
 10
156.52
 20
32.9406
 30
0.0
 11
156.52
 21
31.9402
 31
0.0
  0
LINE
  8
0
 62
     0
 10
156.52
 20
31.9402
 30
0.0
 11
170.52
 21
31.9402
 31
0.0
  0
LINE
  8
0
 62
     0
 10
170.52
 20
31.9402
 30
0.0
 11
170.52
 21
32.9406
 31
0.0
  0
LINE
  8
0
 62
     0
 10
170.52
 20
32.9406
 30
0.0
 11
171.321
 21
32.9406
 31
0.0
  0
LINE
  8
0
 62
     0
 10
171.321
 20
32.9406
 30
0.0
 11
171.321
 21
36.0412
 31
0.0
  0
LINE
  8
0
 62
     0
 10
171.321
 20
36.0412
 30
0.0
 11
170.52
 21
36.0412
 31
0.0
  0
LINE
  8
0
 62
     0
 10
170.52
 20
36.0412
 30
0.0
 11
170.52
 21
41.8401
 31
0.0
  0
LINE
  8
0
 62
     0
 10
170.52
 20
41.8401
 30
0.0
 11
171.321
 21
41.8401
 31
0.0
  0
LINE
  8
0
 62
     0
 10
171.321
 20
41.8401
 30
0.0
 11
171.321
 21
44.9407
 31
0.0
  0
LINE
  8
0
 62
     0
 10
171.321
 20
44.9407
 30
0.0
 11
170.52
 21
44.9407
 31
0.0
  0
LINE
  8
0
 62
     0
 10
170.52
 20
44.9407
 30
0.0
 11
170.52
 21
45.9412
 31
0.0
  0
LINE
  8
0
 62
     0
 10
170.52
 20
45.9412
 30
0.0
 11
156.52
 21
45.9412
 31
0.0
  0
LINE
  8
0
 62
     0
 10
175.57
 20
45.9412
 30
0.0
 11
175.57
 21
44.9407
 31
0.0
  0
LINE
  8
0
 62
     0
 10
175.57
 20
44.9407
 30
0.0
 11
174.771
 21
44.9407
 31
0.0
  0
LINE
  8
0
 62
     0
 10
174.771
 20
44.9407
 30
0.0
 11
174.771
 21
41.8401
 31
0.0
  0
LINE
  8
0
 62
     0
 10
174.771
 20
41.8401
 30
0.0
 11
175.57
 21
41.8401
 31
0.0
  0
LINE
  8
0
 62
     0
 10
175.57
 20
41.8401
 30
0.0
 11
175.57
 21
36.0412
 31
0.0
  0
LINE
  8
0
 62
     0
 10
175.57
 20
36.0412
 30
0.0
 11
174.771
 21
36.0412
 31
0.0
  0
LINE
  8
0
 62
     0
 10
174.771
 20
36.0412
 30
0.0
 11
174.771
 21
32.9406
 31
0.0
  0
LINE
  8
0
 62
     0
 10
174.771
 20
32.9406
 30
0.0
 11
175.57
 21
32.9406
 31
0.0
  0
LINE
  8
0
 62
     0
 10
175.57
 20
32.9406
 30
0.0
 11
175.57
 21
31.9402
 31
0.0
  0
LINE
  8
0
 62
     0
 10
175.57
 20
31.9402
 30
0.0
 11
189.57
 21
31.9402
 31
0.0
  0
LINE
  8
0
 62
     0
 10
189.57
 20
31.9402
 30
0.0
 11
189.57
 21
32.9406
 31
0.0
  0
LINE
  8
0
 62
     0
 10
189.57
 20
32.9406
 30
0.0
 11
190.371
 21
32.9406
 31
0.0
  0
LINE
  8
0
 62
     0
 10
190.371
 20
32.9406
 30
0.0
 11
190.371
 21
36.0412
 31
0.0
  0
LINE
  8
0
 62
     0
 10
190.371
 20
36.0412
 30
0.0
 11
189.57
 21
36.0412
 31
0.0
  0
LINE
  8
0
 62
     0
 10
189.57
 20
36.0412
 30
0.0
 11
189.57
 21
41.8401
 31
0.0
  0
LINE
  8
0
 62
     0
 10
189.57
 20
41.8401
 30
0.0
 11
190.371
 21
41.8401
 31
0.0
  0
LINE
  8
0
 62
     0
 10
190.371
 20
41.8401
 30
0.0
 11
190.371
 21
44.9407
 31
0.0
  0
LINE
  8
0
 62
     0
 10
190.371
 20
44.9407
 30
0.0
 11
189.57
 21
44.9407
 31
0.0
  0
LINE
  8
0
 62
     0
 10
189.57
 20
44.9407
 30
0.0
 11
189.57
 21
45.9412
 31
0.0
  0
LINE
  8
0
 62
     0
 10
189.57
 20
45.9412
 30
0.0
 11
175.57
 21
45.9412
 31
0.0
  0
LINE
  8
0
 62
     0
 10
194.62
 20
45.9412
 30
0.0
 11
194.62
 21
44.9407
 31
0.0
  0
LINE
  8
0
 62
     0
 10
194.62
 20
44.9407
 30
0.0
 11
193.821
 21
44.9407
 31
0.0
  0
LINE
  8
0
 62
     0
 10
193.821
 20
44.9407
 30
0.0
 11
193.821
 21
41.8401
 31
0.0
  0
LINE
  8
0
 62
     0
 10
193.821
 20
41.8401
 30
0.0
 11
194.62
 21
41.8401
 31
0.0
  0
LINE
  8
0
 62
     0
 10
194.62
 20
41.8401
 30
0.0
 11
194.62
 21
36.0412
 31
0.0
  0
LINE
  8
0
 62
     0
 10
194.62
 20
36.0412
 30
0.0
 11
193.821
 21
36.0412
 31
0.0
  0
LINE
  8
0
 62
     0
 10
193.821
 20
36.0412
 30
0.0
 11
193.821
 21
32.9406
 31
0.0
  0
LINE
  8
0
 62
     0
 10
193.821
 20
32.9406
 30
0.0
 11
194.62
 21
32.9406
 31
0.0
  0
LINE
  8
0
 62
     0
 10
194.62
 20
32.9406
 30
0.0
 11
194.62
 21
31.9402
 31
0.0
  0
LINE
  8
0
 62
     0
 10
194.62
 20
31.9402
 30
0.0
 11
208.62
 21
31.9402
 31
0.0
  0
LINE
  8
0
 62
     0
 10
208.62
 20
31.9402
 30
0.0
 11
208.62
 21
32.9406
 31
0.0
  0
LINE
  8
0
 62
     0
 10
208.62
 20
32.9406
 30
0.0
 11
209.421
 21
32.9406
 31
0.0
  0
LINE
  8
0
 62
     0
 10
209.421
 20
32.9406
 30
0.0
 11
209.421
 21
36.0412
 31
0.0
  0
LINE
  8
0
 62
     0
 10
209.421
 20
36.0412
 30
0.0
 11
208.62
 21
36.0412
 31
0.0
  0
LINE
  8
0
 62
     0
 10
208.62
 20
36.0412
 30
0.0
 11
208.62
 21
41.8401
 31
0.0
  0
LINE
  8
0
 62
     0
 10
208.62
 20
41.8401
 30
0.0
 11
209.421
 21
41.8401
 31
0.0
  0
LINE
  8
0
 62
     0
 10
209.421
 20
41.8401
 30
0.0
 11
209.421
 21
44.9407
 31
0.0
  0
LINE
  8
0
 62
     0
 10
209.421
 20
44.9407
 30
0.0
 11
208.62
 21
44.9407
 31
0.0
  0
LINE
  8
0
 62
     0
 10
208.62
 20
44.9407
 30
0.0
 11
208.62
 21
45.9412
 31
0.0
  0
LINE
  8
0
 62
     0
 10
208.62
 20
45.9412
 30
0.0
 11
194.62
 21
45.9412
 31
0.0
  0
LINE
  8
0
 62
     0
 10
213.67
 20
45.9412
 30
0.0
 11
213.67
 21
44.9407
 31
0.0
  0
LINE
  8
0
 62
     0
 10
213.67
 20
44.9407
 30
0.0
 11
212.871
 21
44.9407
 31
0.0
  0
LINE
  8
0
 62
     0
 10
212.871
 20
44.9407
 30
0.0
 11
212.871
 21
41.8401
 31
0.0
  0
LINE
  8
0
 62
     0
 10
212.871
 20
41.8401
 30
0.0
 11
213.67
 21
41.8401
 31
0.0
  0
LINE
  8
0
 62
     0
 10
213.67
 20
41.8401
 30
0.0
 11
213.67
 21
36.0412
 31
0.0
  0
LINE
  8
0
 62
     0
 10
213.67
 20
36.0412
 30
0.0
 11
212.871
 21
36.0412
 31
0.0
  0
LINE
  8
0
 62
     0
 10
212.871
 20
36.0412
 30
0.0
 11
212.871
 21
32.9406
 31
0.0
  0
LINE
  8
0
 62
     0
 10
212.871
 20
32.9406
 30
0.0
 11
213.67
 21
32.9406
 31
0.0
  0
LINE
  8
0
 62
     0
 10
213.67
 20
32.9406
 30
0.0
 11
213.67
 21
31.9402
 31
0.0
  0
LINE
  8
0
 62
     0
 10
213.67
 20
31.9402
 30
0.0
 11
227.67
 21
31.9402
 31
0.0
  0
LINE
  8
0
 62
     0
 10
227.67
 20
31.9402
 30
0.0
 11
227.67
 21
32.9406
 31
0.0
  0
LINE
  8
0
 62
     0
 10
227.67
 20
32.9406
 30
0.0
 11
228.471
 21
32.9406
 31
0.0
  0
LINE
  8
0
 62
     0
 10
228.471
 20
32.9406
 30
0.0
 11
228.471
 21
36.0412
 31
0.0
  0
LINE
  8
0
 62
     0
 10
228.471
 20
36.0412
 30
0.0
 11
227.67
 21
36.0412
 31
0.0
  0
LINE
  8
0
 62
     0
 10
227.67
 20
36.0412
 30
0.0
 11
227.67
 21
41.8401
 31
0.0
  0
LINE
  8
0
 62
     0
 10
227.67
 20
41.8401
 30
0.0
 11
228.471
 21
41.8401
 31
0.0
  0
LINE
  8
0
 62
     0
 10
228.471
 20
41.8401
 30
0.0
 11
228.471
 21
44.9407
 31
0.0
  0
LINE
  8
0
 62
     0
 10
228.471
 20
44.9407
 30
0.0
 11
227.67
 21
44.9407
 31
0.0
  0
LINE
  8
0
 62
     0
 10
227.67
 20
44.9407
 30
0.0
 11
227.67
 21
45.9412
 31
0.0
  0
LINE
  8
0
 62
     0
 10
227.67
 20
45.9412
 30
0.0
 11
213.67
 21
45.9412
 31
0.0
  0
LINE
  8
0
 62
     0
 10
232.72
 20
45.9412
 30
0.0
 11
232.72
 21
44.9407
 31
0.0
  0
LINE
  8
0
 62
     0
 10
232.72
 20
44.9407
 30
0.0
 11
231.921
 21
44.9407
 31
0.0
  0
LINE
  8
0
 62
     0
 10
231.921
 20
44.9407
 30
0.0
 11
231.921
 21
41.8401
 31
0.0
  0
LINE
  8
0
 62
     0
 10
231.921
 20
41.8401
 30
0.0
 11
232.72
 21
41.8401
 31
0.0
  0
LINE
  8
0
 62
     0
 10
232.72
 20
41.8401
 30
0.0
 11
232.72
 21
36.0412
 31
0.0
  0
LINE
  8
0
 62
     0
 10
232.72
 20
36.0412
 30
0.0
 11
231.921
 21
36.0412
 31
0.0
  0
LINE
  8
0
 62
     0
 10
231.921
 20
36.0412
 30
0.0
 11
231.921
 21
32.9406
 31
0.0
  0
LINE
  8
0
 62
     0
 10
231.921
 20
32.9406
 30
0.0
 11
232.72
 21
32.9406
 31
0.0
  0
LINE
  8
0
 62
     0
 10
232.72
 20
32.9406
 30
0.0
 11
232.72
 21
31.9402
 31
0.0
  0
LINE
  8
0
 62
     0
 10
232.72
 20
31.9402
 30
0.0
 11
246.72
 21
31.9402
 31
0.0
  0
LINE
  8
0
 62
     0
 10
246.72
 20
31.9402
 30
0.0
 11
246.72
 21
32.9406
 31
0.0
  0
LINE
  8
0
 62
     0
 10
246.72
 20
32.9406
 30
0.0
 11
247.521
 21
32.9406
 31
0.0
  0
LINE
  8
0
 62
     0
 10
247.521
 20
32.9406
 30
0.0
 11
247.521
 21
36.0412
 31
0.0
  0
LINE
  8
0
 62
     0
 10
247.521
 20
36.0412
 30
0.0
 11
246.72
 21
36.0412
 31
0.0
  0
LINE
  8
0
 62
     0
 10
246.72
 20
36.0412
 30
0.0
 11
246.72
 21
41.8401
 31
0.0
  0
LINE
  8
0
 62
     0
 10
246.72
 20
41.8401
 30
0.0
 11
247.521
 21
41.8401
 31
0.0
  0
LINE
  8
0
 62
     0
 10
247.521
 20
41.8401
 30
0.0
 11
247.521
 21
44.9407
 31
0.0
  0
LINE
  8
0
 62
     0
 10
247.521
 20
44.9407
 30
0.0
 11
246.72
 21
44.9407
 31
0.0
  0
LINE
  8
0
 62
     0
 10
246.72
 20
44.9407
 30
0.0
 11
246.72
 21
45.9412
 31
0.0
  0
LINE
  8
0
 62
     0
 10
246.72
 20
45.9412
 30
0.0
 11
232.72
 21
45.9412
 31
0.0
  0
LINE
  8
0
 62
     0
 10
8.88284
 20
64.9912
 30
0.0
 11
8.88284
 21
63.9907
 31
0.0
  0
LINE
  8
0
 62
     0
 10
8.88284
 20
63.9907
 30
0.0
 11
8.08221
 21
63.9907
 31
0.0
  0
LINE
  8
0
 62
     0
 10
8.08221
 20
63.9907
 30
0.0
 11
8.08221
 21
60.8902
 31
0.0
  0
LINE
  8
0
 62
     0
 10
8.08221
 20
60.8902
 30
0.0
 11
8.88284
 21
60.8902
 31
0.0
  0
LINE
  8
0
 62
     0
 10
8.88284
 20
60.8902
 30
0.0
 11
8.88284
 21
55.0912
 31
0.0
  0
LINE
  8
0
 62
     0
 10
8.88284
 20
55.0912
 30
0.0
 11
8.08221
 21
55.0912
 31
0.0
  0
LINE
  8
0
 62
     0
 10
8.08221
 20
55.0912
 30
0.0
 11
8.08221
 21
51.9906
 31
0.0
  0
LINE
  8
0
 62
     0
 10
8.08221
 20
51.9906
 30
0.0
 11
8.88284
 21
51.9906
 31
0.0
  0
LINE
  8
0
 62
     0
 10
8.88284
 20
51.9906
 30
0.0
 11
8.88284
 21
50.9901
 31
0.0
  0
LINE
  8
0
 62
     0
 10
8.88284
 20
50.9901
 30
0.0
 11
22.8823
 21
50.9901
 31
0.0
  0
LINE
  8
0
 62
     0
 10
22.8823
 20
50.9901
 30
0.0
 11
22.8823
 21
51.9906
 31
0.0
  0
LINE
  8
0
 62
     0
 10
22.8823
 20
51.9906
 30
0.0
 11
23.683
 21
51.9906
 31
0.0
  0
LINE
  8
0
 62
     0
 10
23.683
 20
51.9906
 30
0.0
 11
23.683
 21
55.0912
 31
0.0
  0
LINE
  8
0
 62
     0
 10
23.683
 20
55.0912
 30
0.0
 11
22.8823
 21
55.0912
 31
0.0
  0
LINE
  8
0
 62
     0
 10
22.8823
 20
55.0912
 30
0.0
 11
22.8823
 21
60.8902
 31
0.0
  0
LINE
  8
0
 62
     0
 10
22.8823
 20
60.8902
 30
0.0
 11
23.683
 21
60.8902
 31
0.0
  0
LINE
  8
0
 62
     0
 10
23.683
 20
60.8902
 30
0.0
 11
23.683
 21
63.9907
 31
0.0
  0
LINE
  8
0
 62
     0
 10
23.683
 20
63.9907
 30
0.0
 11
22.8823
 21
63.9907
 31
0.0
  0
LINE
  8
0
 62
     0
 10
22.8823
 20
63.9907
 30
0.0
 11
22.8823
 21
64.9912
 31
0.0
  0
LINE
  8
0
 62
     0
 10
22.8823
 20
64.9912
 30
0.0
 11
8.88284
 21
64.9912
 31
0.0
  0
LINE
  8
0
 62
     0
 10
32.6953
 20
64.9912
 30
0.0
 11
32.6953
 21
63.9907
 31
0.0
  0
LINE
  8
0
 62
     0
 10
32.6953
 20
63.9907
 30
0.0
 11
31.8961
 21
63.9907
 31
0.0
  0
LINE
  8
0
 62
     0
 10
31.8961
 20
63.9907
 30
0.0
 11
31.8961
 21
60.8902
 31
0.0
  0
LINE
  8
0
 62
     0
 10
31.8961
 20
60.8902
 30
0.0
 11
32.6953
 21
60.8902
 31
0.0
  0
LINE
  8
0
 62
     0
 10
32.6953
 20
60.8902
 30
0.0
 11
32.6953
 21
55.0912
 31
0.0
  0
LINE
  8
0
 62
     0
 10
32.6953
 20
55.0912
 30
0.0
 11
31.8961
 21
55.0912
 31
0.0
  0
LINE
  8
0
 62
     0
 10
31.8961
 20
55.0912
 30
0.0
 11
31.8961
 21
51.9906
 31
0.0
  0
LINE
  8
0
 62
     0
 10
31.8961
 20
51.9906
 30
0.0
 11
32.6953
 21
51.9906
 31
0.0
  0
LINE
  8
0
 62
     0
 10
32.6953
 20
51.9906
 30
0.0
 11
32.6953
 21
50.9901
 31
0.0
  0
LINE
  8
0
 62
     0
 10
32.6953
 20
50.9901
 30
0.0
 11
46.6947
 21
50.9901
 31
0.0
  0
LINE
  8
0
 62
     0
 10
46.6947
 20
50.9901
 30
0.0
 11
46.6947
 21
51.9906
 31
0.0
  0
LINE
  8
0
 62
     0
 10
46.6947
 20
51.9906
 30
0.0
 11
47.4955
 21
51.9906
 31
0.0
  0
LINE
  8
0
 62
     0
 10
47.4955
 20
51.9906
 30
0.0
 11
47.4955
 21
55.0912
 31
0.0
  0
LINE
  8
0
 62
     0
 10
47.4955
 20
55.0912
 30
0.0
 11
46.6947
 21
55.0912
 31
0.0
  0
LINE
  8
0
 62
     0
 10
46.6947
 20
55.0912
 30
0.0
 11
46.6947
 21
60.8902
 31
0.0
  0
LINE
  8
0
 62
     0
 10
46.6947
 20
60.8902
 30
0.0
 11
47.4955
 21
60.8902
 31
0.0
  0
LINE
  8
0
 62
     0
 10
47.4955
 20
60.8902
 30
0.0
 11
47.4955
 21
63.9907
 31
0.0
  0
LINE
  8
0
 62
     0
 10
47.4955
 20
63.9907
 30
0.0
 11
46.6947
 21
63.9907
 31
0.0
  0
LINE
  8
0
 62
     0
 10
46.6947
 20
63.9907
 30
0.0
 11
46.6947
 21
64.9912
 31
0.0
  0
LINE
  8
0
 62
     0
 10
46.6947
 20
64.9912
 30
0.0
 11
32.6953
 21
64.9912
 31
0.0
  0
LINE
  8
0
 62
     0
 10
51.7454
 20
64.9912
 30
0.0
 11
51.7454
 21
63.9907
 31
0.0
  0
LINE
  8
0
 62
     0
 10
51.7454
 20
63.9907
 30
0.0
 11
50.9461
 21
63.9907
 31
0.0
  0
LINE
  8
0
 62
     0
 10
50.9461
 20
63.9907
 30
0.0
 11
50.9461
 21
60.8902
 31
0.0
  0
LINE
  8
0
 62
     0
 10
50.9461
 20
60.8902
 30
0.0
 11
51.7454
 21
60.8902
 31
0.0
  0
LINE
  8
0
 62
     0
 10
51.7454
 20
60.8902
 30
0.0
 11
51.7454
 21
55.0912
 31
0.0
  0
LINE
  8
0
 62
     0
 10
51.7454
 20
55.0912
 30
0.0
 11
50.9461
 21
55.0912
 31
0.0
  0
LINE
  8
0
 62
     0
 10
50.9461
 20
55.0912
 30
0.0
 11
50.9461
 21
51.9906
 31
0.0
  0
LINE
  8
0
 62
     0
 10
50.9461
 20
51.9906
 30
0.0
 11
51.7454
 21
51.9906
 31
0.0
  0
LINE
  8
0
 62
     0
 10
51.7454
 20
51.9906
 30
0.0
 11
51.7454
 21
50.9901
 31
0.0
  0
LINE
  8
0
 62
     0
 10
51.7454
 20
50.9901
 30
0.0
 11
65.7447
 21
50.9901
 31
0.0
  0
LINE
  8
0
 62
     0
 10
65.7447
 20
50.9901
 30
0.0
 11
65.7447
 21
51.9906
 31
0.0
  0
LINE
  8
0
 62
     0
 10
65.7447
 20
51.9906
 30
0.0
 11
66.5455
 21
51.9906
 31
0.0
  0
LINE
  8
0
 62
     0
 10
66.5455
 20
51.9906
 30
0.0
 11
66.5455
 21
55.0912
 31
0.0
  0
LINE
  8
0
 62
     0
 10
66.5455
 20
55.0912
 30
0.0
 11
65.7447
 21
55.0912
 31
0.0
  0
LINE
  8
0
 62
     0
 10
65.7447
 20
55.0912
 30
0.0
 11
65.7447
 21
60.8902
 31
0.0
  0
LINE
  8
0
 62
     0
 10
65.7447
 20
60.8902
 30
0.0
 11
66.5455
 21
60.8902
 31
0.0
  0
LINE
  8
0
 62
     0
 10
66.5455
 20
60.8902
 30
0.0
 11
66.5455
 21
63.9907
 31
0.0
  0
LINE
  8
0
 62
     0
 10
66.5455
 20
63.9907
 30
0.0
 11
65.7447
 21
63.9907
 31
0.0
  0
LINE
  8
0
 62
     0
 10
65.7447
 20
63.9907
 30
0.0
 11
65.7447
 21
64.9912
 31
0.0
  0
LINE
  8
0
 62
     0
 10
65.7447
 20
64.9912
 30
0.0
 11
51.7454
 21
64.9912
 31
0.0
  0
LINE
  8
0
 62
     0
 10
70.7954
 20
64.9912
 30
0.0
 11
70.7954
 21
63.9907
 31
0.0
  0
LINE
  8
0
 62
     0
 10
70.7954
 20
63.9907
 30
0.0
 11
69.9961
 21
63.9907
 31
0.0
  0
LINE
  8
0
 62
     0
 10
69.9961
 20
63.9907
 30
0.0
 11
69.9961
 21
60.8902
 31
0.0
  0
LINE
  8
0
 62
     0
 10
69.9961
 20
60.8902
 30
0.0
 11
70.7954
 21
60.8902
 31
0.0
  0
LINE
  8
0
 62
     0
 10
70.7954
 20
60.8902
 30
0.0
 11
70.7954
 21
55.0912
 31
0.0
  0
LINE
  8
0
 62
     0
 10
70.7954
 20
55.0912
 30
0.0
 11
69.9961
 21
55.0912
 31
0.0
  0
LINE
  8
0
 62
     0
 10
69.9961
 20
55.0912
 30
0.0
 11
69.9961
 21
51.9906
 31
0.0
  0
LINE
  8
0
 62
     0
 10
69.9961
 20
51.9906
 30
0.0
 11
70.7954
 21
51.9906
 31
0.0
  0
LINE
  8
0
 62
     0
 10
70.7954
 20
51.9906
 30
0.0
 11
70.7954
 21
50.9901
 31
0.0
  0
LINE
  8
0
 62
     0
 10
70.7954
 20
50.9901
 30
0.0
 11
84.7947
 21
50.9901
 31
0.0
  0
LINE
  8
0
 62
     0
 10
84.7947
 20
50.9901
 30
0.0
 11
84.7947
 21
51.9906
 31
0.0
  0
LINE
  8
0
 62
     0
 10
84.7947
 20
51.9906
 30
0.0
 11
85.5955
 21
51.9906
 31
0.0
  0
LINE
  8
0
 62
     0
 10
85.5955
 20
51.9906
 30
0.0
 11
85.5955
 21
55.0912
 31
0.0
  0
LINE
  8
0
 62
     0
 10
85.5955
 20
55.0912
 30
0.0
 11
84.7947
 21
55.0912
 31
0.0
  0
LINE
  8
0
 62
     0
 10
84.7947
 20
55.0912
 30
0.0
 11
84.7947
 21
60.8902
 31
0.0
  0
LINE
  8
0
 62
     0
 10
84.7947
 20
60.8902
 30
0.0
 11
85.5955
 21
60.8902
 31
0.0
  0
LINE
  8
0
 62
     0
 10
85.5955
 20
60.8902
 30
0.0
 11
85.5955
 21
63.9907
 31
0.0
  0
LINE
  8
0
 62
     0
 10
85.5955
 20
63.9907
 30
0.0
 11
84.7947
 21
63.9907
 31
0.0
  0
LINE
  8
0
 62
     0
 10
84.7947
 20
63.9907
 30
0.0
 11
84.7947
 21
64.9912
 31
0.0
  0
LINE
  8
0
 62
     0
 10
84.7947
 20
64.9912
 30
0.0
 11
70.7954
 21
64.9912
 31
0.0
  0
LINE
  8
0
 62
     0
 10
89.8454
 20
64.9912
 30
0.0
 11
89.8454
 21
63.9907
 31
0.0
  0
LINE
  8
0
 62
     0
 10
89.8454
 20
63.9907
 30
0.0
 11
89.0461
 21
63.9907
 31
0.0
  0
LINE
  8
0
 62
     0
 10
89.0461
 20
63.9907
 30
0.0
 11
89.0461
 21
60.8902
 31
0.0
  0
LINE
  8
0
 62
     0
 10
89.0461
 20
60.8902
 30
0.0
 11
89.8454
 21
60.8902
 31
0.0
  0
LINE
  8
0
 62
     0
 10
89.8454
 20
60.8902
 30
0.0
 11
89.8454
 21
55.0912
 31
0.0
  0
LINE
  8
0
 62
     0
 10
89.8454
 20
55.0912
 30
0.0
 11
89.0461
 21
55.0912
 31
0.0
  0
LINE
  8
0
 62
     0
 10
89.0461
 20
55.0912
 30
0.0
 11
89.0461
 21
51.9906
 31
0.0
  0
LINE
  8
0
 62
     0
 10
89.0461
 20
51.9906
 30
0.0
 11
89.8454
 21
51.9906
 31
0.0
  0
LINE
  8
0
 62
     0
 10
89.8454
 20
51.9906
 30
0.0
 11
89.8454
 21
50.9901
 31
0.0
  0
LINE
  8
0
 62
     0
 10
89.8454
 20
50.9901
 30
0.0
 11
103.845
 21
50.9901
 31
0.0
  0
LINE
  8
0
 62
     0
 10
103.845
 20
50.9901
 30
0.0
 11
103.845
 21
51.9906
 31
0.0
  0
LINE
  8
0
 62
     0
 10
103.845
 20
51.9906
 30
0.0
 11
104.646
 21
51.9906
 31
0.0
  0
LINE
  8
0
 62
     0
 10
104.646
 20
51.9906
 30
0.0
 11
104.646
 21
55.0912
 31
0.0
  0
LINE
  8
0
 62
     0
 10
104.646
 20
55.0912
 30
0.0
 11
103.845
 21
55.0912
 31
0.0
  0
LINE
  8
0
 62
     0
 10
103.845
 20
55.0912
 30
0.0
 11
103.845
 21
60.8902
 31
0.0
  0
LINE
  8
0
 62
     0
 10
103.845
 20
60.8902
 30
0.0
 11
104.646
 21
60.8902
 31
0.0
  0
LINE
  8
0
 62
     0
 10
104.646
 20
60.8902
 30
0.0
 11
104.646
 21
63.9907
 31
0.0
  0
LINE
  8
0
 62
     0
 10
104.646
 20
63.9907
 30
0.0
 11
103.845
 21
63.9907
 31
0.0
  0
LINE
  8
0
 62
     0
 10
103.845
 20
63.9907
 30
0.0
 11
103.845
 21
64.9912
 31
0.0
  0
LINE
  8
0
 62
     0
 10
103.845
 20
64.9912
 30
0.0
 11
89.8454
 21
64.9912
 31
0.0
  0
LINE
  8
0
 62
     0
 10
108.895
 20
64.9912
 30
0.0
 11
108.895
 21
63.9907
 31
0.0
  0
LINE
  8
0
 62
     0
 10
108.895
 20
63.9907
 30
0.0
 11
108.096
 21
63.9907
 31
0.0
  0
LINE
  8
0
 62
     0
 10
108.096
 20
63.9907
 30
0.0
 11
108.096
 21
60.8902
 31
0.0
  0
LINE
  8
0
 62
     0
 10
108.096
 20
60.8902
 30
0.0
 11
108.895
 21
60.8902
 31
0.0
  0
LINE
  8
0
 62
     0
 10
108.895
 20
60.8902
 30
0.0
 11
108.895
 21
55.0912
 31
0.0
  0
LINE
  8
0
 62
     0
 10
108.895
 20
55.0912
 30
0.0
 11
108.096
 21
55.0912
 31
0.0
  0
LINE
  8
0
 62
     0
 10
108.096
 20
55.0912
 30
0.0
 11
108.096
 21
51.9906
 31
0.0
  0
LINE
  8
0
 62
     0
 10
108.096
 20
51.9906
 30
0.0
 11
108.895
 21
51.9906
 31
0.0
  0
LINE
  8
0
 62
     0
 10
108.895
 20
51.9906
 30
0.0
 11
108.895
 21
50.9901
 31
0.0
  0
LINE
  8
0
 62
     0
 10
108.895
 20
50.9901
 30
0.0
 11
122.895
 21
50.9901
 31
0.0
  0
LINE
  8
0
 62
     0
 10
122.895
 20
50.9901
 30
0.0
 11
122.895
 21
51.9906
 31
0.0
  0
LINE
  8
0
 62
     0
 10
122.895
 20
51.9906
 30
0.0
 11
123.696
 21
51.9906
 31
0.0
  0
LINE
  8
0
 62
     0
 10
123.696
 20
51.9906
 30
0.0
 11
123.696
 21
55.0912
 31
0.0
  0
LINE
  8
0
 62
     0
 10
123.696
 20
55.0912
 30
0.0
 11
122.895
 21
55.0912
 31
0.0
  0
LINE
  8
0
 62
     0
 10
122.895
 20
55.0912
 30
0.0
 11
122.895
 21
60.8902
 31
0.0
  0
LINE
  8
0
 62
     0
 10
122.895
 20
60.8902
 30
0.0
 11
123.696
 21
60.8902
 31
0.0
  0
LINE
  8
0
 62
     0
 10
123.696
 20
60.8902
 30
0.0
 11
123.696
 21
63.9907
 31
0.0
  0
LINE
  8
0
 62
     0
 10
123.696
 20
63.9907
 30
0.0
 11
122.895
 21
63.9907
 31
0.0
  0
LINE
  8
0
 62
     0
 10
122.895
 20
63.9907
 30
0.0
 11
122.895
 21
64.9912
 31
0.0
  0
LINE
  8
0
 62
     0
 10
122.895
 20
64.9912
 30
0.0
 11
108.895
 21
64.9912
 31
0.0
  0
LINE
  8
0
 62
     0
 10
127.945
 20
64.9912
 30
0.0
 11
127.945
 21
63.9907
 31
0.0
  0
LINE
  8
0
 62
     0
 10
127.945
 20
63.9907
 30
0.0
 11
127.145
 21
63.9907
 31
0.0
  0
LINE
  8
0
 62
     0
 10
127.145
 20
63.9907
 30
0.0
 11
127.145
 21
60.8902
 31
0.0
  0
LINE
  8
0
 62
     0
 10
127.145
 20
60.8902
 30
0.0
 11
127.945
 21
60.8902
 31
0.0
  0
LINE
  8
0
 62
     0
 10
127.945
 20
60.8902
 30
0.0
 11
127.945
 21
55.0912
 31
0.0
  0
LINE
  8
0
 62
     0
 10
127.945
 20
55.0912
 30
0.0
 11
127.145
 21
55.0912
 31
0.0
  0
LINE
  8
0
 62
     0
 10
127.145
 20
55.0912
 30
0.0
 11
127.145
 21
51.9906
 31
0.0
  0
LINE
  8
0
 62
     0
 10
127.145
 20
51.9906
 30
0.0
 11
127.945
 21
51.9906
 31
0.0
  0
LINE
  8
0
 62
     0
 10
127.945
 20
51.9906
 30
0.0
 11
127.945
 21
50.9901
 31
0.0
  0
LINE
  8
0
 62
     0
 10
127.945
 20
50.9901
 30
0.0
 11
141.945
 21
50.9901
 31
0.0
  0
LINE
  8
0
 62
     0
 10
141.945
 20
50.9901
 30
0.0
 11
141.945
 21
51.9906
 31
0.0
  0
LINE
  8
0
 62
     0
 10
141.945
 20
51.9906
 30
0.0
 11
142.746
 21
51.9906
 31
0.0
  0
LINE
  8
0
 62
     0
 10
142.746
 20
51.9906
 30
0.0
 11
142.746
 21
55.0912
 31
0.0
  0
LINE
  8
0
 62
     0
 10
142.746
 20
55.0912
 30
0.0
 11
141.945
 21
55.0912
 31
0.0
  0
LINE
  8
0
 62
     0
 10
141.945
 20
55.0912
 30
0.0
 11
141.945
 21
60.8902
 31
0.0
  0
LINE
  8
0
 62
     0
 10
141.945
 20
60.8902
 30
0.0
 11
142.746
 21
60.8902
 31
0.0
  0
LINE
  8
0
 62
     0
 10
142.746
 20
60.8902
 30
0.0
 11
142.746
 21
63.9907
 31
0.0
  0
LINE
  8
0
 62
     0
 10
142.746
 20
63.9907
 30
0.0
 11
141.945
 21
63.9907
 31
0.0
  0
LINE
  8
0
 62
     0
 10
141.945
 20
63.9907
 30
0.0
 11
141.945
 21
64.9912
 31
0.0
  0
LINE
  8
0
 62
     0
 10
141.945
 20
64.9912
 30
0.0
 11
127.945
 21
64.9912
 31
0.0
  0
LINE
  8
0
 62
     0
 10
146.995
 20
64.9912
 30
0.0
 11
146.995
 21
63.9907
 31
0.0
  0
LINE
  8
0
 62
     0
 10
146.995
 20
63.9907
 30
0.0
 11
146.196
 21
63.9907
 31
0.0
  0
LINE
  8
0
 62
     0
 10
146.196
 20
63.9907
 30
0.0
 11
146.196
 21
60.8902
 31
0.0
  0
LINE
  8
0
 62
     0
 10
146.196
 20
60.8902
 30
0.0
 11
146.995
 21
60.8902
 31
0.0
  0
LINE
  8
0
 62
     0
 10
146.995
 20
60.8902
 30
0.0
 11
146.995
 21
55.0912
 31
0.0
  0
LINE
  8
0
 62
     0
 10
146.995
 20
55.0912
 30
0.0
 11
146.196
 21
55.0912
 31
0.0
  0
LINE
  8
0
 62
     0
 10
146.196
 20
55.0912
 30
0.0
 11
146.196
 21
51.9906
 31
0.0
  0
LINE
  8
0
 62
     0
 10
146.196
 20
51.9906
 30
0.0
 11
146.995
 21
51.9906
 31
0.0
  0
LINE
  8
0
 62
     0
 10
146.995
 20
51.9906
 30
0.0
 11
146.995
 21
50.9901
 31
0.0
  0
LINE
  8
0
 62
     0
 10
146.995
 20
50.9901
 30
0.0
 11
160.995
 21
50.9901
 31
0.0
  0
LINE
  8
0
 62
     0
 10
160.995
 20
50.9901
 30
0.0
 11
160.995
 21
51.9906
 31
0.0
  0
LINE
  8
0
 62
     0
 10
160.995
 20
51.9906
 30
0.0
 11
161.796
 21
51.9906
 31
0.0
  0
LINE
  8
0
 62
     0
 10
161.796
 20
51.9906
 30
0.0
 11
161.796
 21
55.0912
 31
0.0
  0
LINE
  8
0
 62
     0
 10
161.796
 20
55.0912
 30
0.0
 11
160.995
 21
55.0912
 31
0.0
  0
LINE
  8
0
 62
     0
 10
160.995
 20
55.0912
 30
0.0
 11
160.995
 21
60.8902
 31
0.0
  0
LINE
  8
0
 62
     0
 10
160.995
 20
60.8902
 30
0.0
 11
161.796
 21
60.8902
 31
0.0
  0
LINE
  8
0
 62
     0
 10
161.796
 20
60.8902
 30
0.0
 11
161.796
 21
63.9907
 31
0.0
  0
LINE
  8
0
 62
     0
 10
161.796
 20
63.9907
 30
0.0
 11
160.995
 21
63.9907
 31
0.0
  0
LINE
  8
0
 62
     0
 10
160.995
 20
63.9907
 30
0.0
 11
160.995
 21
64.9912
 31
0.0
  0
LINE
  8
0
 62
     0
 10
160.995
 20
64.9912
 30
0.0
 11
146.995
 21
64.9912
 31
0.0
  0
LINE
  8
0
 62
     0
 10
166.045
 20
64.9912
 30
0.0
 11
166.045
 21
63.9907
 31
0.0
  0
LINE
  8
0
 62
     0
 10
166.045
 20
63.9907
 30
0.0
 11
165.246
 21
63.9907
 31
0.0
  0
LINE
  8
0
 62
     0
 10
165.246
 20
63.9907
 30
0.0
 11
165.246
 21
60.8902
 31
0.0
  0
LINE
  8
0
 62
     0
 10
165.246
 20
60.8902
 30
0.0
 11
166.045
 21
60.8902
 31
0.0
  0
LINE
  8
0
 62
     0
 10
166.045
 20
60.8902
 30
0.0
 11
166.045
 21
55.0912
 31
0.0
  0
LINE
  8
0
 62
     0
 10
166.045
 20
55.0912
 30
0.0
 11
165.246
 21
55.0912
 31
0.0
  0
LINE
  8
0
 62
     0
 10
165.246
 20
55.0912
 30
0.0
 11
165.246
 21
51.9906
 31
0.0
  0
LINE
  8
0
 62
     0
 10
165.246
 20
51.9906
 30
0.0
 11
166.045
 21
51.9906
 31
0.0
  0
LINE
  8
0
 62
     0
 10
166.045
 20
51.9906
 30
0.0
 11
166.045
 21
50.9901
 31
0.0
  0
LINE
  8
0
 62
     0
 10
166.045
 20
50.9901
 30
0.0
 11
180.045
 21
50.9901
 31
0.0
  0
LINE
  8
0
 62
     0
 10
180.045
 20
50.9901
 30
0.0
 11
180.045
 21
51.9906
 31
0.0
  0
LINE
  8
0
 62
     0
 10
180.045
 20
51.9906
 30
0.0
 11
180.846
 21
51.9906
 31
0.0
  0
LINE
  8
0
 62
     0
 10
180.846
 20
51.9906
 30
0.0
 11
180.846
 21
55.0912
 31
0.0
  0
LINE
  8
0
 62
     0
 10
180.846
 20
55.0912
 30
0.0
 11
180.045
 21
55.0912
 31
0.0
  0
LINE
  8
0
 62
     0
 10
180.045
 20
55.0912
 30
0.0
 11
180.045
 21
60.8902
 31
0.0
  0
LINE
  8
0
 62
     0
 10
180.045
 20
60.8902
 30
0.0
 11
180.846
 21
60.8902
 31
0.0
  0
LINE
  8
0
 62
     0
 10
180.846
 20
60.8902
 30
0.0
 11
180.846
 21
63.9907
 31
0.0
  0
LINE
  8
0
 62
     0
 10
180.846
 20
63.9907
 30
0.0
 11
180.045
 21
63.9907
 31
0.0
  0
LINE
  8
0
 62
     0
 10
180.045
 20
63.9907
 30
0.0
 11
180.045
 21
64.9912
 31
0.0
  0
LINE
  8
0
 62
     0
 10
180.045
 20
64.9912
 30
0.0
 11
166.045
 21
64.9912
 31
0.0
  0
LINE
  8
0
 62
     0
 10
185.095
 20
64.9912
 30
0.0
 11
185.095
 21
63.9907
 31
0.0
  0
LINE
  8
0
 62
     0
 10
185.095
 20
63.9907
 30
0.0
 11
184.296
 21
63.9907
 31
0.0
  0
LINE
  8
0
 62
     0
 10
184.296
 20
63.9907
 30
0.0
 11
184.296
 21
60.8902
 31
0.0
  0
LINE
  8
0
 62
     0
 10
184.296
 20
60.8902
 30
0.0
 11
185.095
 21
60.8902
 31
0.0
  0
LINE
  8
0
 62
     0
 10
185.095
 20
60.8902
 30
0.0
 11
185.095
 21
55.0912
 31
0.0
  0
LINE
  8
0
 62
     0
 10
185.095
 20
55.0912
 30
0.0
 11
184.296
 21
55.0912
 31
0.0
  0
LINE
  8
0
 62
     0
 10
184.296
 20
55.0912
 30
0.0
 11
184.296
 21
51.9906
 31
0.0
  0
LINE
  8
0
 62
     0
 10
184.296
 20
51.9906
 30
0.0
 11
185.095
 21
51.9906
 31
0.0
  0
LINE
  8
0
 62
     0
 10
185.095
 20
51.9906
 30
0.0
 11
185.095
 21
50.9901
 31
0.0
  0
LINE
  8
0
 62
     0
 10
185.095
 20
50.9901
 30
0.0
 11
199.095
 21
50.9901
 31
0.0
  0
LINE
  8
0
 62
     0
 10
199.095
 20
50.9901
 30
0.0
 11
199.095
 21
51.9906
 31
0.0
  0
LINE
  8
0
 62
     0
 10
199.095
 20
51.9906
 30
0.0
 11
199.896
 21
51.9906
 31
0.0
  0
LINE
  8
0
 62
     0
 10
199.896
 20
51.9906
 30
0.0
 11
199.896
 21
55.0912
 31
0.0
  0
LINE
  8
0
 62
     0
 10
199.896
 20
55.0912
 30
0.0
 11
199.095
 21
55.0912
 31
0.0
  0
LINE
  8
0
 62
     0
 10
199.095
 20
55.0912
 30
0.0
 11
199.095
 21
60.8902
 31
0.0
  0
LINE
  8
0
 62
     0
 10
199.095
 20
60.8902
 30
0.0
 11
199.896
 21
60.8902
 31
0.0
  0
LINE
  8
0
 62
     0
 10
199.896
 20
60.8902
 30
0.0
 11
199.896
 21
63.9907
 31
0.0
  0
LINE
  8
0
 62
     0
 10
199.896
 20
63.9907
 30
0.0
 11
199.095
 21
63.9907
 31
0.0
  0
LINE
  8
0
 62
     0
 10
199.095
 20
63.9907
 30
0.0
 11
199.095
 21
64.9912
 31
0.0
  0
LINE
  8
0
 62
     0
 10
199.095
 20
64.9912
 30
0.0
 11
185.095
 21
64.9912
 31
0.0
  0
LINE
  8
0
 62
     0
 10
204.145
 20
64.9912
 30
0.0
 11
204.145
 21
63.9907
 31
0.0
  0
LINE
  8
0
 62
     0
 10
204.145
 20
63.9907
 30
0.0
 11
203.346
 21
63.9907
 31
0.0
  0
LINE
  8
0
 62
     0
 10
203.346
 20
63.9907
 30
0.0
 11
203.346
 21
60.8902
 31
0.0
  0
LINE
  8
0
 62
     0
 10
203.346
 20
60.8902
 30
0.0
 11
204.145
 21
60.8902
 31
0.0
  0
LINE
  8
0
 62
     0
 10
204.145
 20
60.8902
 30
0.0
 11
204.145
 21
55.0912
 31
0.0
  0
LINE
  8
0
 62
     0
 10
204.145
 20
55.0912
 30
0.0
 11
203.346
 21
55.0912
 31
0.0
  0
LINE
  8
0
 62
     0
 10
203.346
 20
55.0912
 30
0.0
 11
203.346
 21
51.9906
 31
0.0
  0
LINE
  8
0
 62
     0
 10
203.346
 20
51.9906
 30
0.0
 11
204.145
 21
51.9906
 31
0.0
  0
LINE
  8
0
 62
     0
 10
204.145
 20
51.9906
 30
0.0
 11
204.145
 21
50.9901
 31
0.0
  0
LINE
  8
0
 62
     0
 10
204.145
 20
50.9901
 30
0.0
 11
218.145
 21
50.9901
 31
0.0
  0
LINE
  8
0
 62
     0
 10
218.145
 20
50.9901
 30
0.0
 11
218.145
 21
51.9906
 31
0.0
  0
LINE
  8
0
 62
     0
 10
218.145
 20
51.9906
 30
0.0
 11
218.946
 21
51.9906
 31
0.0
  0
LINE
  8
0
 62
     0
 10
218.946
 20
51.9906
 30
0.0
 11
218.946
 21
55.0912
 31
0.0
  0
LINE
  8
0
 62
     0
 10
218.946
 20
55.0912
 30
0.0
 11
218.145
 21
55.0912
 31
0.0
  0
LINE
  8
0
 62
     0
 10
218.145
 20
55.0912
 30
0.0
 11
218.145
 21
60.8902
 31
0.0
  0
LINE
  8
0
 62
     0
 10
218.145
 20
60.8902
 30
0.0
 11
218.946
 21
60.8902
 31
0.0
  0
LINE
  8
0
 62
     0
 10
218.946
 20
60.8902
 30
0.0
 11
218.946
 21
63.9907
 31
0.0
  0
LINE
  8
0
 62
     0
 10
218.946
 20
63.9907
 30
0.0
 11
218.145
 21
63.9907
 31
0.0
  0
LINE
  8
0
 62
     0
 10
218.145
 20
63.9907
 30
0.0
 11
218.145
 21
64.9912
 31
0.0
  0
LINE
  8
0
 62
     0
 10
218.145
 20
64.9912
 30
0.0
 11
204.145
 21
64.9912
 31
0.0
  0
LINE
  8
0
 62
     0
 10
227.958
 20
64.9912
 30
0.0
 11
227.958
 21
63.9907
 31
0.0
  0
LINE
  8
0
 62
     0
 10
227.958
 20
63.9907
 30
0.0
 11
227.157
 21
63.9907
 31
0.0
  0
LINE
  8
0
 62
     0
 10
227.157
 20
63.9907
 30
0.0
 11
227.157
 21
60.8902
 31
0.0
  0
LINE
  8
0
 62
     0
 10
227.157
 20
60.8902
 30
0.0
 11
227.958
 21
60.8902
 31
0.0
  0
LINE
  8
0
 62
     0
 10
227.958
 20
60.8902
 30
0.0
 11
227.958
 21
55.0912
 31
0.0
  0
LINE
  8
0
 62
     0
 10
227.958
 20
55.0912
 30
0.0
 11
227.157
 21
55.0912
 31
0.0
  0
LINE
  8
0
 62
     0
 10
227.157
 20
55.0912
 30
0.0
 11
227.157
 21
51.9906
 31
0.0
  0
LINE
  8
0
 62
     0
 10
227.157
 20
51.9906
 30
0.0
 11
227.958
 21
51.9906
 31
0.0
  0
LINE
  8
0
 62
     0
 10
227.958
 20
51.9906
 30
0.0
 11
227.958
 21
50.9901
 31
0.0
  0
LINE
  8
0
 62
     0
 10
227.958
 20
50.9901
 30
0.0
 11
241.957
 21
50.9901
 31
0.0
  0
LINE
  8
0
 62
     0
 10
241.957
 20
50.9901
 30
0.0
 11
241.957
 21
51.9906
 31
0.0
  0
LINE
  8
0
 62
     0
 10
241.957
 20
51.9906
 30
0.0
 11
242.758
 21
51.9906
 31
0.0
  0
LINE
  8
0
 62
     0
 10
242.758
 20
51.9906
 30
0.0
 11
242.758
 21
55.0912
 31
0.0
  0
LINE
  8
0
 62
     0
 10
242.758
 20
55.0912
 30
0.0
 11
241.957
 21
55.0912
 31
0.0
  0
LINE
  8
0
 62
     0
 10
241.957
 20
55.0912
 30
0.0
 11
241.957
 21
60.8902
 31
0.0
  0
LINE
  8
0
 62
     0
 10
241.957
 20
60.8902
 30
0.0
 11
242.758
 21
60.8902
 31
0.0
  0
LINE
  8
0
 62
     0
 10
242.758
 20
60.8902
 30
0.0
 11
242.758
 21
63.9907
 31
0.0
  0
LINE
  8
0
 62
     0
 10
242.758
 20
63.9907
 30
0.0
 11
241.957
 21
63.9907
 31
0.0
  0
LINE
  8
0
 62
     0
 10
241.957
 20
63.9907
 30
0.0
 11
241.957
 21
64.9912
 31
0.0
  0
LINE
  8
0
 62
     0
 10
241.957
 20
64.9912
 30
0.0
 11
227.958
 21
64.9912
 31
0.0
  0
LINE
  8
0
 62
     0
 10
4.11896
 20
84.0412
 30
0.0
 11
4.11896
 21
83.0407
 31
0.0
  0
LINE
  8
0
 62
     0
 10
4.11896
 20
83.0407
 30
0.0
 11
3.3197
 21
83.0407
 31
0.0
  0
LINE
  8
0
 62
     0
 10
3.3197
 20
83.0407
 30
0.0
 11
3.3197
 21
79.9402
 31
0.0
  0
LINE
  8
0
 62
     0
 10
3.3197
 20
79.9402
 30
0.0
 11
4.11896
 21
79.9402
 31
0.0
  0
LINE
  8
0
 62
     0
 10
4.11896
 20
79.9402
 30
0.0
 11
4.11896
 21
74.1412
 31
0.0
  0
LINE
  8
0
 62
     0
 10
4.11896
 20
74.1412
 30
0.0
 11
3.3197
 21
74.1412
 31
0.0
  0
LINE
  8
0
 62
     0
 10
3.3197
 20
74.1412
 30
0.0
 11
3.3197
 21
71.0406
 31
0.0
  0
LINE
  8
0
 62
     0
 10
3.3197
 20
71.0406
 30
0.0
 11
4.11896
 21
71.0406
 31
0.0
  0
LINE
  8
0
 62
     0
 10
4.11896
 20
71.0406
 30
0.0
 11
4.11896
 21
70.0401
 31
0.0
  0
LINE
  8
0
 62
     0
 10
4.11896
 20
70.0401
 30
0.0
 11
18.1198
 21
70.0401
 31
0.0
  0
LINE
  8
0
 62
     0
 10
18.1198
 20
70.0401
 30
0.0
 11
18.1198
 21
71.0406
 31
0.0
  0
LINE
  8
0
 62
     0
 10
18.1198
 20
71.0406
 30
0.0
 11
18.9205
 21
71.0406
 31
0.0
  0
LINE
  8
0
 62
     0
 10
18.9205
 20
71.0406
 30
0.0
 11
18.9205
 21
74.1412
 31
0.0
  0
LINE
  8
0
 62
     0
 10
18.9205
 20
74.1412
 30
0.0
 11
18.1198
 21
74.1412
 31
0.0
  0
LINE
  8
0
 62
     0
 10
18.1198
 20
74.1412
 30
0.0
 11
18.1198
 21
79.9402
 31
0.0
  0
LINE
  8
0
 62
     0
 10
18.1198
 20
79.9402
 30
0.0
 11
18.9205
 21
79.9402
 31
0.0
  0
LINE
  8
0
 62
     0
 10
18.9205
 20
79.9402
 30
0.0
 11
18.9205
 21
83.0407
 31
0.0
  0
LINE
  8
0
 62
     0
 10
18.9205
 20
83.0407
 30
0.0
 11
18.1198
 21
83.0407
 31
0.0
  0
LINE
  8
0
 62
     0
 10
18.1198
 20
83.0407
 30
0.0
 11
18.1198
 21
84.0412
 31
0.0
  0
LINE
  8
0
 62
     0
 10
18.1198
 20
84.0412
 30
0.0
 11
4.11896
 21
84.0412
 31
0.0
  0
LINE
  8
0
 62
     0
 10
23.1703
 20
84.0412
 30
0.0
 11
23.1703
 21
83.0407
 31
0.0
  0
LINE
  8
0
 62
     0
 10
23.1703
 20
83.0407
 30
0.0
 11
22.3711
 21
83.0407
 31
0.0
  0
LINE
  8
0
 62
     0
 10
22.3711
 20
83.0407
 30
0.0
 11
22.3711
 21
79.9402
 31
0.0
  0
LINE
  8
0
 62
     0
 10
22.3711
 20
79.9402
 30
0.0
 11
23.1703
 21
79.9402
 31
0.0
  0
LINE
  8
0
 62
     0
 10
23.1703
 20
79.9402
 30
0.0
 11
23.1703
 21
74.1412
 31
0.0
  0
LINE
  8
0
 62
     0
 10
23.1703
 20
74.1412
 30
0.0
 11
22.3711
 21
74.1412
 31
0.0
  0
LINE
  8
0
 62
     0
 10
22.3711
 20
74.1412
 30
0.0
 11
22.3711
 21
71.0406
 31
0.0
  0
LINE
  8
0
 62
     0
 10
22.3711
 20
71.0406
 30
0.0
 11
23.1703
 21
71.0406
 31
0.0
  0
LINE
  8
0
 62
     0
 10
23.1703
 20
71.0406
 30
0.0
 11
23.1703
 21
70.0401
 31
0.0
  0
LINE
  8
0
 62
     0
 10
23.1703
 20
70.0401
 30
0.0
 11
37.1697
 21
70.0401
 31
0.0
  0
LINE
  8
0
 62
     0
 10
37.1697
 20
70.0401
 30
0.0
 11
37.1697
 21
71.0406
 31
0.0
  0
LINE
  8
0
 62
     0
 10
37.1697
 20
71.0406
 30
0.0
 11
37.9705
 21
71.0406
 31
0.0
  0
LINE
  8
0
 62
     0
 10
37.9705
 20
71.0406
 30
0.0
 11
37.9705
 21
74.1412
 31
0.0
  0
LINE
  8
0
 62
     0
 10
37.9705
 20
74.1412
 30
0.0
 11
37.1697
 21
74.1412
 31
0.0
  0
LINE
  8
0
 62
     0
 10
37.1697
 20
74.1412
 30
0.0
 11
37.1697
 21
79.9402
 31
0.0
  0
LINE
  8
0
 62
     0
 10
37.1697
 20
79.9402
 30
0.0
 11
37.9705
 21
79.9402
 31
0.0
  0
LINE
  8
0
 62
     0
 10
37.9705
 20
79.9402
 30
0.0
 11
37.9705
 21
83.0407
 31
0.0
  0
LINE
  8
0
 62
     0
 10
37.9705
 20
83.0407
 30
0.0
 11
37.1697
 21
83.0407
 31
0.0
  0
LINE
  8
0
 62
     0
 10
37.1697
 20
83.0407
 30
0.0
 11
37.1697
 21
84.0412
 31
0.0
  0
LINE
  8
0
 62
     0
 10
37.1697
 20
84.0412
 30
0.0
 11
23.1703
 21
84.0412
 31
0.0
  0
LINE
  8
0
 62
     0
 10
42.2204
 20
84.0412
 30
0.0
 11
42.2204
 21
83.0407
 31
0.0
  0
LINE
  8
0
 62
     0
 10
42.2204
 20
83.0407
 30
0.0
 11
41.4211
 21
83.0407
 31
0.0
  0
LINE
  8
0
 62
     0
 10
41.4211
 20
83.0407
 30
0.0
 11
41.4211
 21
79.9402
 31
0.0
  0
LINE
  8
0
 62
     0
 10
41.4211
 20
79.9402
 30
0.0
 11
42.2204
 21
79.9402
 31
0.0
  0
LINE
  8
0
 62
     0
 10
42.2204
 20
79.9402
 30
0.0
 11
42.2204
 21
74.1412
 31
0.0
  0
LINE
  8
0
 62
     0
 10
42.2204
 20
74.1412
 30
0.0
 11
41.4211
 21
74.1412
 31
0.0
  0
LINE
  8
0
 62
     0
 10
41.4211
 20
74.1412
 30
0.0
 11
41.4211
 21
71.0406
 31
0.0
  0
LINE
  8
0
 62
     0
 10
41.4211
 20
71.0406
 30
0.0
 11
42.2204
 21
71.0406
 31
0.0
  0
LINE
  8
0
 62
     0
 10
42.2204
 20
71.0406
 30
0.0
 11
42.2204
 21
70.0401
 31
0.0
  0
LINE
  8
0
 62
     0
 10
42.2204
 20
70.0401
 30
0.0
 11
56.2197
 21
70.0401
 31
0.0
  0
LINE
  8
0
 62
     0
 10
56.2197
 20
70.0401
 30
0.0
 11
56.2197
 21
71.0406
 31
0.0
  0
LINE
  8
0
 62
     0
 10
56.2197
 20
71.0406
 30
0.0
 11
57.0205
 21
71.0406
 31
0.0
  0
LINE
  8
0
 62
     0
 10
57.0205
 20
71.0406
 30
0.0
 11
57.0205
 21
74.1412
 31
0.0
  0
LINE
  8
0
 62
     0
 10
57.0205
 20
74.1412
 30
0.0
 11
56.2197
 21
74.1412
 31
0.0
  0
LINE
  8
0
 62
     0
 10
56.2197
 20
74.1412
 30
0.0
 11
56.2197
 21
79.9402
 31
0.0
  0
LINE
  8
0
 62
     0
 10
56.2197
 20
79.9402
 30
0.0
 11
57.0205
 21
79.9402
 31
0.0
  0
LINE
  8
0
 62
     0
 10
57.0205
 20
79.9402
 30
0.0
 11
57.0205
 21
83.0407
 31
0.0
  0
LINE
  8
0
 62
     0
 10
57.0205
 20
83.0407
 30
0.0
 11
56.2197
 21
83.0407
 31
0.0
  0
LINE
  8
0
 62
     0
 10
56.2197
 20
83.0407
 30
0.0
 11
56.2197
 21
84.0412
 31
0.0
  0
LINE
  8
0
 62
     0
 10
56.2197
 20
84.0412
 30
0.0
 11
42.2204
 21
84.0412
 31
0.0
  0
LINE
  8
0
 62
     0
 10
61.2704
 20
84.0412
 30
0.0
 11
61.2704
 21
83.0407
 31
0.0
  0
LINE
  8
0
 62
     0
 10
61.2704
 20
83.0407
 30
0.0
 11
60.4711
 21
83.0407
 31
0.0
  0
LINE
  8
0
 62
     0
 10
60.4711
 20
83.0407
 30
0.0
 11
60.4711
 21
79.9402
 31
0.0
  0
LINE
  8
0
 62
     0
 10
60.4711
 20
79.9402
 30
0.0
 11
61.2704
 21
79.9402
 31
0.0
  0
LINE
  8
0
 62
     0
 10
61.2704
 20
79.9402
 30
0.0
 11
61.2704
 21
74.1412
 31
0.0
  0
LINE
  8
0
 62
     0
 10
61.2704
 20
74.1412
 30
0.0
 11
60.4711
 21
74.1412
 31
0.0
  0
LINE
  8
0
 62
     0
 10
60.4711
 20
74.1412
 30
0.0
 11
60.4711
 21
71.0406
 31
0.0
  0
LINE
  8
0
 62
     0
 10
60.4711
 20
71.0406
 30
0.0
 11
61.2704
 21
71.0406
 31
0.0
  0
LINE
  8
0
 62
     0
 10
61.2704
 20
71.0406
 30
0.0
 11
61.2704
 21
70.0401
 31
0.0
  0
LINE
  8
0
 62
     0
 10
61.2704
 20
70.0401
 30
0.0
 11
75.2697
 21
70.0401
 31
0.0
  0
LINE
  8
0
 62
     0
 10
75.2697
 20
70.0401
 30
0.0
 11
75.2697
 21
71.0406
 31
0.0
  0
LINE
  8
0
 62
     0
 10
75.2697
 20
71.0406
 30
0.0
 11
76.0705
 21
71.0406
 31
0.0
  0
LINE
  8
0
 62
     0
 10
76.0705
 20
71.0406
 30
0.0
 11
76.0705
 21
74.1412
 31
0.0
  0
LINE
  8
0
 62
     0
 10
76.0705
 20
74.1412
 30
0.0
 11
75.2697
 21
74.1412
 31
0.0
  0
LINE
  8
0
 62
     0
 10
75.2697
 20
74.1412
 30
0.0
 11
75.2697
 21
79.9402
 31
0.0
  0
LINE
  8
0
 62
     0
 10
75.2697
 20
79.9402
 30
0.0
 11
76.0705
 21
79.9402
 31
0.0
  0
LINE
  8
0
 62
     0
 10
76.0705
 20
79.9402
 30
0.0
 11
76.0705
 21
83.0407
 31
0.0
  0
LINE
  8
0
 62
     0
 10
76.0705
 20
83.0407
 30
0.0
 11
75.2697
 21
83.0407
 31
0.0
  0
LINE
  8
0
 62
     0
 10
75.2697
 20
83.0407
 30
0.0
 11
75.2697
 21
84.0412
 31
0.0
  0
LINE
  8
0
 62
     0
 10
75.2697
 20
84.0412
 30
0.0
 11
61.2704
 21
84.0412
 31
0.0
  0
LINE
  8
0
 62
     0
 10
80.3204
 20
84.0412
 30
0.0
 11
80.3204
 21
83.0407
 31
0.0
  0
LINE
  8
0
 62
     0
 10
80.3204
 20
83.0407
 30
0.0
 11
79.5211
 21
83.0407
 31
0.0
  0
LINE
  8
0
 62
     0
 10
79.5211
 20
83.0407
 30
0.0
 11
79.5211
 21
79.9402
 31
0.0
  0
LINE
  8
0
 62
     0
 10
79.5211
 20
79.9402
 30
0.0
 11
80.3204
 21
79.9402
 31
0.0
  0
LINE
  8
0
 62
     0
 10
80.3204
 20
79.9402
 30
0.0
 11
80.3204
 21
74.1412
 31
0.0
  0
LINE
  8
0
 62
     0
 10
80.3204
 20
74.1412
 30
0.0
 11
79.5211
 21
74.1412
 31
0.0
  0
LINE
  8
0
 62
     0
 10
79.5211
 20
74.1412
 30
0.0
 11
79.5211
 21
71.0406
 31
0.0
  0
LINE
  8
0
 62
     0
 10
79.5211
 20
71.0406
 30
0.0
 11
80.3204
 21
71.0406
 31
0.0
  0
LINE
  8
0
 62
     0
 10
80.3204
 20
71.0406
 30
0.0
 11
80.3204
 21
70.0401
 31
0.0
  0
LINE
  8
0
 62
     0
 10
80.3204
 20
70.0401
 30
0.0
 11
94.3197
 21
70.0401
 31
0.0
  0
LINE
  8
0
 62
     0
 10
94.3197
 20
70.0401
 30
0.0
 11
94.3197
 21
71.0406
 31
0.0
  0
LINE
  8
0
 62
     0
 10
94.3197
 20
71.0406
 30
0.0
 11
95.1191
 21
71.0406
 31
0.0
  0
LINE
  8
0
 62
     0
 10
95.1191
 20
71.0406
 30
0.0
 11
95.1191
 21
74.1412
 31
0.0
  0
LINE
  8
0
 62
     0
 10
95.1191
 20
74.1412
 30
0.0
 11
94.3197
 21
74.1412
 31
0.0
  0
LINE
  8
0
 62
     0
 10
94.3197
 20
74.1412
 30
0.0
 11
94.3197
 21
79.9402
 31
0.0
  0
LINE
  8
0
 62
     0
 10
94.3197
 20
79.9402
 30
0.0
 11
95.1191
 21
79.9402
 31
0.0
  0
LINE
  8
0
 62
     0
 10
95.1191
 20
79.9402
 30
0.0
 11
95.1191
 21
83.0407
 31
0.0
  0
LINE
  8
0
 62
     0
 10
95.1191
 20
83.0407
 30
0.0
 11
94.3197
 21
83.0407
 31
0.0
  0
LINE
  8
0
 62
     0
 10
94.3197
 20
83.0407
 30
0.0
 11
94.3197
 21
84.0412
 31
0.0
  0
LINE
  8
0
 62
     0
 10
94.3197
 20
84.0412
 30
0.0
 11
80.3204
 21
84.0412
 31
0.0
  0
LINE
  8
0
 62
     0
 10
99.369
 20
84.0412
 30
0.0
 11
99.369
 21
83.0407
 31
0.0
  0
LINE
  8
0
 62
     0
 10
99.369
 20
83.0407
 30
0.0
 11
98.5711
 21
83.0407
 31
0.0
  0
LINE
  8
0
 62
     0
 10
98.5711
 20
83.0407
 30
0.0
 11
98.5711
 21
79.9402
 31
0.0
  0
LINE
  8
0
 62
     0
 10
98.5711
 20
79.9402
 30
0.0
 11
99.369
 21
79.9402
 31
0.0
  0
LINE
  8
0
 62
     0
 10
99.369
 20
79.9402
 30
0.0
 11
99.369
 21
74.1412
 31
0.0
  0
LINE
  8
0
 62
     0
 10
99.369
 20
74.1412
 30
0.0
 11
98.5711
 21
74.1412
 31
0.0
  0
LINE
  8
0
 62
     0
 10
98.5711
 20
74.1412
 30
0.0
 11
98.5711
 21
71.0406
 31
0.0
  0
LINE
  8
0
 62
     0
 10
98.5711
 20
71.0406
 30
0.0
 11
99.369
 21
71.0406
 31
0.0
  0
LINE
  8
0
 62
     0
 10
99.369
 20
71.0406
 30
0.0
 11
99.369
 21
70.0401
 31
0.0
  0
LINE
  8
0
 62
     0
 10
99.369
 20
70.0401
 30
0.0
 11
113.37
 21
70.0401
 31
0.0
  0
LINE
  8
0
 62
     0
 10
113.37
 20
70.0401
 30
0.0
 11
113.37
 21
71.0406
 31
0.0
  0
LINE
  8
0
 62
     0
 10
113.37
 20
71.0406
 30
0.0
 11
114.169
 21
71.0406
 31
0.0
  0
LINE
  8
0
 62
     0
 10
114.169
 20
71.0406
 30
0.0
 11
114.169
 21
74.1412
 31
0.0
  0
LINE
  8
0
 62
     0
 10
114.169
 20
74.1412
 30
0.0
 11
113.37
 21
74.1412
 31
0.0
  0
LINE
  8
0
 62
     0
 10
113.37
 20
74.1412
 30
0.0
 11
113.37
 21
79.9402
 31
0.0
  0
LINE
  8
0
 62
     0
 10
113.37
 20
79.9402
 30
0.0
 11
114.169
 21
79.9402
 31
0.0
  0
LINE
  8
0
 62
     0
 10
114.169
 20
79.9402
 30
0.0
 11
114.169
 21
83.0407
 31
0.0
  0
LINE
  8
0
 62
     0
 10
114.169
 20
83.0407
 30
0.0
 11
113.37
 21
83.0407
 31
0.0
  0
LINE
  8
0
 62
     0
 10
113.37
 20
83.0407
 30
0.0
 11
113.37
 21
84.0412
 31
0.0
  0
LINE
  8
0
 62
     0
 10
113.37
 20
84.0412
 30
0.0
 11
99.369
 21
84.0412
 31
0.0
  0
LINE
  8
0
 62
     0
 10
118.419
 20
84.0412
 30
0.0
 11
118.419
 21
83.0407
 31
0.0
  0
LINE
  8
0
 62
     0
 10
118.419
 20
83.0407
 30
0.0
 11
117.62
 21
83.0407
 31
0.0
  0
LINE
  8
0
 62
     0
 10
117.62
 20
83.0407
 30
0.0
 11
117.62
 21
79.9402
 31
0.0
  0
LINE
  8
0
 62
     0
 10
117.62
 20
79.9402
 30
0.0
 11
118.419
 21
79.9402
 31
0.0
  0
LINE
  8
0
 62
     0
 10
118.419
 20
79.9402
 30
0.0
 11
118.419
 21
74.1412
 31
0.0
  0
LINE
  8
0
 62
     0
 10
118.419
 20
74.1412
 30
0.0
 11
117.62
 21
74.1412
 31
0.0
  0
LINE
  8
0
 62
     0
 10
117.62
 20
74.1412
 30
0.0
 11
117.62
 21
71.0406
 31
0.0
  0
LINE
  8
0
 62
     0
 10
117.62
 20
71.0406
 30
0.0
 11
118.419
 21
71.0406
 31
0.0
  0
LINE
  8
0
 62
     0
 10
118.419
 20
71.0406
 30
0.0
 11
118.419
 21
70.0401
 31
0.0
  0
LINE
  8
0
 62
     0
 10
118.419
 20
70.0401
 30
0.0
 11
132.42
 21
70.0401
 31
0.0
  0
LINE
  8
0
 62
     0
 10
132.42
 20
70.0401
 30
0.0
 11
132.42
 21
71.0406
 31
0.0
  0
LINE
  8
0
 62
     0
 10
132.42
 20
71.0406
 30
0.0
 11
133.221
 21
71.0406
 31
0.0
  0
LINE
  8
0
 62
     0
 10
133.221
 20
71.0406
 30
0.0
 11
133.221
 21
74.1412
 31
0.0
  0
LINE
  8
0
 62
     0
 10
133.221
 20
74.1412
 30
0.0
 11
132.42
 21
74.1412
 31
0.0
  0
LINE
  8
0
 62
     0
 10
132.42
 20
74.1412
 30
0.0
 11
132.42
 21
79.9402
 31
0.0
  0
LINE
  8
0
 62
     0
 10
132.42
 20
79.9402
 30
0.0
 11
133.221
 21
79.9402
 31
0.0
  0
LINE
  8
0
 62
     0
 10
133.221
 20
79.9402
 30
0.0
 11
133.221
 21
83.0407
 31
0.0
  0
LINE
  8
0
 62
     0
 10
133.221
 20
83.0407
 30
0.0
 11
132.42
 21
83.0407
 31
0.0
  0
LINE
  8
0
 62
     0
 10
132.42
 20
83.0407
 30
0.0
 11
132.42
 21
84.0412
 31
0.0
  0
LINE
  8
0
 62
     0
 10
132.42
 20
84.0412
 30
0.0
 11
118.419
 21
84.0412
 31
0.0
  0
LINE
  8
0
 62
     0
 10
137.47
 20
84.0412
 30
0.0
 11
137.47
 21
83.0407
 31
0.0
  0
LINE
  8
0
 62
     0
 10
137.47
 20
83.0407
 30
0.0
 11
136.671
 21
83.0407
 31
0.0
  0
LINE
  8
0
 62
     0
 10
136.671
 20
83.0407
 30
0.0
 11
136.671
 21
79.9402
 31
0.0
  0
LINE
  8
0
 62
     0
 10
136.671
 20
79.9402
 30
0.0
 11
137.47
 21
79.9402
 31
0.0
  0
LINE
  8
0
 62
     0
 10
137.47
 20
79.9402
 30
0.0
 11
137.47
 21
74.1412
 31
0.0
  0
LINE
  8
0
 62
     0
 10
137.47
 20
74.1412
 30
0.0
 11
136.671
 21
74.1412
 31
0.0
  0
LINE
  8
0
 62
     0
 10
136.671
 20
74.1412
 30
0.0
 11
136.671
 21
71.0406
 31
0.0
  0
LINE
  8
0
 62
     0
 10
136.671
 20
71.0406
 30
0.0
 11
137.47
 21
71.0406
 31
0.0
  0
LINE
  8
0
 62
     0
 10
137.47
 20
71.0406
 30
0.0
 11
137.47
 21
70.0401
 31
0.0
  0
LINE
  8
0
 62
     0
 10
137.47
 20
70.0401
 30
0.0
 11
151.47
 21
70.0401
 31
0.0
  0
LINE
  8
0
 62
     0
 10
151.47
 20
70.0401
 30
0.0
 11
151.47
 21
71.0406
 31
0.0
  0
LINE
  8
0
 62
     0
 10
151.47
 20
71.0406
 30
0.0
 11
152.271
 21
71.0406
 31
0.0
  0
LINE
  8
0
 62
     0
 10
152.271
 20
71.0406
 30
0.0
 11
152.271
 21
74.1412
 31
0.0
  0
LINE
  8
0
 62
     0
 10
152.271
 20
74.1412
 30
0.0
 11
151.47
 21
74.1412
 31
0.0
  0
LINE
  8
0
 62
     0
 10
151.47
 20
74.1412
 30
0.0
 11
151.47
 21
79.9402
 31
0.0
  0
LINE
  8
0
 62
     0
 10
151.47
 20
79.9402
 30
0.0
 11
152.271
 21
79.9402
 31
0.0
  0
LINE
  8
0
 62
     0
 10
152.271
 20
79.9402
 30
0.0
 11
152.271
 21
83.0407
 31
0.0
  0
LINE
  8
0
 62
     0
 10
152.271
 20
83.0407
 30
0.0
 11
151.47
 21
83.0407
 31
0.0
  0
LINE
  8
0
 62
     0
 10
151.47
 20
83.0407
 30
0.0
 11
151.47
 21
84.0412
 31
0.0
  0
LINE
  8
0
 62
     0
 10
151.47
 20
84.0412
 30
0.0
 11
137.47
 21
84.0412
 31
0.0
  0
LINE
  8
0
 62
     0
 10
156.52
 20
84.0412
 30
0.0
 11
156.52
 21
83.0407
 31
0.0
  0
LINE
  8
0
 62
     0
 10
156.52
 20
83.0407
 30
0.0
 11
155.721
 21
83.0407
 31
0.0
  0
LINE
  8
0
 62
     0
 10
155.721
 20
83.0407
 30
0.0
 11
155.721
 21
79.9402
 31
0.0
  0
LINE
  8
0
 62
     0
 10
155.721
 20
79.9402
 30
0.0
 11
156.52
 21
79.9402
 31
0.0
  0
LINE
  8
0
 62
     0
 10
156.52
 20
79.9402
 30
0.0
 11
156.52
 21
74.1412
 31
0.0
  0
LINE
  8
0
 62
     0
 10
156.52
 20
74.1412
 30
0.0
 11
155.721
 21
74.1412
 31
0.0
  0
LINE
  8
0
 62
     0
 10
155.721
 20
74.1412
 30
0.0
 11
155.721
 21
71.0406
 31
0.0
  0
LINE
  8
0
 62
     0
 10
155.721
 20
71.0406
 30
0.0
 11
156.52
 21
71.0406
 31
0.0
  0
LINE
  8
0
 62
     0
 10
156.52
 20
71.0406
 30
0.0
 11
156.52
 21
70.0401
 31
0.0
  0
LINE
  8
0
 62
     0
 10
156.52
 20
70.0401
 30
0.0
 11
170.52
 21
70.0401
 31
0.0
  0
LINE
  8
0
 62
     0
 10
170.52
 20
70.0401
 30
0.0
 11
170.52
 21
71.0406
 31
0.0
  0
LINE
  8
0
 62
     0
 10
170.52
 20
71.0406
 30
0.0
 11
171.321
 21
71.0406
 31
0.0
  0
LINE
  8
0
 62
     0
 10
171.321
 20
71.0406
 30
0.0
 11
171.321
 21
74.1412
 31
0.0
  0
LINE
  8
0
 62
     0
 10
171.321
 20
74.1412
 30
0.0
 11
170.52
 21
74.1412
 31
0.0
  0
LINE
  8
0
 62
     0
 10
170.52
 20
74.1412
 30
0.0
 11
170.52
 21
79.9402
 31
0.0
  0
LINE
  8
0
 62
     0
 10
170.52
 20
79.9402
 30
0.0
 11
171.321
 21
79.9402
 31
0.0
  0
LINE
  8
0
 62
     0
 10
171.321
 20
79.9402
 30
0.0
 11
171.321
 21
83.0407
 31
0.0
  0
LINE
  8
0
 62
     0
 10
171.321
 20
83.0407
 30
0.0
 11
170.52
 21
83.0407
 31
0.0
  0
LINE
  8
0
 62
     0
 10
170.52
 20
83.0407
 30
0.0
 11
170.52
 21
84.0412
 31
0.0
  0
LINE
  8
0
 62
     0
 10
170.52
 20
84.0412
 30
0.0
 11
156.52
 21
84.0412
 31
0.0
  0
LINE
  8
0
 62
     0
 10
175.57
 20
84.0412
 30
0.0
 11
175.57
 21
83.0407
 31
0.0
  0
LINE
  8
0
 62
     0
 10
175.57
 20
83.0407
 30
0.0
 11
174.771
 21
83.0407
 31
0.0
  0
LINE
  8
0
 62
     0
 10
174.771
 20
83.0407
 30
0.0
 11
174.771
 21
79.9402
 31
0.0
  0
LINE
  8
0
 62
     0
 10
174.771
 20
79.9402
 30
0.0
 11
175.57
 21
79.9402
 31
0.0
  0
LINE
  8
0
 62
     0
 10
175.57
 20
79.9402
 30
0.0
 11
175.57
 21
74.1412
 31
0.0
  0
LINE
  8
0
 62
     0
 10
175.57
 20
74.1412
 30
0.0
 11
174.771
 21
74.1412
 31
0.0
  0
LINE
  8
0
 62
     0
 10
174.771
 20
74.1412
 30
0.0
 11
174.771
 21
71.0406
 31
0.0
  0
LINE
  8
0
 62
     0
 10
174.771
 20
71.0406
 30
0.0
 11
175.57
 21
71.0406
 31
0.0
  0
LINE
  8
0
 62
     0
 10
175.57
 20
71.0406
 30
0.0
 11
175.57
 21
70.0401
 31
0.0
  0
LINE
  8
0
 62
     0
 10
175.57
 20
70.0401
 30
0.0
 11
189.57
 21
70.0401
 31
0.0
  0
LINE
  8
0
 62
     0
 10
189.57
 20
70.0401
 30
0.0
 11
189.57
 21
71.0406
 31
0.0
  0
LINE
  8
0
 62
     0
 10
189.57
 20
71.0406
 30
0.0
 11
190.371
 21
71.0406
 31
0.0
  0
LINE
  8
0
 62
     0
 10
190.371
 20
71.0406
 30
0.0
 11
190.371
 21
74.1412
 31
0.0
  0
LINE
  8
0
 62
     0
 10
190.371
 20
74.1412
 30
0.0
 11
189.57
 21
74.1412
 31
0.0
  0
LINE
  8
0
 62
     0
 10
189.57
 20
74.1412
 30
0.0
 11
189.57
 21
79.9402
 31
0.0
  0
LINE
  8
0
 62
     0
 10
189.57
 20
79.9402
 30
0.0
 11
190.371
 21
79.9402
 31
0.0
  0
LINE
  8
0
 62
     0
 10
190.371
 20
79.9402
 30
0.0
 11
190.371
 21
83.0407
 31
0.0
  0
LINE
  8
0
 62
     0
 10
190.371
 20
83.0407
 30
0.0
 11
189.57
 21
83.0407
 31
0.0
  0
LINE
  8
0
 62
     0
 10
189.57
 20
83.0407
 30
0.0
 11
189.57
 21
84.0412
 31
0.0
  0
LINE
  8
0
 62
     0
 10
189.57
 20
84.0412
 30
0.0
 11
175.57
 21
84.0412
 31
0.0
  0
LINE
  8
0
 62
     0
 10
194.62
 20
84.0412
 30
0.0
 11
194.62
 21
83.0407
 31
0.0
  0
LINE
  8
0
 62
     0
 10
194.62
 20
83.0407
 30
0.0
 11
193.821
 21
83.0407
 31
0.0
  0
LINE
  8
0
 62
     0
 10
193.821
 20
83.0407
 30
0.0
 11
193.821
 21
79.9402
 31
0.0
  0
LINE
  8
0
 62
     0
 10
193.821
 20
79.9402
 30
0.0
 11
194.62
 21
79.9402
 31
0.0
  0
LINE
  8
0
 62
     0
 10
194.62
 20
79.9402
 30
0.0
 11
194.62
 21
74.1412
 31
0.0
  0
LINE
  8
0
 62
     0
 10
194.62
 20
74.1412
 30
0.0
 11
193.821
 21
74.1412
 31
0.0
  0
LINE
  8
0
 62
     0
 10
193.821
 20
74.1412
 30
0.0
 11
193.821
 21
71.0406
 31
0.0
  0
LINE
  8
0
 62
     0
 10
193.821
 20
71.0406
 30
0.0
 11
194.62
 21
71.0406
 31
0.0
  0
LINE
  8
0
 62
     0
 10
194.62
 20
71.0406
 30
0.0
 11
194.62
 21
70.0401
 31
0.0
  0
LINE
  8
0
 62
     0
 10
194.62
 20
70.0401
 30
0.0
 11
208.62
 21
70.0401
 31
0.0
  0
LINE
  8
0
 62
     0
 10
208.62
 20
70.0401
 30
0.0
 11
208.62
 21
71.0406
 31
0.0
  0
LINE
  8
0
 62
     0
 10
208.62
 20
71.0406
 30
0.0
 11
209.421
 21
71.0406
 31
0.0
  0
LINE
  8
0
 62
     0
 10
209.421
 20
71.0406
 30
0.0
 11
209.421
 21
74.1412
 31
0.0
  0
LINE
  8
0
 62
     0
 10
209.421
 20
74.1412
 30
0.0
 11
208.62
 21
74.1412
 31
0.0
  0
LINE
  8
0
 62
     0
 10
208.62
 20
74.1412
 30
0.0
 11
208.62
 21
79.9402
 31
0.0
  0
LINE
  8
0
 62
     0
 10
208.62
 20
79.9402
 30
0.0
 11
209.421
 21
79.9402
 31
0.0
  0
LINE
  8
0
 62
     0
 10
209.421
 20
79.9402
 30
0.0
 11
209.421
 21
83.0407
 31
0.0
  0
LINE
  8
0
 62
     0
 10
209.421
 20
83.0407
 30
0.0
 11
208.62
 21
83.0407
 31
0.0
  0
LINE
  8
0
 62
     0
 10
208.62
 20
83.0407
 30
0.0
 11
208.62
 21
84.0412
 31
0.0
  0
LINE
  8
0
 62
     0
 10
208.62
 20
84.0412
 30
0.0
 11
194.62
 21
84.0412
 31
0.0
  0
LINE
  8
0
 62
     0
 10
213.67
 20
84.0412
 30
0.0
 11
213.67
 21
83.0407
 31
0.0
  0
LINE
  8
0
 62
     0
 10
213.67
 20
83.0407
 30
0.0
 11
212.871
 21
83.0407
 31
0.0
  0
LINE
  8
0
 62
     0
 10
212.871
 20
83.0407
 30
0.0
 11
212.871
 21
79.9402
 31
0.0
  0
LINE
  8
0
 62
     0
 10
212.871
 20
79.9402
 30
0.0
 11
213.67
 21
79.9402
 31
0.0
  0
LINE
  8
0
 62
     0
 10
213.67
 20
79.9402
 30
0.0
 11
213.67
 21
74.1412
 31
0.0
  0
LINE
  8
0
 62
     0
 10
213.67
 20
74.1412
 30
0.0
 11
212.871
 21
74.1412
 31
0.0
  0
LINE
  8
0
 62
     0
 10
212.871
 20
74.1412
 30
0.0
 11
212.871
 21
71.0406
 31
0.0
  0
LINE
  8
0
 62
     0
 10
212.871
 20
71.0406
 30
0.0
 11
213.67
 21
71.0406
 31
0.0
  0
LINE
  8
0
 62
     0
 10
213.67
 20
71.0406
 30
0.0
 11
213.67
 21
70.0401
 31
0.0
  0
LINE
  8
0
 62
     0
 10
213.67
 20
70.0401
 30
0.0
 11
227.67
 21
70.0401
 31
0.0
  0
LINE
  8
0
 62
     0
 10
227.67
 20
70.0401
 30
0.0
 11
227.67
 21
71.0406
 31
0.0
  0
LINE
  8
0
 62
     0
 10
227.67
 20
71.0406
 30
0.0
 11
228.471
 21
71.0406
 31
0.0
  0
LINE
  8
0
 62
     0
 10
228.471
 20
71.0406
 30
0.0
 11
228.471
 21
74.1412
 31
0.0
  0
LINE
  8
0
 62
     0
 10
228.471
 20
74.1412
 30
0.0
 11
227.67
 21
74.1412
 31
0.0
  0
LINE
  8
0
 62
     0
 10
227.67
 20
74.1412
 30
0.0
 11
227.67
 21
79.9402
 31
0.0
  0
LINE
  8
0
 62
     0
 10
227.67
 20
79.9402
 30
0.0
 11
228.471
 21
79.9402
 31
0.0
  0
LINE
  8
0
 62
     0
 10
228.471
 20
79.9402
 30
0.0
 11
228.471
 21
83.0407
 31
0.0
  0
LINE
  8
0
 62
     0
 10
228.471
 20
83.0407
 30
0.0
 11
227.67
 21
83.0407
 31
0.0
  0
LINE
  8
0
 62
     0
 10
227.67
 20
83.0407
 30
0.0
 11
227.67
 21
84.0412
 31
0.0
  0
LINE
  8
0
 62
     0
 10
227.67
 20
84.0412
 30
0.0
 11
213.67
 21
84.0412
 31
0.0
  0
LINE
  8
0
 62
     0
 10
232.72
 20
84.0412
 30
0.0
 11
232.72
 21
83.0407
 31
0.0
  0
LINE
  8
0
 62
     0
 10
232.72
 20
83.0407
 30
0.0
 11
231.921
 21
83.0407
 31
0.0
  0
LINE
  8
0
 62
     0
 10
231.921
 20
83.0407
 30
0.0
 11
231.921
 21
79.9402
 31
0.0
  0
LINE
  8
0
 62
     0
 10
231.921
 20
79.9402
 30
0.0
 11
232.72
 21
79.9402
 31
0.0
  0
LINE
  8
0
 62
     0
 10
232.72
 20
79.9402
 30
0.0
 11
232.72
 21
74.1412
 31
0.0
  0
LINE
  8
0
 62
     0
 10
232.72
 20
74.1412
 30
0.0
 11
231.921
 21
74.1412
 31
0.0
  0
LINE
  8
0
 62
     0
 10
231.921
 20
74.1412
 30
0.0
 11
231.921
 21
71.0406
 31
0.0
  0
LINE
  8
0
 62
     0
 10
231.921
 20
71.0406
 30
0.0
 11
232.72
 21
71.0406
 31
0.0
  0
LINE
  8
0
 62
     0
 10
232.72
 20
71.0406
 30
0.0
 11
232.72
 21
70.0401
 31
0.0
  0
LINE
  8
0
 62
     0
 10
232.72
 20
70.0401
 30
0.0
 11
246.72
 21
70.0401
 31
0.0
  0
LINE
  8
0
 62
     0
 10
246.72
 20
70.0401
 30
0.0
 11
246.72
 21
71.0406
 31
0.0
  0
LINE
  8
0
 62
     0
 10
246.72
 20
71.0406
 30
0.0
 11
247.521
 21
71.0406
 31
0.0
  0
LINE
  8
0
 62
     0
 10
247.521
 20
71.0406
 30
0.0
 11
247.521
 21
74.1412
 31
0.0
  0
LINE
  8
0
 62
     0
 10
247.521
 20
74.1412
 30
0.0
 11
246.72
 21
74.1412
 31
0.0
  0
LINE
  8
0
 62
     0
 10
246.72
 20
74.1412
 30
0.0
 11
246.72
 21
79.9402
 31
0.0
  0
LINE
  8
0
 62
     0
 10
246.72
 20
79.9402
 30
0.0
 11
247.521
 21
79.9402
 31
0.0
  0
LINE
  8
0
 62
     0
 10
247.521
 20
79.9402
 30
0.0
 11
247.521
 21
83.0407
 31
0.0
  0
LINE
  8
0
 62
     0
 10
247.521
 20
83.0407
 30
0.0
 11
246.72
 21
83.0407
 31
0.0
  0
LINE
  8
0
 62
     0
 10
246.72
 20
83.0407
 30
0.0
 11
246.72
 21
84.0412
 31
0.0
  0
LINE
  8
0
 62
     0
 10
246.72
 20
84.0412
 30
0.0
 11
232.72
 21
84.0412
 31
0.0
  0
LINE
  8
0
 62
     0
 10
4.5999
 20
93.0878
 30
0.0
 11
4.15477
 21
92.8606
 31
0.0
  0
LINE
  8
0
 62
     0
 10
4.15477
 20
92.8606
 30
0.0
 11
3.80062
 21
92.5064
 31
0.0
  0
LINE
  8
0
 62
     0
 10
3.80062
 20
92.5064
 30
0.0
 11
3.57325
 21
92.0612
 31
0.0
  0
LINE
  8
0
 62
     0
 10
3.57325
 20
92.0612
 30
0.0
 11
3.49608
 21
91.5652
 31
0.0
  0
LINE
  8
0
 62
     0
 10
3.49608
 20
91.5652
 30
0.0
 11
3.57325
 21
91.0717
 31
0.0
  0
LINE
  8
0
 62
     0
 10
3.57325
 20
91.0717
 30
0.0
 11
3.80062
 21
90.6254
 31
0.0
  0
LINE
  8
0
 62
     0
 10
3.80062
 20
90.6254
 30
0.0
 11
4.15477
 21
90.2712
 31
0.0
  0
LINE
  8
0
 62
     0
 10
4.15477
 20
90.2712
 30
0.0
 11
4.5999
 21
90.0451
 31
0.0
  0
LINE
  8
0
 62
     0
 10
4.5999
 20
90.0451
 30
0.0
 11
5.09598
 21
89.9654
 31
0.0
  0
LINE
  8
0
 62
     0
 10
5.09598
 20
89.9654
 30
0.0
 11
5.58934
 21
90.0451
 31
0.0
  0
LINE
  8
0
 62
     0
 10
5.58934
 20
90.0451
 30
0.0
 11
6.03582
 21
90.2712
 31
0.0
  0
LINE
  8
0
 62
     0
 10
6.03582
 20
90.2712
 30
0.0
 11
6.38997
 21
90.6254
 31
0.0
  0
LINE
  8
0
 62
     0
 10
6.38997
 20
90.6254
 30
0.0
 11
6.61596
 21
91.0717
 31
0.0
  0
LINE
  8
0
 62
     0
 10
6.61596
 20
91.0717
 30
0.0
 11
6.6959
 21
91.5652
 31
0.0
  0
LINE
  8
0
 62
     0
 10
6.6959
 20
91.5652
 30
0.0
 11
6.61596
 21
92.0612
 31
0.0
  0
LINE
  8
0
 62
     0
 10
6.61596
 20
92.0612
 30
0.0
 11
6.38997
 21
92.5064
 31
0.0
  0
LINE
  8
0
 62
     0
 10
6.38997
 20
92.5064
 30
0.0
 11
6.03582
 21
92.8606
 31
0.0
  0
LINE
  8
0
 62
     0
 10
6.03582
 20
92.8606
 30
0.0
 11
5.58934
 21
93.0878
 31
0.0
  0
LINE
  8
0
 62
     0
 10
5.58934
 20
93.0878
 30
0.0
 11
5.09598
 21
93.1651
 31
0.0
  0
LINE
  8
0
 62
     0
 10
5.09598
 20
93.1651
 30
0.0
 11
4.5999
 21
93.0878
 31
0.0
  0
LINE
  8
0
 62
     0
 10
124.926
 20
93.0878
 30
0.0
 11
124.479
 21
92.8606
 31
0.0
  0
LINE
  8
0
 62
     0
 10
124.479
 20
92.8606
 30
0.0
 11
124.127
 21
92.5064
 31
0.0
  0
LINE
  8
0
 62
     0
 10
124.127
 20
92.5064
 30
0.0
 11
123.898
 21
92.0612
 31
0.0
  0
LINE
  8
0
 62
     0
 10
123.898
 20
92.0612
 30
0.0
 11
123.821
 21
91.5652
 31
0.0
  0
LINE
  8
0
 62
     0
 10
123.821
 20
91.5652
 30
0.0
 11
123.898
 21
91.0717
 31
0.0
  0
LINE
  8
0
 62
     0
 10
123.898
 20
91.0717
 30
0.0
 11
124.127
 21
90.6254
 31
0.0
  0
LINE
  8
0
 62
     0
 10
124.127
 20
90.6254
 30
0.0
 11
124.479
 21
90.2712
 31
0.0
  0
LINE
  8
0
 62
     0
 10
124.479
 20
90.2712
 30
0.0
 11
124.926
 21
90.0451
 31
0.0
  0
LINE
  8
0
 62
     0
 10
124.926
 20
90.0451
 30
0.0
 11
125.42
 21
89.9654
 31
0.0
  0
LINE
  8
0
 62
     0
 10
125.42
 20
89.9654
 30
0.0
 11
125.914
 21
90.0451
 31
0.0
  0
LINE
  8
0
 62
     0
 10
125.914
 20
90.0451
 30
0.0
 11
126.361
 21
90.2712
 31
0.0
  0
LINE
  8
0
 62
     0
 10
126.361
 20
90.2712
 30
0.0
 11
126.715
 21
90.6254
 31
0.0
  0
LINE
  8
0
 62
     0
 10
126.715
 20
90.6254
 30
0.0
 11
126.942
 21
91.0717
 31
0.0
  0
LINE
  8
0
 62
     0
 10
126.942
 20
91.0717
 30
0.0
 11
127.021
 21
91.5652
 31
0.0
  0
LINE
  8
0
 62
     0
 10
127.021
 20
91.5652
 30
0.0
 11
126.942
 21
92.0612
 31
0.0
  0
LINE
  8
0
 62
     0
 10
126.942
 20
92.0612
 30
0.0
 11
126.715
 21
92.5064
 31
0.0
  0
LINE
  8
0
 62
     0
 10
126.715
 20
92.5064
 30
0.0
 11
126.361
 21
92.8606
 31
0.0
  0
LINE
  8
0
 62
     0
 10
126.361
 20
92.8606
 30
0.0
 11
125.914
 21
93.0878
 31
0.0
  0
LINE
  8
0
 62
     0
 10
125.914
 20
93.0878
 30
0.0
 11
125.42
 21
93.1651
 31
0.0
  0
LINE
  8
0
 62
     0
 10
125.42
 20
93.1651
 30
0.0
 11
124.926
 21
93.0878
 31
0.0
  0
LINE
  8
0
 62
     0
 10
245.251
 20
93.0878
 30
0.0
 11
244.806
 21
92.8606
 31
0.0
  0
LINE
  8
0
 62
     0
 10
244.806
 20
92.8606
 30
0.0
 11
244.452
 21
92.5064
 31
0.0
  0
LINE
  8
0
 62
     0
 10
244.452
 20
92.5064
 30
0.0
 11
244.224
 21
92.0612
 31
0.0
  0
LINE
  8
0
 62
     0
 10
244.224
 20
92.0612
 30
0.0
 11
244.147
 21
91.5652
 31
0.0
  0
LINE
  8
0
 62
     0
 10
244.147
 20
91.5652
 30
0.0
 11
244.224
 21
91.0717
 31
0.0
  0
LINE
  8
0
 62
     0
 10
244.224
 20
91.0717
 30
0.0
 11
244.452
 21
90.6254
 31
0.0
  0
LINE
  8
0
 62
     0
 10
244.452
 20
90.6254
 30
0.0
 11
244.806
 21
90.2712
 31
0.0
  0
LINE
  8
0
 62
     0
 10
244.806
 20
90.2712
 30
0.0
 11
245.251
 21
90.0451
 31
0.0
  0
LINE
  8
0
 62
     0
 10
245.251
 20
90.0451
 30
0.0
 11
245.747
 21
89.9654
 31
0.0
  0
LINE
  8
0
 62
     0
 10
245.747
 20
89.9654
 30
0.0
 11
246.24
 21
90.0451
 31
0.0
  0
LINE
  8
0
 62
     0
 10
246.24
 20
90.0451
 30
0.0
 11
246.687
 21
90.2712
 31
0.0
  0
LINE
  8
0
 62
     0
 10
246.687
 20
90.2712
 30
0.0
 11
247.041
 21
90.6254
 31
0.0
  0
LINE
  8
0
 62
     0
 10
247.041
 20
90.6254
 30
0.0
 11
247.267
 21
91.0717
 31
0.0
  0
LINE
  8
0
 62
     0
 10
247.267
 20
91.0717
 30
0.0
 11
247.347
 21
91.5652
 31
0.0
  0
LINE
  8
0
 62
     0
 10
247.347
 20
91.5652
 30
0.0
 11
247.267
 21
92.0612
 31
0.0
  0
LINE
  8
0
 62
     0
 10
247.267
 20
92.0612
 30
0.0
 11
247.041
 21
92.5064
 31
0.0
  0
LINE
  8
0
 62
     0
 10
247.041
 20
92.5064
 30
0.0
 11
246.687
 21
92.8606
 31
0.0
  0
LINE
  8
0
 62
     0
 10
246.687
 20
92.8606
 30
0.0
 11
246.24
 21
93.0878
 31
0.0
  0
LINE
  8
0
 62
     0
 10
246.24
 20
93.0878
 30
0.0
 11
245.747
 21
93.1651
 31
0.0
  0
LINE
  8
0
 62
     0
 10
245.747
 20
93.1651
 30
0.0
 11
245.251
 21
93.0878
 31
0.0
  0
ENDSEC
  0
EOF
